%TF.GenerationSoftware,KiCad,Pcbnew,6.0.11-2627ca5db0~126~ubuntu22.04.1*%
%TF.CreationDate,2023-02-06T20:19:17-05:00*%
%TF.ProjectId,load bank,6c6f6164-2062-4616-9e6b-2e6b69636164,rev?*%
%TF.SameCoordinates,Original*%
%TF.FileFunction,Copper,L2,Bot*%
%TF.FilePolarity,Positive*%
%FSLAX46Y46*%
G04 Gerber Fmt 4.6, Leading zero omitted, Abs format (unit mm)*
G04 Created by KiCad (PCBNEW 6.0.11-2627ca5db0~126~ubuntu22.04.1) date 2023-02-06 20:19:17*
%MOMM*%
%LPD*%
G01*
G04 APERTURE LIST*
G04 Aperture macros list*
%AMRoundRect*
0 Rectangle with rounded corners*
0 $1 Rounding radius*
0 $2 $3 $4 $5 $6 $7 $8 $9 X,Y pos of 4 corners*
0 Add a 4 corners polygon primitive as box body*
4,1,4,$2,$3,$4,$5,$6,$7,$8,$9,$2,$3,0*
0 Add four circle primitives for the rounded corners*
1,1,$1+$1,$2,$3*
1,1,$1+$1,$4,$5*
1,1,$1+$1,$6,$7*
1,1,$1+$1,$8,$9*
0 Add four rect primitives between the rounded corners*
20,1,$1+$1,$2,$3,$4,$5,0*
20,1,$1+$1,$4,$5,$6,$7,0*
20,1,$1+$1,$6,$7,$8,$9,0*
20,1,$1+$1,$8,$9,$2,$3,0*%
G04 Aperture macros list end*
%ADD10C,0.100000*%
%ADD11C,0.150000*%
%ADD12C,0.300000*%
%ADD13C,0.400000*%
%TA.AperFunction,ComponentPad*%
%ADD14C,1.600000*%
%TD*%
%TA.AperFunction,ComponentPad*%
%ADD15O,1.600000X1.600000*%
%TD*%
%TA.AperFunction,ComponentPad*%
%ADD16RoundRect,0.250000X0.600000X0.750000X-0.600000X0.750000X-0.600000X-0.750000X0.600000X-0.750000X0*%
%TD*%
%TA.AperFunction,ComponentPad*%
%ADD17O,1.700000X2.000000*%
%TD*%
%TA.AperFunction,ComponentPad*%
%ADD18RoundRect,0.250000X-0.600000X-0.750000X0.600000X-0.750000X0.600000X0.750000X-0.600000X0.750000X0*%
%TD*%
%TA.AperFunction,ComponentPad*%
%ADD19C,3.000000*%
%TD*%
%TA.AperFunction,ComponentPad*%
%ADD20C,2.500000*%
%TD*%
%TA.AperFunction,ComponentPad*%
%ADD21R,2.600000X2.600000*%
%TD*%
%TA.AperFunction,ComponentPad*%
%ADD22O,2.600000X2.600000*%
%TD*%
%TA.AperFunction,ComponentPad*%
%ADD23R,2.200000X2.200000*%
%TD*%
%TA.AperFunction,ComponentPad*%
%ADD24O,2.200000X2.200000*%
%TD*%
%TA.AperFunction,ComponentPad*%
%ADD25RoundRect,0.250000X0.750000X-0.600000X0.750000X0.600000X-0.750000X0.600000X-0.750000X-0.600000X0*%
%TD*%
%TA.AperFunction,ComponentPad*%
%ADD26O,2.000000X1.700000*%
%TD*%
%TA.AperFunction,ComponentPad*%
%ADD27C,1.950000*%
%TD*%
%TA.AperFunction,ComponentPad*%
%ADD28C,2.250000*%
%TD*%
%TA.AperFunction,ComponentPad*%
%ADD29C,1.510000*%
%TD*%
%TA.AperFunction,ComponentPad*%
%ADD30O,1.200000X2.000000*%
%TD*%
%TA.AperFunction,ComponentPad*%
%ADD31C,3.600000*%
%TD*%
%TA.AperFunction,ConnectorPad*%
%ADD32C,5.600000*%
%TD*%
%TA.AperFunction,ComponentPad*%
%ADD33RoundRect,0.250001X1.099999X-1.099999X1.099999X1.099999X-1.099999X1.099999X-1.099999X-1.099999X0*%
%TD*%
%TA.AperFunction,ComponentPad*%
%ADD34C,2.700000*%
%TD*%
%TA.AperFunction,ViaPad*%
%ADD35C,1.000000*%
%TD*%
%TA.AperFunction,Conductor*%
%ADD36C,1.000000*%
%TD*%
%TA.AperFunction,Conductor*%
%ADD37C,0.500000*%
%TD*%
%TA.AperFunction,Conductor*%
%ADD38C,2.090000*%
%TD*%
G04 APERTURE END LIST*
D10*
D11*
X177002200Y-166007200D02*
X177002200Y-198007200D01*
X285002200Y-198007200D01*
X285002200Y-166007200D01*
X177002200Y-166007200D01*
D10*
D11*
X10000000Y-10000000D02*
X10000000Y-200007200D01*
X287002200Y-200007200D01*
X287002200Y-10000000D01*
X10000000Y-10000000D01*
D10*
D11*
X12000000Y-12000000D02*
X12000000Y-198007200D01*
X285002200Y-198007200D01*
X285002200Y-12000000D01*
X12000000Y-12000000D01*
D10*
D11*
X60000000Y-12000000D02*
X60000000Y-10000000D01*
D10*
D11*
X110000000Y-12000000D02*
X110000000Y-10000000D01*
D10*
D11*
X160000000Y-12000000D02*
X160000000Y-10000000D01*
D10*
D11*
X210000000Y-12000000D02*
X210000000Y-10000000D01*
D10*
D11*
X260000000Y-12000000D02*
X260000000Y-10000000D01*
D10*
D11*
X36065476Y-11588095D02*
X35322619Y-11588095D01*
X35694047Y-11588095D02*
X35694047Y-10288095D01*
X35570238Y-10473809D01*
X35446428Y-10597619D01*
X35322619Y-10659523D01*
D10*
D11*
X85322619Y-10411904D02*
X85384523Y-10350000D01*
X85508333Y-10288095D01*
X85817857Y-10288095D01*
X85941666Y-10350000D01*
X86003571Y-10411904D01*
X86065476Y-10535714D01*
X86065476Y-10659523D01*
X86003571Y-10845238D01*
X85260714Y-11588095D01*
X86065476Y-11588095D01*
D10*
D11*
X135260714Y-10288095D02*
X136065476Y-10288095D01*
X135632142Y-10783333D01*
X135817857Y-10783333D01*
X135941666Y-10845238D01*
X136003571Y-10907142D01*
X136065476Y-11030952D01*
X136065476Y-11340476D01*
X136003571Y-11464285D01*
X135941666Y-11526190D01*
X135817857Y-11588095D01*
X135446428Y-11588095D01*
X135322619Y-11526190D01*
X135260714Y-11464285D01*
D10*
D11*
X185941666Y-10721428D02*
X185941666Y-11588095D01*
X185632142Y-10226190D02*
X185322619Y-11154761D01*
X186127380Y-11154761D01*
D10*
D11*
X236003571Y-10288095D02*
X235384523Y-10288095D01*
X235322619Y-10907142D01*
X235384523Y-10845238D01*
X235508333Y-10783333D01*
X235817857Y-10783333D01*
X235941666Y-10845238D01*
X236003571Y-10907142D01*
X236065476Y-11030952D01*
X236065476Y-11340476D01*
X236003571Y-11464285D01*
X235941666Y-11526190D01*
X235817857Y-11588095D01*
X235508333Y-11588095D01*
X235384523Y-11526190D01*
X235322619Y-11464285D01*
D10*
D11*
X285941666Y-10288095D02*
X285694047Y-10288095D01*
X285570238Y-10350000D01*
X285508333Y-10411904D01*
X285384523Y-10597619D01*
X285322619Y-10845238D01*
X285322619Y-11340476D01*
X285384523Y-11464285D01*
X285446428Y-11526190D01*
X285570238Y-11588095D01*
X285817857Y-11588095D01*
X285941666Y-11526190D01*
X286003571Y-11464285D01*
X286065476Y-11340476D01*
X286065476Y-11030952D01*
X286003571Y-10907142D01*
X285941666Y-10845238D01*
X285817857Y-10783333D01*
X285570238Y-10783333D01*
X285446428Y-10845238D01*
X285384523Y-10907142D01*
X285322619Y-11030952D01*
D10*
D11*
X60000000Y-198007200D02*
X60000000Y-200007200D01*
D10*
D11*
X110000000Y-198007200D02*
X110000000Y-200007200D01*
D10*
D11*
X160000000Y-198007200D02*
X160000000Y-200007200D01*
D10*
D11*
X210000000Y-198007200D02*
X210000000Y-200007200D01*
D10*
D11*
X260000000Y-198007200D02*
X260000000Y-200007200D01*
D10*
D11*
X36065476Y-199595295D02*
X35322619Y-199595295D01*
X35694047Y-199595295D02*
X35694047Y-198295295D01*
X35570238Y-198481009D01*
X35446428Y-198604819D01*
X35322619Y-198666723D01*
D10*
D11*
X85322619Y-198419104D02*
X85384523Y-198357200D01*
X85508333Y-198295295D01*
X85817857Y-198295295D01*
X85941666Y-198357200D01*
X86003571Y-198419104D01*
X86065476Y-198542914D01*
X86065476Y-198666723D01*
X86003571Y-198852438D01*
X85260714Y-199595295D01*
X86065476Y-199595295D01*
D10*
D11*
X135260714Y-198295295D02*
X136065476Y-198295295D01*
X135632142Y-198790533D01*
X135817857Y-198790533D01*
X135941666Y-198852438D01*
X136003571Y-198914342D01*
X136065476Y-199038152D01*
X136065476Y-199347676D01*
X136003571Y-199471485D01*
X135941666Y-199533390D01*
X135817857Y-199595295D01*
X135446428Y-199595295D01*
X135322619Y-199533390D01*
X135260714Y-199471485D01*
D10*
D11*
X185941666Y-198728628D02*
X185941666Y-199595295D01*
X185632142Y-198233390D02*
X185322619Y-199161961D01*
X186127380Y-199161961D01*
D10*
D11*
X236003571Y-198295295D02*
X235384523Y-198295295D01*
X235322619Y-198914342D01*
X235384523Y-198852438D01*
X235508333Y-198790533D01*
X235817857Y-198790533D01*
X235941666Y-198852438D01*
X236003571Y-198914342D01*
X236065476Y-199038152D01*
X236065476Y-199347676D01*
X236003571Y-199471485D01*
X235941666Y-199533390D01*
X235817857Y-199595295D01*
X235508333Y-199595295D01*
X235384523Y-199533390D01*
X235322619Y-199471485D01*
D10*
D11*
X285941666Y-198295295D02*
X285694047Y-198295295D01*
X285570238Y-198357200D01*
X285508333Y-198419104D01*
X285384523Y-198604819D01*
X285322619Y-198852438D01*
X285322619Y-199347676D01*
X285384523Y-199471485D01*
X285446428Y-199533390D01*
X285570238Y-199595295D01*
X285817857Y-199595295D01*
X285941666Y-199533390D01*
X286003571Y-199471485D01*
X286065476Y-199347676D01*
X286065476Y-199038152D01*
X286003571Y-198914342D01*
X285941666Y-198852438D01*
X285817857Y-198790533D01*
X285570238Y-198790533D01*
X285446428Y-198852438D01*
X285384523Y-198914342D01*
X285322619Y-199038152D01*
D10*
D11*
X10000000Y-60000000D02*
X12000000Y-60000000D01*
D10*
D11*
X10000000Y-110000000D02*
X12000000Y-110000000D01*
D10*
D11*
X10000000Y-160000000D02*
X12000000Y-160000000D01*
D10*
D11*
X10690476Y-35216666D02*
X11309523Y-35216666D01*
X10566666Y-35588095D02*
X11000000Y-34288095D01*
X11433333Y-35588095D01*
D10*
D11*
X11092857Y-84907142D02*
X11278571Y-84969047D01*
X11340476Y-85030952D01*
X11402380Y-85154761D01*
X11402380Y-85340476D01*
X11340476Y-85464285D01*
X11278571Y-85526190D01*
X11154761Y-85588095D01*
X10659523Y-85588095D01*
X10659523Y-84288095D01*
X11092857Y-84288095D01*
X11216666Y-84350000D01*
X11278571Y-84411904D01*
X11340476Y-84535714D01*
X11340476Y-84659523D01*
X11278571Y-84783333D01*
X11216666Y-84845238D01*
X11092857Y-84907142D01*
X10659523Y-84907142D01*
D10*
D11*
X11402380Y-135464285D02*
X11340476Y-135526190D01*
X11154761Y-135588095D01*
X11030952Y-135588095D01*
X10845238Y-135526190D01*
X10721428Y-135402380D01*
X10659523Y-135278571D01*
X10597619Y-135030952D01*
X10597619Y-134845238D01*
X10659523Y-134597619D01*
X10721428Y-134473809D01*
X10845238Y-134350000D01*
X11030952Y-134288095D01*
X11154761Y-134288095D01*
X11340476Y-134350000D01*
X11402380Y-134411904D01*
D10*
D11*
X10659523Y-185588095D02*
X10659523Y-184288095D01*
X10969047Y-184288095D01*
X11154761Y-184350000D01*
X11278571Y-184473809D01*
X11340476Y-184597619D01*
X11402380Y-184845238D01*
X11402380Y-185030952D01*
X11340476Y-185278571D01*
X11278571Y-185402380D01*
X11154761Y-185526190D01*
X10969047Y-185588095D01*
X10659523Y-185588095D01*
D10*
D11*
X287002200Y-60000000D02*
X285002200Y-60000000D01*
D10*
D11*
X287002200Y-110000000D02*
X285002200Y-110000000D01*
D10*
D11*
X287002200Y-160000000D02*
X285002200Y-160000000D01*
D10*
D11*
X285692676Y-35216666D02*
X286311723Y-35216666D01*
X285568866Y-35588095D02*
X286002200Y-34288095D01*
X286435533Y-35588095D01*
D10*
D11*
X286095057Y-84907142D02*
X286280771Y-84969047D01*
X286342676Y-85030952D01*
X286404580Y-85154761D01*
X286404580Y-85340476D01*
X286342676Y-85464285D01*
X286280771Y-85526190D01*
X286156961Y-85588095D01*
X285661723Y-85588095D01*
X285661723Y-84288095D01*
X286095057Y-84288095D01*
X286218866Y-84350000D01*
X286280771Y-84411904D01*
X286342676Y-84535714D01*
X286342676Y-84659523D01*
X286280771Y-84783333D01*
X286218866Y-84845238D01*
X286095057Y-84907142D01*
X285661723Y-84907142D01*
D10*
D11*
X286404580Y-135464285D02*
X286342676Y-135526190D01*
X286156961Y-135588095D01*
X286033152Y-135588095D01*
X285847438Y-135526190D01*
X285723628Y-135402380D01*
X285661723Y-135278571D01*
X285599819Y-135030952D01*
X285599819Y-134845238D01*
X285661723Y-134597619D01*
X285723628Y-134473809D01*
X285847438Y-134350000D01*
X286033152Y-134288095D01*
X286156961Y-134288095D01*
X286342676Y-134350000D01*
X286404580Y-134411904D01*
D10*
D11*
X285661723Y-185588095D02*
X285661723Y-184288095D01*
X285971247Y-184288095D01*
X286156961Y-184350000D01*
X286280771Y-184473809D01*
X286342676Y-184597619D01*
X286404580Y-184845238D01*
X286404580Y-185030952D01*
X286342676Y-185278571D01*
X286280771Y-185402380D01*
X286156961Y-185526190D01*
X285971247Y-185588095D01*
X285661723Y-185588095D01*
D10*
D11*
X200434342Y-193785771D02*
X200434342Y-192285771D01*
X200791485Y-192285771D01*
X201005771Y-192357200D01*
X201148628Y-192500057D01*
X201220057Y-192642914D01*
X201291485Y-192928628D01*
X201291485Y-193142914D01*
X201220057Y-193428628D01*
X201148628Y-193571485D01*
X201005771Y-193714342D01*
X200791485Y-193785771D01*
X200434342Y-193785771D01*
X202577200Y-193785771D02*
X202577200Y-193000057D01*
X202505771Y-192857200D01*
X202362914Y-192785771D01*
X202077200Y-192785771D01*
X201934342Y-192857200D01*
X202577200Y-193714342D02*
X202434342Y-193785771D01*
X202077200Y-193785771D01*
X201934342Y-193714342D01*
X201862914Y-193571485D01*
X201862914Y-193428628D01*
X201934342Y-193285771D01*
X202077200Y-193214342D01*
X202434342Y-193214342D01*
X202577200Y-193142914D01*
X203077200Y-192785771D02*
X203648628Y-192785771D01*
X203291485Y-192285771D02*
X203291485Y-193571485D01*
X203362914Y-193714342D01*
X203505771Y-193785771D01*
X203648628Y-193785771D01*
X204720057Y-193714342D02*
X204577200Y-193785771D01*
X204291485Y-193785771D01*
X204148628Y-193714342D01*
X204077200Y-193571485D01*
X204077200Y-193000057D01*
X204148628Y-192857200D01*
X204291485Y-192785771D01*
X204577200Y-192785771D01*
X204720057Y-192857200D01*
X204791485Y-193000057D01*
X204791485Y-193142914D01*
X204077200Y-193285771D01*
X205434342Y-193642914D02*
X205505771Y-193714342D01*
X205434342Y-193785771D01*
X205362914Y-193714342D01*
X205434342Y-193642914D01*
X205434342Y-193785771D01*
X205434342Y-192857200D02*
X205505771Y-192928628D01*
X205434342Y-193000057D01*
X205362914Y-192928628D01*
X205434342Y-192857200D01*
X205434342Y-193000057D01*
D10*
D11*
X177002200Y-194507200D02*
X285002200Y-194507200D01*
D10*
D11*
X178434342Y-196585771D02*
X178434342Y-195085771D01*
X179291485Y-196585771D02*
X178648628Y-195728628D01*
X179291485Y-195085771D02*
X178434342Y-195942914D01*
X179934342Y-196585771D02*
X179934342Y-195585771D01*
X179934342Y-195085771D02*
X179862914Y-195157200D01*
X179934342Y-195228628D01*
X180005771Y-195157200D01*
X179934342Y-195085771D01*
X179934342Y-195228628D01*
X181505771Y-196442914D02*
X181434342Y-196514342D01*
X181220057Y-196585771D01*
X181077200Y-196585771D01*
X180862914Y-196514342D01*
X180720057Y-196371485D01*
X180648628Y-196228628D01*
X180577200Y-195942914D01*
X180577200Y-195728628D01*
X180648628Y-195442914D01*
X180720057Y-195300057D01*
X180862914Y-195157200D01*
X181077200Y-195085771D01*
X181220057Y-195085771D01*
X181434342Y-195157200D01*
X181505771Y-195228628D01*
X182791485Y-196585771D02*
X182791485Y-195800057D01*
X182720057Y-195657200D01*
X182577200Y-195585771D01*
X182291485Y-195585771D01*
X182148628Y-195657200D01*
X182791485Y-196514342D02*
X182648628Y-196585771D01*
X182291485Y-196585771D01*
X182148628Y-196514342D01*
X182077200Y-196371485D01*
X182077200Y-196228628D01*
X182148628Y-196085771D01*
X182291485Y-196014342D01*
X182648628Y-196014342D01*
X182791485Y-195942914D01*
X184148628Y-196585771D02*
X184148628Y-195085771D01*
X184148628Y-196514342D02*
X184005771Y-196585771D01*
X183720057Y-196585771D01*
X183577200Y-196514342D01*
X183505771Y-196442914D01*
X183434342Y-196300057D01*
X183434342Y-195871485D01*
X183505771Y-195728628D01*
X183577200Y-195657200D01*
X183720057Y-195585771D01*
X184005771Y-195585771D01*
X184148628Y-195657200D01*
X186005771Y-195800057D02*
X186505771Y-195800057D01*
X186720057Y-196585771D02*
X186005771Y-196585771D01*
X186005771Y-195085771D01*
X186720057Y-195085771D01*
X187362914Y-196442914D02*
X187434342Y-196514342D01*
X187362914Y-196585771D01*
X187291485Y-196514342D01*
X187362914Y-196442914D01*
X187362914Y-196585771D01*
X188077200Y-196585771D02*
X188077200Y-195085771D01*
X188434342Y-195085771D01*
X188648628Y-195157200D01*
X188791485Y-195300057D01*
X188862914Y-195442914D01*
X188934342Y-195728628D01*
X188934342Y-195942914D01*
X188862914Y-196228628D01*
X188791485Y-196371485D01*
X188648628Y-196514342D01*
X188434342Y-196585771D01*
X188077200Y-196585771D01*
X189577200Y-196442914D02*
X189648628Y-196514342D01*
X189577200Y-196585771D01*
X189505771Y-196514342D01*
X189577200Y-196442914D01*
X189577200Y-196585771D01*
X190220057Y-196157200D02*
X190934342Y-196157200D01*
X190077200Y-196585771D02*
X190577200Y-195085771D01*
X191077200Y-196585771D01*
X191577200Y-196442914D02*
X191648628Y-196514342D01*
X191577200Y-196585771D01*
X191505771Y-196514342D01*
X191577200Y-196442914D01*
X191577200Y-196585771D01*
X194577200Y-196585771D02*
X194577200Y-195085771D01*
X194720057Y-196014342D02*
X195148628Y-196585771D01*
X195148628Y-195585771D02*
X194577200Y-196157200D01*
X195791485Y-196585771D02*
X195791485Y-195585771D01*
X195791485Y-195085771D02*
X195720057Y-195157200D01*
X195791485Y-195228628D01*
X195862914Y-195157200D01*
X195791485Y-195085771D01*
X195791485Y-195228628D01*
X197148628Y-196514342D02*
X197005771Y-196585771D01*
X196720057Y-196585771D01*
X196577200Y-196514342D01*
X196505771Y-196442914D01*
X196434342Y-196300057D01*
X196434342Y-195871485D01*
X196505771Y-195728628D01*
X196577200Y-195657200D01*
X196720057Y-195585771D01*
X197005771Y-195585771D01*
X197148628Y-195657200D01*
X198434342Y-196585771D02*
X198434342Y-195800057D01*
X198362914Y-195657200D01*
X198220057Y-195585771D01*
X197934342Y-195585771D01*
X197791485Y-195657200D01*
X198434342Y-196514342D02*
X198291485Y-196585771D01*
X197934342Y-196585771D01*
X197791485Y-196514342D01*
X197720057Y-196371485D01*
X197720057Y-196228628D01*
X197791485Y-196085771D01*
X197934342Y-196014342D01*
X198291485Y-196014342D01*
X198434342Y-195942914D01*
X199791485Y-196585771D02*
X199791485Y-195085771D01*
X199791485Y-196514342D02*
X199648628Y-196585771D01*
X199362914Y-196585771D01*
X199220057Y-196514342D01*
X199148628Y-196442914D01*
X199077200Y-196300057D01*
X199077200Y-195871485D01*
X199148628Y-195728628D01*
X199220057Y-195657200D01*
X199362914Y-195585771D01*
X199648628Y-195585771D01*
X199791485Y-195657200D01*
X202291485Y-195085771D02*
X202005771Y-195085771D01*
X201862914Y-195157200D01*
X201791485Y-195228628D01*
X201648628Y-195442914D01*
X201577200Y-195728628D01*
X201577200Y-196300057D01*
X201648628Y-196442914D01*
X201720057Y-196514342D01*
X201862914Y-196585771D01*
X202148628Y-196585771D01*
X202291485Y-196514342D01*
X202362914Y-196442914D01*
X202434342Y-196300057D01*
X202434342Y-195942914D01*
X202362914Y-195800057D01*
X202291485Y-195728628D01*
X202148628Y-195657200D01*
X201862914Y-195657200D01*
X201720057Y-195728628D01*
X201648628Y-195800057D01*
X201577200Y-195942914D01*
X203077200Y-196442914D02*
X203148628Y-196514342D01*
X203077200Y-196585771D01*
X203005771Y-196514342D01*
X203077200Y-196442914D01*
X203077200Y-196585771D01*
X204077200Y-195085771D02*
X204220057Y-195085771D01*
X204362914Y-195157200D01*
X204434342Y-195228628D01*
X204505771Y-195371485D01*
X204577200Y-195657200D01*
X204577200Y-196014342D01*
X204505771Y-196300057D01*
X204434342Y-196442914D01*
X204362914Y-196514342D01*
X204220057Y-196585771D01*
X204077200Y-196585771D01*
X203934342Y-196514342D01*
X203862914Y-196442914D01*
X203791485Y-196300057D01*
X203720057Y-196014342D01*
X203720057Y-195657200D01*
X203791485Y-195371485D01*
X203862914Y-195228628D01*
X203934342Y-195157200D01*
X204077200Y-195085771D01*
X205220057Y-196442914D02*
X205291485Y-196514342D01*
X205220057Y-196585771D01*
X205148628Y-196514342D01*
X205220057Y-196442914D01*
X205220057Y-196585771D01*
X206720057Y-196585771D02*
X205862914Y-196585771D01*
X206291485Y-196585771D02*
X206291485Y-195085771D01*
X206148628Y-195300057D01*
X206005771Y-195442914D01*
X205862914Y-195514342D01*
X208148628Y-196585771D02*
X207291485Y-196585771D01*
X207720057Y-196585771D02*
X207720057Y-195085771D01*
X207577200Y-195300057D01*
X207434342Y-195442914D01*
X207291485Y-195514342D01*
X208791485Y-196014342D02*
X209934342Y-196014342D01*
X210577200Y-195228628D02*
X210648628Y-195157200D01*
X210791485Y-195085771D01*
X211148628Y-195085771D01*
X211291485Y-195157200D01*
X211362914Y-195228628D01*
X211434342Y-195371485D01*
X211434342Y-195514342D01*
X211362914Y-195728628D01*
X210505771Y-196585771D01*
X211434342Y-196585771D01*
X212720057Y-195085771D02*
X212434342Y-195085771D01*
X212291485Y-195157200D01*
X212220057Y-195228628D01*
X212077200Y-195442914D01*
X212005771Y-195728628D01*
X212005771Y-196300057D01*
X212077200Y-196442914D01*
X212148628Y-196514342D01*
X212291485Y-196585771D01*
X212577200Y-196585771D01*
X212720057Y-196514342D01*
X212791485Y-196442914D01*
X212862914Y-196300057D01*
X212862914Y-195942914D01*
X212791485Y-195800057D01*
X212720057Y-195728628D01*
X212577200Y-195657200D01*
X212291485Y-195657200D01*
X212148628Y-195728628D01*
X212077200Y-195800057D01*
X212005771Y-195942914D01*
X213434342Y-195228628D02*
X213505771Y-195157200D01*
X213648628Y-195085771D01*
X214005771Y-195085771D01*
X214148628Y-195157200D01*
X214220057Y-195228628D01*
X214291485Y-195371485D01*
X214291485Y-195514342D01*
X214220057Y-195728628D01*
X213362914Y-196585771D01*
X214291485Y-196585771D01*
X214791485Y-195085771D02*
X215791485Y-195085771D01*
X215148628Y-196585771D01*
X217005771Y-196514342D02*
X216862914Y-196585771D01*
X216577200Y-196585771D01*
X216434342Y-196514342D01*
X216362914Y-196442914D01*
X216291485Y-196300057D01*
X216291485Y-195871485D01*
X216362914Y-195728628D01*
X216434342Y-195657200D01*
X216577200Y-195585771D01*
X216862914Y-195585771D01*
X217005771Y-195657200D01*
X218291485Y-196585771D02*
X218291485Y-195800057D01*
X218220057Y-195657200D01*
X218077200Y-195585771D01*
X217791485Y-195585771D01*
X217648628Y-195657200D01*
X218291485Y-196514342D02*
X218148628Y-196585771D01*
X217791485Y-196585771D01*
X217648628Y-196514342D01*
X217577200Y-196371485D01*
X217577200Y-196228628D01*
X217648628Y-196085771D01*
X217791485Y-196014342D01*
X218148628Y-196014342D01*
X218291485Y-195942914D01*
X219720057Y-195085771D02*
X219005771Y-195085771D01*
X218934342Y-195800057D01*
X219005771Y-195728628D01*
X219148628Y-195657200D01*
X219505771Y-195657200D01*
X219648628Y-195728628D01*
X219720057Y-195800057D01*
X219791485Y-195942914D01*
X219791485Y-196300057D01*
X219720057Y-196442914D01*
X219648628Y-196514342D01*
X219505771Y-196585771D01*
X219148628Y-196585771D01*
X219005771Y-196514342D01*
X218934342Y-196442914D01*
X221077200Y-196585771D02*
X221077200Y-195085771D01*
X221077200Y-196514342D02*
X220934342Y-196585771D01*
X220648628Y-196585771D01*
X220505771Y-196514342D01*
X220434342Y-196442914D01*
X220362914Y-196300057D01*
X220362914Y-195871485D01*
X220434342Y-195728628D01*
X220505771Y-195657200D01*
X220648628Y-195585771D01*
X220934342Y-195585771D01*
X221077200Y-195657200D01*
X221791485Y-196585771D02*
X221791485Y-195085771D01*
X221791485Y-195657200D02*
X221934342Y-195585771D01*
X222220057Y-195585771D01*
X222362914Y-195657200D01*
X222434342Y-195728628D01*
X222505771Y-195871485D01*
X222505771Y-196300057D01*
X222434342Y-196442914D01*
X222362914Y-196514342D01*
X222220057Y-196585771D01*
X221934342Y-196585771D01*
X221791485Y-196514342D01*
X223434342Y-195085771D02*
X223577200Y-195085771D01*
X223720057Y-195157200D01*
X223791485Y-195228628D01*
X223862914Y-195371485D01*
X223934342Y-195657200D01*
X223934342Y-196014342D01*
X223862914Y-196300057D01*
X223791485Y-196442914D01*
X223720057Y-196514342D01*
X223577200Y-196585771D01*
X223434342Y-196585771D01*
X223291485Y-196514342D01*
X223220057Y-196442914D01*
X223148628Y-196300057D01*
X223077200Y-196014342D01*
X223077200Y-195657200D01*
X223148628Y-195371485D01*
X223220057Y-195228628D01*
X223291485Y-195157200D01*
X223434342Y-195085771D01*
X224362914Y-196014342D02*
X224434342Y-195942914D01*
X224577200Y-195871485D01*
X224862914Y-196014342D01*
X225005771Y-195942914D01*
X225077200Y-195871485D01*
X226434342Y-196585771D02*
X225577200Y-196585771D01*
X226005771Y-196585771D02*
X226005771Y-195085771D01*
X225862914Y-195300057D01*
X225720057Y-195442914D01*
X225577200Y-195514342D01*
X227005771Y-195228628D02*
X227077200Y-195157200D01*
X227220057Y-195085771D01*
X227577200Y-195085771D01*
X227720057Y-195157200D01*
X227791485Y-195228628D01*
X227862914Y-195371485D01*
X227862914Y-195514342D01*
X227791485Y-195728628D01*
X226934342Y-196585771D01*
X227862914Y-196585771D01*
X229148628Y-195085771D02*
X228862914Y-195085771D01*
X228720057Y-195157200D01*
X228648628Y-195228628D01*
X228505771Y-195442914D01*
X228434342Y-195728628D01*
X228434342Y-196300057D01*
X228505771Y-196442914D01*
X228577199Y-196514342D01*
X228720057Y-196585771D01*
X229005771Y-196585771D01*
X229148628Y-196514342D01*
X229220057Y-196442914D01*
X229291485Y-196300057D01*
X229291485Y-195942914D01*
X229220057Y-195800057D01*
X229148628Y-195728628D01*
X229005771Y-195657200D01*
X228720057Y-195657200D01*
X228577199Y-195728628D01*
X228505771Y-195800057D01*
X228434342Y-195942914D01*
X229720057Y-196014342D02*
X229791485Y-195942914D01*
X229934342Y-195871485D01*
X230220057Y-196014342D01*
X230362914Y-195942914D01*
X230434342Y-195871485D01*
X231648628Y-195585771D02*
X231648628Y-196585771D01*
X231005771Y-195585771D02*
X231005771Y-196371485D01*
X231077199Y-196514342D01*
X231220057Y-196585771D01*
X231434342Y-196585771D01*
X231577199Y-196514342D01*
X231648628Y-196442914D01*
X232362914Y-196585771D02*
X232362914Y-195085771D01*
X232362914Y-195657200D02*
X232505771Y-195585771D01*
X232791485Y-195585771D01*
X232934342Y-195657200D01*
X233005771Y-195728628D01*
X233077200Y-195871485D01*
X233077200Y-196300057D01*
X233005771Y-196442914D01*
X232934342Y-196514342D01*
X232791485Y-196585771D01*
X232505771Y-196585771D01*
X232362914Y-196514342D01*
X234362914Y-195585771D02*
X234362914Y-196585771D01*
X233720057Y-195585771D02*
X233720057Y-196371485D01*
X233791485Y-196514342D01*
X233934342Y-196585771D01*
X234148628Y-196585771D01*
X234291485Y-196514342D01*
X234362914Y-196442914D01*
X235077200Y-195585771D02*
X235077200Y-196585771D01*
X235077200Y-195728628D02*
X235148628Y-195657200D01*
X235291485Y-195585771D01*
X235505771Y-195585771D01*
X235648628Y-195657200D01*
X235720057Y-195800057D01*
X235720057Y-196585771D01*
X236220057Y-195585771D02*
X236791485Y-195585771D01*
X236434342Y-195085771D02*
X236434342Y-196371485D01*
X236505771Y-196514342D01*
X236648628Y-196585771D01*
X236791485Y-196585771D01*
X237934342Y-195585771D02*
X237934342Y-196585771D01*
X237291485Y-195585771D02*
X237291485Y-196371485D01*
X237362914Y-196514342D01*
X237505771Y-196585771D01*
X237720057Y-196585771D01*
X237862914Y-196514342D01*
X237934342Y-196442914D01*
X238577200Y-195228628D02*
X238648628Y-195157200D01*
X238791485Y-195085771D01*
X239148628Y-195085771D01*
X239291485Y-195157200D01*
X239362914Y-195228628D01*
X239434342Y-195371485D01*
X239434342Y-195514342D01*
X239362914Y-195728628D01*
X238505771Y-196585771D01*
X239434342Y-196585771D01*
X240005771Y-195228628D02*
X240077200Y-195157200D01*
X240220057Y-195085771D01*
X240577200Y-195085771D01*
X240720057Y-195157200D01*
X240791485Y-195228628D01*
X240862914Y-195371485D01*
X240862914Y-195514342D01*
X240791485Y-195728628D01*
X239934342Y-196585771D01*
X240862914Y-196585771D01*
X241505771Y-196442914D02*
X241577199Y-196514342D01*
X241505771Y-196585771D01*
X241434342Y-196514342D01*
X241505771Y-196442914D01*
X241505771Y-196585771D01*
X242505771Y-195085771D02*
X242648628Y-195085771D01*
X242791485Y-195157200D01*
X242862914Y-195228628D01*
X242934342Y-195371485D01*
X243005771Y-195657200D01*
X243005771Y-196014342D01*
X242934342Y-196300057D01*
X242862914Y-196442914D01*
X242791485Y-196514342D01*
X242648628Y-196585771D01*
X242505771Y-196585771D01*
X242362914Y-196514342D01*
X242291485Y-196442914D01*
X242220057Y-196300057D01*
X242148628Y-196014342D01*
X242148628Y-195657200D01*
X242220057Y-195371485D01*
X242291485Y-195228628D01*
X242362914Y-195157200D01*
X242505771Y-195085771D01*
X244291485Y-195585771D02*
X244291485Y-196585771D01*
X243934342Y-195014342D02*
X243577199Y-196085771D01*
X244505771Y-196085771D01*
X245077199Y-196442914D02*
X245148628Y-196514342D01*
X245077199Y-196585771D01*
X245005771Y-196514342D01*
X245077199Y-196442914D01*
X245077199Y-196585771D01*
X246577200Y-196585771D02*
X245720057Y-196585771D01*
X246148628Y-196585771D02*
X246148628Y-195085771D01*
X246005771Y-195300057D01*
X245862914Y-195442914D01*
X245720057Y-195514342D01*
D10*
D11*
X177002200Y-191507200D02*
X285002200Y-191507200D01*
D10*
D12*
X264411485Y-193785771D02*
X263911485Y-193071485D01*
X263554342Y-193785771D02*
X263554342Y-192285771D01*
X264125771Y-192285771D01*
X264268628Y-192357200D01*
X264340057Y-192428628D01*
X264411485Y-192571485D01*
X264411485Y-192785771D01*
X264340057Y-192928628D01*
X264268628Y-193000057D01*
X264125771Y-193071485D01*
X263554342Y-193071485D01*
X265625771Y-193714342D02*
X265482914Y-193785771D01*
X265197200Y-193785771D01*
X265054342Y-193714342D01*
X264982914Y-193571485D01*
X264982914Y-193000057D01*
X265054342Y-192857200D01*
X265197200Y-192785771D01*
X265482914Y-192785771D01*
X265625771Y-192857200D01*
X265697200Y-193000057D01*
X265697200Y-193142914D01*
X264982914Y-193285771D01*
X266197200Y-192785771D02*
X266554342Y-193785771D01*
X266911485Y-192785771D01*
X267482914Y-193642914D02*
X267554342Y-193714342D01*
X267482914Y-193785771D01*
X267411485Y-193714342D01*
X267482914Y-193642914D01*
X267482914Y-193785771D01*
X267482914Y-192857200D02*
X267554342Y-192928628D01*
X267482914Y-193000057D01*
X267411485Y-192928628D01*
X267482914Y-192857200D01*
X267482914Y-193000057D01*
D10*
D11*
X178362914Y-193714342D02*
X178577200Y-193785771D01*
X178934342Y-193785771D01*
X179077200Y-193714342D01*
X179148628Y-193642914D01*
X179220057Y-193500057D01*
X179220057Y-193357200D01*
X179148628Y-193214342D01*
X179077200Y-193142914D01*
X178934342Y-193071485D01*
X178648628Y-193000057D01*
X178505771Y-192928628D01*
X178434342Y-192857200D01*
X178362914Y-192714342D01*
X178362914Y-192571485D01*
X178434342Y-192428628D01*
X178505771Y-192357200D01*
X178648628Y-192285771D01*
X179005771Y-192285771D01*
X179220057Y-192357200D01*
X179862914Y-193785771D02*
X179862914Y-192785771D01*
X179862914Y-192285771D02*
X179791485Y-192357200D01*
X179862914Y-192428628D01*
X179934342Y-192357200D01*
X179862914Y-192285771D01*
X179862914Y-192428628D01*
X180434342Y-192785771D02*
X181220057Y-192785771D01*
X180434342Y-193785771D01*
X181220057Y-193785771D01*
X182362914Y-193714342D02*
X182220057Y-193785771D01*
X181934342Y-193785771D01*
X181791485Y-193714342D01*
X181720057Y-193571485D01*
X181720057Y-193000057D01*
X181791485Y-192857200D01*
X181934342Y-192785771D01*
X182220057Y-192785771D01*
X182362914Y-192857200D01*
X182434342Y-193000057D01*
X182434342Y-193142914D01*
X181720057Y-193285771D01*
X183077200Y-193642914D02*
X183148628Y-193714342D01*
X183077200Y-193785771D01*
X183005771Y-193714342D01*
X183077200Y-193642914D01*
X183077200Y-193785771D01*
X183077200Y-192857200D02*
X183148628Y-192928628D01*
X183077200Y-193000057D01*
X183005771Y-192928628D01*
X183077200Y-192857200D01*
X183077200Y-193000057D01*
X184862914Y-193357200D02*
X185577200Y-193357200D01*
X184720057Y-193785771D02*
X185220057Y-192285771D01*
X185720057Y-193785771D01*
X186862914Y-192785771D02*
X186862914Y-193785771D01*
X186505771Y-192214342D02*
X186148628Y-193285771D01*
X187077200Y-193285771D01*
D10*
D11*
X263434342Y-196585771D02*
X263434342Y-195085771D01*
X264791485Y-196585771D02*
X264791485Y-195085771D01*
X264791485Y-196514342D02*
X264648628Y-196585771D01*
X264362914Y-196585771D01*
X264220057Y-196514342D01*
X264148628Y-196442914D01*
X264077200Y-196300057D01*
X264077200Y-195871485D01*
X264148628Y-195728628D01*
X264220057Y-195657200D01*
X264362914Y-195585771D01*
X264648628Y-195585771D01*
X264791485Y-195657200D01*
X265505771Y-196442914D02*
X265577200Y-196514342D01*
X265505771Y-196585771D01*
X265434342Y-196514342D01*
X265505771Y-196442914D01*
X265505771Y-196585771D01*
X265505771Y-195657200D02*
X265577200Y-195728628D01*
X265505771Y-195800057D01*
X265434342Y-195728628D01*
X265505771Y-195657200D01*
X265505771Y-195800057D01*
X268148628Y-196585771D02*
X267291485Y-196585771D01*
X267720057Y-196585771D02*
X267720057Y-195085771D01*
X267577200Y-195300057D01*
X267434342Y-195442914D01*
X267291485Y-195514342D01*
X269862914Y-195014342D02*
X268577200Y-196942914D01*
X271148628Y-196585771D02*
X270291485Y-196585771D01*
X270720057Y-196585771D02*
X270720057Y-195085771D01*
X270577200Y-195300057D01*
X270434342Y-195442914D01*
X270291485Y-195514342D01*
D10*
D11*
X177002200Y-187507200D02*
X285002200Y-187507200D01*
D10*
D13*
X178714580Y-188211961D02*
X179857438Y-188211961D01*
X179036009Y-190211961D02*
X179286009Y-188211961D01*
X180274104Y-190211961D02*
X180440771Y-188878628D01*
X180524104Y-188211961D02*
X180416961Y-188307200D01*
X180500295Y-188402438D01*
X180607438Y-188307200D01*
X180524104Y-188211961D01*
X180500295Y-188402438D01*
X181107438Y-188878628D02*
X181869342Y-188878628D01*
X181476485Y-188211961D02*
X181262200Y-189926247D01*
X181333628Y-190116723D01*
X181512200Y-190211961D01*
X181702676Y-190211961D01*
X182655057Y-190211961D02*
X182476485Y-190116723D01*
X182405057Y-189926247D01*
X182619342Y-188211961D01*
X184190771Y-190116723D02*
X183988390Y-190211961D01*
X183607438Y-190211961D01*
X183428866Y-190116723D01*
X183357438Y-189926247D01*
X183452676Y-189164342D01*
X183571723Y-188973866D01*
X183774104Y-188878628D01*
X184155057Y-188878628D01*
X184333628Y-188973866D01*
X184405057Y-189164342D01*
X184381247Y-189354819D01*
X183405057Y-189545295D01*
X185155057Y-190021485D02*
X185238390Y-190116723D01*
X185131247Y-190211961D01*
X185047914Y-190116723D01*
X185155057Y-190021485D01*
X185131247Y-190211961D01*
X185286009Y-188973866D02*
X185369342Y-189069104D01*
X185262200Y-189164342D01*
X185178866Y-189069104D01*
X185286009Y-188973866D01*
X185262200Y-189164342D01*
D10*
D11*
X178934342Y-185600057D02*
X178434342Y-185600057D01*
X178434342Y-186385771D02*
X178434342Y-184885771D01*
X179148628Y-184885771D01*
X179720057Y-186385771D02*
X179720057Y-185385771D01*
X179720057Y-184885771D02*
X179648628Y-184957200D01*
X179720057Y-185028628D01*
X179791485Y-184957200D01*
X179720057Y-184885771D01*
X179720057Y-185028628D01*
X180648628Y-186385771D02*
X180505771Y-186314342D01*
X180434342Y-186171485D01*
X180434342Y-184885771D01*
X181791485Y-186314342D02*
X181648628Y-186385771D01*
X181362914Y-186385771D01*
X181220057Y-186314342D01*
X181148628Y-186171485D01*
X181148628Y-185600057D01*
X181220057Y-185457200D01*
X181362914Y-185385771D01*
X181648628Y-185385771D01*
X181791485Y-185457200D01*
X181862914Y-185600057D01*
X181862914Y-185742914D01*
X181148628Y-185885771D01*
X182505771Y-186242914D02*
X182577200Y-186314342D01*
X182505771Y-186385771D01*
X182434342Y-186314342D01*
X182505771Y-186242914D01*
X182505771Y-186385771D01*
X182505771Y-185457200D02*
X182577200Y-185528628D01*
X182505771Y-185600057D01*
X182434342Y-185528628D01*
X182505771Y-185457200D01*
X182505771Y-185600057D01*
X184577200Y-186385771D02*
X184434342Y-186314342D01*
X184362914Y-186171485D01*
X184362914Y-184885771D01*
X185362914Y-186385771D02*
X185220057Y-186314342D01*
X185148628Y-186242914D01*
X185077200Y-186100057D01*
X185077200Y-185671485D01*
X185148628Y-185528628D01*
X185220057Y-185457200D01*
X185362914Y-185385771D01*
X185577200Y-185385771D01*
X185720057Y-185457200D01*
X185791485Y-185528628D01*
X185862914Y-185671485D01*
X185862914Y-186100057D01*
X185791485Y-186242914D01*
X185720057Y-186314342D01*
X185577200Y-186385771D01*
X185362914Y-186385771D01*
X187148628Y-186385771D02*
X187148628Y-185600057D01*
X187077200Y-185457200D01*
X186934342Y-185385771D01*
X186648628Y-185385771D01*
X186505771Y-185457200D01*
X187148628Y-186314342D02*
X187005771Y-186385771D01*
X186648628Y-186385771D01*
X186505771Y-186314342D01*
X186434342Y-186171485D01*
X186434342Y-186028628D01*
X186505771Y-185885771D01*
X186648628Y-185814342D01*
X187005771Y-185814342D01*
X187148628Y-185742914D01*
X188505771Y-186385771D02*
X188505771Y-184885771D01*
X188505771Y-186314342D02*
X188362914Y-186385771D01*
X188077200Y-186385771D01*
X187934342Y-186314342D01*
X187862914Y-186242914D01*
X187791485Y-186100057D01*
X187791485Y-185671485D01*
X187862914Y-185528628D01*
X187934342Y-185457200D01*
X188077200Y-185385771D01*
X188362914Y-185385771D01*
X188505771Y-185457200D01*
X190362914Y-186385771D02*
X190362914Y-184885771D01*
X190362914Y-185457200D02*
X190505771Y-185385771D01*
X190791485Y-185385771D01*
X190934342Y-185457200D01*
X191005771Y-185528628D01*
X191077200Y-185671485D01*
X191077200Y-186100057D01*
X191005771Y-186242914D01*
X190934342Y-186314342D01*
X190791485Y-186385771D01*
X190505771Y-186385771D01*
X190362914Y-186314342D01*
X192362914Y-186385771D02*
X192362914Y-185600057D01*
X192291485Y-185457200D01*
X192148628Y-185385771D01*
X191862914Y-185385771D01*
X191720057Y-185457200D01*
X192362914Y-186314342D02*
X192220057Y-186385771D01*
X191862914Y-186385771D01*
X191720057Y-186314342D01*
X191648628Y-186171485D01*
X191648628Y-186028628D01*
X191720057Y-185885771D01*
X191862914Y-185814342D01*
X192220057Y-185814342D01*
X192362914Y-185742914D01*
X193077200Y-185385771D02*
X193077200Y-186385771D01*
X193077200Y-185528628D02*
X193148628Y-185457200D01*
X193291485Y-185385771D01*
X193505771Y-185385771D01*
X193648628Y-185457200D01*
X193720057Y-185600057D01*
X193720057Y-186385771D01*
X194434342Y-186385771D02*
X194434342Y-184885771D01*
X194577200Y-185814342D02*
X195005771Y-186385771D01*
X195005771Y-185385771D02*
X194434342Y-185957200D01*
X195648628Y-186242914D02*
X195720057Y-186314342D01*
X195648628Y-186385771D01*
X195577200Y-186314342D01*
X195648628Y-186242914D01*
X195648628Y-186385771D01*
X196362914Y-186385771D02*
X196362914Y-184885771D01*
X196505771Y-185814342D02*
X196934342Y-186385771D01*
X196934342Y-185385771D02*
X196362914Y-185957200D01*
X197577200Y-186385771D02*
X197577200Y-185385771D01*
X197577200Y-184885771D02*
X197505771Y-184957200D01*
X197577200Y-185028628D01*
X197648628Y-184957200D01*
X197577200Y-184885771D01*
X197577200Y-185028628D01*
X198934342Y-186314342D02*
X198791485Y-186385771D01*
X198505771Y-186385771D01*
X198362914Y-186314342D01*
X198291485Y-186242914D01*
X198220057Y-186100057D01*
X198220057Y-185671485D01*
X198291485Y-185528628D01*
X198362914Y-185457200D01*
X198505771Y-185385771D01*
X198791485Y-185385771D01*
X198934342Y-185457200D01*
X200220057Y-186385771D02*
X200220057Y-185600057D01*
X200148628Y-185457200D01*
X200005771Y-185385771D01*
X199720057Y-185385771D01*
X199577200Y-185457200D01*
X200220057Y-186314342D02*
X200077200Y-186385771D01*
X199720057Y-186385771D01*
X199577200Y-186314342D01*
X199505771Y-186171485D01*
X199505771Y-186028628D01*
X199577200Y-185885771D01*
X199720057Y-185814342D01*
X200077200Y-185814342D01*
X200220057Y-185742914D01*
X201577200Y-186385771D02*
X201577200Y-184885771D01*
X201577200Y-186314342D02*
X201434342Y-186385771D01*
X201148628Y-186385771D01*
X201005771Y-186314342D01*
X200934342Y-186242914D01*
X200862914Y-186100057D01*
X200862914Y-185671485D01*
X200934342Y-185528628D01*
X201005771Y-185457200D01*
X201148628Y-185385771D01*
X201434342Y-185385771D01*
X201577200Y-185457200D01*
X201934342Y-186528628D02*
X203077200Y-186528628D01*
X203434342Y-185385771D02*
X203434342Y-186885771D01*
X203434342Y-185457200D02*
X203577200Y-185385771D01*
X203862914Y-185385771D01*
X204005771Y-185457200D01*
X204077200Y-185528628D01*
X204148628Y-185671485D01*
X204148628Y-186100057D01*
X204077200Y-186242914D01*
X204005771Y-186314342D01*
X203862914Y-186385771D01*
X203577200Y-186385771D01*
X203434342Y-186314342D01*
X205434342Y-186314342D02*
X205291485Y-186385771D01*
X205005771Y-186385771D01*
X204862914Y-186314342D01*
X204791485Y-186242914D01*
X204720057Y-186100057D01*
X204720057Y-185671485D01*
X204791485Y-185528628D01*
X204862914Y-185457200D01*
X205005771Y-185385771D01*
X205291485Y-185385771D01*
X205434342Y-185457200D01*
X206077200Y-186385771D02*
X206077200Y-184885771D01*
X206077200Y-185457200D02*
X206220057Y-185385771D01*
X206505771Y-185385771D01*
X206648628Y-185457200D01*
X206720057Y-185528628D01*
X206791485Y-185671485D01*
X206791485Y-186100057D01*
X206720057Y-186242914D01*
X206648628Y-186314342D01*
X206505771Y-186385771D01*
X206220057Y-186385771D01*
X206077200Y-186314342D01*
D10*
D11*
X177002200Y-181507200D02*
X285002200Y-181507200D01*
D10*
D11*
X178362914Y-183614342D02*
X178577200Y-183685771D01*
X178934342Y-183685771D01*
X179077200Y-183614342D01*
X179148628Y-183542914D01*
X179220057Y-183400057D01*
X179220057Y-183257200D01*
X179148628Y-183114342D01*
X179077200Y-183042914D01*
X178934342Y-182971485D01*
X178648628Y-182900057D01*
X178505771Y-182828628D01*
X178434342Y-182757200D01*
X178362914Y-182614342D01*
X178362914Y-182471485D01*
X178434342Y-182328628D01*
X178505771Y-182257200D01*
X178648628Y-182185771D01*
X179005771Y-182185771D01*
X179220057Y-182257200D01*
X179862914Y-183685771D02*
X179862914Y-182185771D01*
X180505771Y-183685771D02*
X180505771Y-182900057D01*
X180434342Y-182757200D01*
X180291485Y-182685771D01*
X180077200Y-182685771D01*
X179934342Y-182757200D01*
X179862914Y-182828628D01*
X181791485Y-183614342D02*
X181648628Y-183685771D01*
X181362914Y-183685771D01*
X181220057Y-183614342D01*
X181148628Y-183471485D01*
X181148628Y-182900057D01*
X181220057Y-182757200D01*
X181362914Y-182685771D01*
X181648628Y-182685771D01*
X181791485Y-182757200D01*
X181862914Y-182900057D01*
X181862914Y-183042914D01*
X181148628Y-183185771D01*
X183077200Y-183614342D02*
X182934342Y-183685771D01*
X182648628Y-183685771D01*
X182505771Y-183614342D01*
X182434342Y-183471485D01*
X182434342Y-182900057D01*
X182505771Y-182757200D01*
X182648628Y-182685771D01*
X182934342Y-182685771D01*
X183077200Y-182757200D01*
X183148628Y-182900057D01*
X183148628Y-183042914D01*
X182434342Y-183185771D01*
X183577200Y-182685771D02*
X184148628Y-182685771D01*
X183791485Y-182185771D02*
X183791485Y-183471485D01*
X183862914Y-183614342D01*
X184005771Y-183685771D01*
X184148628Y-183685771D01*
X184648628Y-183542914D02*
X184720057Y-183614342D01*
X184648628Y-183685771D01*
X184577200Y-183614342D01*
X184648628Y-183542914D01*
X184648628Y-183685771D01*
X184648628Y-182757200D02*
X184720057Y-182828628D01*
X184648628Y-182900057D01*
X184577200Y-182828628D01*
X184648628Y-182757200D01*
X184648628Y-182900057D01*
D10*
D12*
D10*
D11*
D10*
D11*
D10*
D11*
D10*
D11*
D10*
D11*
X197002200Y-191507200D02*
X197002200Y-194507200D01*
D10*
D11*
X261002200Y-191507200D02*
X261002200Y-198007200D01*
D14*
%TO.P,R3,1*%
%TO.N,Net-(D3-Pad1)*%
X157480000Y-85725000D03*
D15*
%TO.P,R3,2*%
%TO.N,Net-(J5-Pad1)*%
X157480000Y-95885000D03*
%TD*%
D14*
%TO.P,C2,1*%
%TO.N,Net-(C2-Pad1)*%
X189865000Y-92000000D03*
%TO.P,C2,2*%
%TO.N,GND*%
X189865000Y-94500000D03*
%TD*%
D16*
%TO.P,J1,1,Pin_1*%
%TO.N,+5V*%
X151745000Y-87930000D03*
D17*
%TO.P,J1,2,Pin_2*%
%TO.N,GND*%
X149245000Y-87930000D03*
%TD*%
D18*
%TO.P,J8,1,Pin_1*%
%TO.N,+5V*%
X149245000Y-99395000D03*
D17*
%TO.P,J8,2,Pin_2*%
%TO.N,Net-(D3-Pad1)*%
X151745000Y-99395000D03*
%TD*%
D19*
%TO.P,K2,1,87*%
%TO.N,Net-(J12-Pad1)*%
X147955000Y-115325000D03*
D20*
%TO.P,K2,2,85*%
%TO.N,Net-(D3-Pad2)*%
X141905000Y-117275000D03*
D19*
%TO.P,K2,3,30*%
%TO.N,Net-(J9-Pad2)*%
X141905000Y-129475000D03*
D20*
%TO.P,K2,5,86*%
%TO.N,Net-(D4-Pad1)*%
X153905000Y-117275000D03*
%TD*%
D21*
%TO.P,D1,1,A1*%
%TO.N,GNDA*%
X119634000Y-89154000D03*
D22*
%TO.P,D1,2,A2*%
%TO.N,VAC*%
X119634000Y-104394000D03*
%TD*%
D18*
%TO.P,J10,1,Pin_1*%
%TO.N,+5V*%
X149245000Y-105110000D03*
D17*
%TO.P,J10,2,Pin_2*%
%TO.N,Net-(D4-Pad1)*%
X151745000Y-105110000D03*
%TD*%
D19*
%TO.P,K1,1,87*%
%TO.N,/res_1*%
X147955000Y-77580000D03*
D20*
%TO.P,K1,2,85*%
%TO.N,Net-(D3-Pad2)*%
X154005000Y-75630000D03*
D19*
%TO.P,K1,3,30*%
%TO.N,Net-(J7-Pad2)*%
X154005000Y-63430000D03*
D20*
%TO.P,K1,5,86*%
%TO.N,Net-(D3-Pad1)*%
X142005000Y-75630000D03*
%TD*%
D23*
%TO.P,D4,1,K*%
%TO.N,Net-(D4-Pad1)*%
X153035000Y-111125000D03*
D24*
%TO.P,D4,2,A*%
%TO.N,Net-(D3-Pad2)*%
X142875000Y-111125000D03*
%TD*%
D14*
%TO.P,R5,1*%
%TO.N,Net-(Q1-Pad2)*%
X167640000Y-96540000D03*
D15*
%TO.P,R5,2*%
%TO.N,T_CONTROL*%
X167640000Y-86380000D03*
%TD*%
D14*
%TO.P,R4,1*%
%TO.N,Net-(D4-Pad1)*%
X157480000Y-99695000D03*
D15*
%TO.P,R4,2*%
%TO.N,Net-(J6-Pad1)*%
X157480000Y-109855000D03*
%TD*%
D25*
%TO.P,J6,1,Pin_1*%
%TO.N,Net-(J6-Pad1)*%
X162260000Y-108565000D03*
D26*
%TO.P,J6,2,Pin_2*%
%TO.N,Net-(D3-Pad2)*%
X162260000Y-106065000D03*
%TD*%
D27*
%TO.P,J11,1,1*%
%TO.N,/res_1*%
X162456800Y-75827900D03*
%TO.P,J11,2,2*%
%TO.N,unconnected-(J11-Pad2)*%
X162456800Y-70827900D03*
%TO.P,J11,3,3*%
%TO.N,GNDA*%
X162456800Y-65827900D03*
%TD*%
D28*
%TO.P,J7,1*%
%TO.N,VAC*%
X133350000Y-81150000D03*
%TO.P,J7,2*%
%TO.N,Net-(J7-Pad2)*%
X133350000Y-58550000D03*
%TD*%
D29*
%TO.P,Q1,1,E*%
%TO.N,GND*%
X169210453Y-106065000D03*
%TO.P,Q1,2,B*%
%TO.N,Net-(Q1-Pad2)*%
X167790453Y-104795000D03*
%TO.P,Q1,3,C*%
%TO.N,Net-(D3-Pad2)*%
X169210453Y-103525000D03*
%TD*%
D27*
%TO.P,J12,1,1*%
%TO.N,Net-(J12-Pad1)*%
X162560000Y-126480800D03*
%TO.P,J12,2,2*%
%TO.N,unconnected-(J12-Pad2)*%
X162560000Y-121480800D03*
%TO.P,J12,3,3*%
%TO.N,GNDA*%
X162560000Y-116480800D03*
%TD*%
D25*
%TO.P,J5,1,Pin_1*%
%TO.N,Net-(J5-Pad1)*%
X162260000Y-90785000D03*
D26*
%TO.P,J5,2,Pin_2*%
%TO.N,Net-(D3-Pad2)*%
X162260000Y-88285000D03*
%TD*%
D16*
%TO.P,J4,1,Pin_1*%
%TO.N,+5V*%
X151745000Y-93645000D03*
D17*
%TO.P,J4,2,Pin_2*%
%TO.N,GND*%
X149245000Y-93645000D03*
%TD*%
D30*
%TO.P,U1,1,NC*%
%TO.N,unconnected-(U1-Pad1)*%
X200025000Y-92710000D03*
%TO.P,U1,2,~OUT*%
%TO.N,T_CONTROL*%
X197485000Y-92710000D03*
%TO.P,U1,3,OUT*%
%TO.N,unconnected-(U1-Pad3)*%
X194945000Y-92710000D03*
%TO.P,U1,4,GND*%
%TO.N,GND*%
X192405000Y-92710000D03*
%TO.P,U1,5,TSET*%
%TO.N,Net-(C1-Pad2)*%
X192405000Y-100330000D03*
%TO.P,U1,6,NC*%
%TO.N,unconnected-(U1-Pad6)*%
X194945000Y-100330000D03*
%TO.P,U1,7,VDD*%
%TO.N,Net-(C2-Pad1)*%
X197485000Y-100330000D03*
%TO.P,U1,8,NC*%
%TO.N,unconnected-(U1-Pad8)*%
X200025000Y-100330000D03*
%TD*%
D31*
%TO.P,H2,1*%
%TO.N,N/C*%
X141605000Y-96520000D03*
D32*
X141605000Y-96520000D03*
%TD*%
D33*
%TO.P,J2,1,1*%
%TO.N,VAC*%
X129794000Y-100480000D03*
D34*
%TO.P,J2,2,2*%
%TO.N,unconnected-(J2-Pad2)*%
X129794000Y-96520000D03*
%TO.P,J2,3,3*%
%TO.N,GNDA*%
X129794000Y-92560000D03*
%TD*%
D14*
%TO.P,R2,1*%
%TO.N,Net-(C2-Pad1)*%
X171450000Y-96540000D03*
D15*
%TO.P,R2,2*%
%TO.N,Net-(C1-Pad2)*%
X171450000Y-88920000D03*
%TD*%
D27*
%TO.P,J3,1,1*%
%TO.N,VAC*%
X111448600Y-101481900D03*
%TO.P,J3,2,2*%
%TO.N,unconnected-(J3-Pad2)*%
X111448600Y-96481900D03*
%TO.P,J3,3,3*%
%TO.N,GNDA*%
X111448600Y-91481900D03*
%TD*%
D14*
%TO.P,C1,1*%
%TO.N,GND*%
X189865000Y-98445000D03*
%TO.P,C1,2*%
%TO.N,Net-(C1-Pad2)*%
X189865000Y-100945000D03*
%TD*%
D31*
%TO.P,H3,1*%
%TO.N,N/C*%
X180340000Y-96520000D03*
D32*
X180340000Y-96520000D03*
%TD*%
D23*
%TO.P,D2,1,K*%
%TO.N,Net-(C2-Pad1)*%
X171450000Y-99695000D03*
D24*
%TO.P,D2,2,A*%
%TO.N,+5V*%
X161290000Y-99695000D03*
%TD*%
D23*
%TO.P,D3,1,K*%
%TO.N,Net-(D3-Pad1)*%
X142875000Y-81915000D03*
D24*
%TO.P,D3,2,A*%
%TO.N,Net-(D3-Pad2)*%
X153035000Y-81915000D03*
%TD*%
D28*
%TO.P,J9,1*%
%TO.N,VAC*%
X133350000Y-111255000D03*
%TO.P,J9,2*%
%TO.N,Net-(J9-Pad2)*%
X133350000Y-133855000D03*
%TD*%
D35*
%TO.N,GND*%
X186461400Y-94163500D03*
%TD*%
D36*
%TO.N,GND*%
X189472000Y-94107000D02*
X189865000Y-94500000D01*
X186461400Y-94163500D02*
X186517900Y-94107000D01*
X186517900Y-94107000D02*
X189472000Y-94107000D01*
D37*
%TO.N,Net-(C2-Pad1)*%
X171450000Y-96540000D02*
X175087600Y-100177600D01*
X193740000Y-96585000D02*
X197485000Y-100330000D01*
X181838600Y-100177600D02*
X185431200Y-96585000D01*
X175087600Y-100177600D02*
X181838600Y-100177600D01*
X185431200Y-96585000D02*
X193740000Y-96585000D01*
D38*
%TO.N,VAC*%
X125349000Y-90297000D02*
X133350000Y-82296000D01*
X129794000Y-100480000D02*
X127750713Y-100480000D01*
X127750713Y-100480000D02*
X125349000Y-98078287D01*
X125349000Y-98078287D02*
X125349000Y-90297000D01*
X133350000Y-82296000D02*
X133350000Y-81150000D01*
%TO.N,GNDA*%
X162560000Y-116480800D02*
X157146200Y-121894600D01*
X162456800Y-65827900D02*
X160466700Y-67818000D01*
X160466700Y-67818000D02*
X144272000Y-67818000D01*
X134112000Y-96884209D02*
X134112000Y-94680800D01*
X138049000Y-100821209D02*
X134112000Y-96884209D01*
X140970000Y-121894600D02*
X138049000Y-118973600D01*
X138176000Y-73914000D02*
X138176000Y-82193474D01*
X129794000Y-90575474D02*
X129794000Y-92560000D01*
X134112000Y-94680800D02*
X131991200Y-92560000D01*
X157146200Y-121894600D02*
X140970000Y-121894600D01*
X138049000Y-118973600D02*
X138049000Y-100821209D01*
X131991200Y-92560000D02*
X129794000Y-92560000D01*
X144272000Y-67818000D02*
X138176000Y-73914000D01*
X138176000Y-82193474D02*
X129794000Y-90575474D01*
D36*
%TO.N,Net-(D3-Pad2)*%
X157935000Y-106065000D02*
X155500000Y-108500000D01*
X155500000Y-108500000D02*
X145500000Y-108500000D01*
X145500000Y-108500000D02*
X142875000Y-111125000D01*
X162260000Y-106065000D02*
X157935000Y-106065000D01*
%TO.N,+5V*%
X151745000Y-94535000D02*
X151745000Y-93645000D01*
X161290000Y-99695000D02*
X159385000Y-97790000D01*
X155000000Y-97790000D02*
X151745000Y-94535000D01*
X159385000Y-97790000D02*
X155000000Y-97790000D01*
D37*
%TO.N,Net-(Q1-Pad2)*%
X167500000Y-104504547D02*
X167500000Y-96680000D01*
X167500000Y-96680000D02*
X167640000Y-96540000D01*
D36*
X167640000Y-104644547D02*
X167790453Y-104795000D01*
D37*
X167790453Y-104795000D02*
X167500000Y-104504547D01*
%TO.N,T_CONTROL*%
X167640000Y-88265000D02*
X172339000Y-92964000D01*
X194310000Y-95885000D02*
X197485000Y-92710000D01*
X167640000Y-86380000D02*
X167640000Y-88265000D01*
X172339000Y-92964000D02*
X182676800Y-92964000D01*
X182676800Y-92964000D02*
X185597800Y-95885000D01*
X185597800Y-95885000D02*
X194310000Y-95885000D01*
%TD*%
%TA.AperFunction,Conductor*%
%TO.N,GND*%
G36*
X165705018Y-56390000D02*
G01*
X165719852Y-56392310D01*
X165719855Y-56392310D01*
X165728724Y-56393691D01*
X165738659Y-56392392D01*
X165739746Y-56392250D01*
X165768431Y-56391793D01*
X165841741Y-56399013D01*
X165871212Y-56401916D01*
X165895432Y-56406733D01*
X166014546Y-56442866D01*
X166037355Y-56452315D01*
X166147124Y-56510987D01*
X166167655Y-56524705D01*
X166263876Y-56603671D01*
X166281329Y-56621124D01*
X166360295Y-56717345D01*
X166374013Y-56737876D01*
X166432685Y-56847645D01*
X166442134Y-56870454D01*
X166478267Y-56989568D01*
X166483084Y-57013789D01*
X166492541Y-57109809D01*
X166492091Y-57125868D01*
X166492800Y-57125877D01*
X166492690Y-57134853D01*
X166491309Y-57143724D01*
X166492473Y-57152626D01*
X166492473Y-57152628D01*
X166495436Y-57175283D01*
X166496500Y-57191621D01*
X166496500Y-83770633D01*
X166495000Y-83790018D01*
X166492690Y-83804851D01*
X166492690Y-83804855D01*
X166491309Y-83813724D01*
X166492130Y-83820000D01*
X166491957Y-83820000D01*
X166510106Y-84073753D01*
X166564183Y-84322341D01*
X166653087Y-84560703D01*
X166775009Y-84783986D01*
X166777706Y-84787589D01*
X166777710Y-84787595D01*
X166831919Y-84860009D01*
X166927466Y-84987645D01*
X166994143Y-85054322D01*
X167028169Y-85116634D01*
X167023104Y-85187449D01*
X166977319Y-85246630D01*
X166800211Y-85370643D01*
X166800208Y-85370645D01*
X166795700Y-85373802D01*
X166633802Y-85535700D01*
X166630645Y-85540208D01*
X166630643Y-85540211D01*
X166588514Y-85600378D01*
X166502477Y-85723251D01*
X166500154Y-85728233D01*
X166500151Y-85728238D01*
X166439802Y-85857659D01*
X166405716Y-85930757D01*
X166404294Y-85936065D01*
X166404293Y-85936067D01*
X166398308Y-85958402D01*
X166346457Y-86151913D01*
X166326502Y-86380000D01*
X166346457Y-86608087D01*
X166347881Y-86613400D01*
X166347881Y-86613402D01*
X166378401Y-86727301D01*
X166405716Y-86829243D01*
X166408039Y-86834224D01*
X166408039Y-86834225D01*
X166500151Y-87031762D01*
X166500154Y-87031767D01*
X166502477Y-87036749D01*
X166567492Y-87129600D01*
X166630414Y-87219461D01*
X166633802Y-87224300D01*
X166795700Y-87386198D01*
X166827771Y-87408655D01*
X166872099Y-87464110D01*
X166881500Y-87511867D01*
X166881500Y-88197930D01*
X166880067Y-88216880D01*
X166878664Y-88226105D01*
X166876801Y-88238349D01*
X166877394Y-88245641D01*
X166877394Y-88245644D01*
X166881085Y-88291018D01*
X166881500Y-88301233D01*
X166881500Y-88309293D01*
X166881925Y-88312937D01*
X166884789Y-88337507D01*
X166885222Y-88341882D01*
X166887916Y-88374997D01*
X166891140Y-88414637D01*
X166893396Y-88421601D01*
X166894587Y-88427560D01*
X166895971Y-88433415D01*
X166896818Y-88440681D01*
X166921735Y-88509327D01*
X166923152Y-88513455D01*
X166945649Y-88582899D01*
X166949445Y-88589154D01*
X166951951Y-88594628D01*
X166954670Y-88600058D01*
X166957167Y-88606937D01*
X166961180Y-88613057D01*
X166961180Y-88613058D01*
X166997186Y-88667976D01*
X166999523Y-88671680D01*
X167037405Y-88734107D01*
X167041121Y-88738315D01*
X167041122Y-88738316D01*
X167044803Y-88742484D01*
X167044776Y-88742508D01*
X167047429Y-88745500D01*
X167050132Y-88748733D01*
X167054144Y-88754852D01*
X167059456Y-88759884D01*
X167110383Y-88808128D01*
X167112825Y-88810506D01*
X171755230Y-93452911D01*
X171767616Y-93467323D01*
X171776149Y-93478918D01*
X171776154Y-93478923D01*
X171780492Y-93484818D01*
X171786070Y-93489557D01*
X171786073Y-93489560D01*
X171820768Y-93519035D01*
X171828284Y-93525965D01*
X171833980Y-93531661D01*
X171836841Y-93533924D01*
X171836846Y-93533929D01*
X171856266Y-93549293D01*
X171859667Y-93552082D01*
X171915285Y-93599333D01*
X171921805Y-93602662D01*
X171926852Y-93606028D01*
X171931976Y-93609193D01*
X171937717Y-93613735D01*
X171944348Y-93616834D01*
X171944351Y-93616836D01*
X172003830Y-93644634D01*
X172007776Y-93646562D01*
X172072808Y-93679769D01*
X172079914Y-93681508D01*
X172085564Y-93683609D01*
X172091321Y-93685524D01*
X172097950Y-93688622D01*
X172169435Y-93703491D01*
X172173701Y-93704457D01*
X172244610Y-93721808D01*
X172250212Y-93722156D01*
X172250215Y-93722156D01*
X172255764Y-93722500D01*
X172255762Y-93722535D01*
X172259734Y-93722775D01*
X172263955Y-93723152D01*
X172271115Y-93724641D01*
X172348542Y-93722546D01*
X172351950Y-93722500D01*
X178178616Y-93722500D01*
X178246737Y-93742502D01*
X178293230Y-93796158D01*
X178303334Y-93866432D01*
X178273840Y-93931012D01*
X178254626Y-93948991D01*
X178201367Y-93989270D01*
X178198882Y-93991612D01*
X178198877Y-93991616D01*
X178172416Y-94016552D01*
X177940559Y-94235043D01*
X177938347Y-94237633D01*
X177938345Y-94237635D01*
X177904313Y-94277481D01*
X177707819Y-94507546D01*
X177705900Y-94510358D01*
X177705897Y-94510363D01*
X177650579Y-94591457D01*
X177505871Y-94803591D01*
X177337077Y-95119714D01*
X177203411Y-95452218D01*
X177202491Y-95455492D01*
X177202489Y-95455497D01*
X177145874Y-95656913D01*
X177106437Y-95797213D01*
X177105875Y-95800570D01*
X177105875Y-95800571D01*
X177091747Y-95885000D01*
X177047290Y-96150663D01*
X177026661Y-96508434D01*
X177044792Y-96866340D01*
X177045329Y-96869695D01*
X177045330Y-96869701D01*
X177078535Y-97077008D01*
X177101470Y-97220195D01*
X177196033Y-97565859D01*
X177327374Y-97899288D01*
X177347697Y-97937998D01*
X177491388Y-98211688D01*
X177493957Y-98216582D01*
X177495858Y-98219411D01*
X177495864Y-98219421D01*
X177660357Y-98464210D01*
X177693834Y-98514029D01*
X177924665Y-98788150D01*
X178183751Y-99035738D01*
X178262952Y-99096511D01*
X178388878Y-99193138D01*
X178430745Y-99250476D01*
X178434967Y-99321347D01*
X178400203Y-99383249D01*
X178337490Y-99416531D01*
X178312174Y-99419100D01*
X175453971Y-99419100D01*
X175385850Y-99399098D01*
X175364876Y-99382195D01*
X172785671Y-96802990D01*
X172751645Y-96740678D01*
X172749245Y-96702913D01*
X172763019Y-96545475D01*
X172763498Y-96540000D01*
X172743543Y-96311913D01*
X172701249Y-96154070D01*
X172685707Y-96096067D01*
X172685706Y-96096065D01*
X172684284Y-96090757D01*
X172590892Y-95890475D01*
X172589849Y-95888238D01*
X172589846Y-95888233D01*
X172587523Y-95883251D01*
X172456198Y-95695700D01*
X172294300Y-95533802D01*
X172289792Y-95530645D01*
X172289789Y-95530643D01*
X172211611Y-95475902D01*
X172106749Y-95402477D01*
X172101767Y-95400154D01*
X172101762Y-95400151D01*
X171904225Y-95308039D01*
X171904224Y-95308039D01*
X171899243Y-95305716D01*
X171893935Y-95304294D01*
X171893933Y-95304293D01*
X171683402Y-95247881D01*
X171683400Y-95247881D01*
X171678087Y-95246457D01*
X171450000Y-95226502D01*
X171221913Y-95246457D01*
X171216600Y-95247881D01*
X171216598Y-95247881D01*
X171006067Y-95304293D01*
X171006065Y-95304294D01*
X171000757Y-95305716D01*
X170995776Y-95308039D01*
X170995775Y-95308039D01*
X170798238Y-95400151D01*
X170798233Y-95400154D01*
X170793251Y-95402477D01*
X170688389Y-95475902D01*
X170610211Y-95530643D01*
X170610208Y-95530645D01*
X170605700Y-95533802D01*
X170443802Y-95695700D01*
X170312477Y-95883251D01*
X170310154Y-95888233D01*
X170310151Y-95888238D01*
X170309108Y-95890475D01*
X170215716Y-96090757D01*
X170214294Y-96096065D01*
X170214293Y-96096067D01*
X170198751Y-96154070D01*
X170156457Y-96311913D01*
X170136502Y-96540000D01*
X170156457Y-96768087D01*
X170157881Y-96773400D01*
X170157881Y-96773402D01*
X170204780Y-96948428D01*
X170215716Y-96989243D01*
X170218039Y-96994224D01*
X170218039Y-96994225D01*
X170310151Y-97191762D01*
X170310154Y-97191767D01*
X170312477Y-97196749D01*
X170443802Y-97384300D01*
X170605700Y-97546198D01*
X170610208Y-97549355D01*
X170610211Y-97549357D01*
X170638306Y-97569029D01*
X170793251Y-97677523D01*
X170798233Y-97679846D01*
X170798238Y-97679849D01*
X170979869Y-97764544D01*
X171000757Y-97774284D01*
X171006065Y-97775706D01*
X171006067Y-97775707D01*
X171216598Y-97832119D01*
X171216600Y-97832119D01*
X171221913Y-97833543D01*
X171227389Y-97834022D01*
X171227394Y-97834023D01*
X171238326Y-97834979D01*
X171304445Y-97860842D01*
X171346084Y-97918346D01*
X171350025Y-97989233D01*
X171315016Y-98050998D01*
X171252172Y-98084030D01*
X171227345Y-98086500D01*
X170301866Y-98086500D01*
X170239684Y-98093255D01*
X170103295Y-98144385D01*
X169986739Y-98231739D01*
X169899385Y-98348295D01*
X169848255Y-98484684D01*
X169841500Y-98546866D01*
X169841500Y-100843134D01*
X169848255Y-100905316D01*
X169899385Y-101041705D01*
X169986739Y-101158261D01*
X170103295Y-101245615D01*
X170239684Y-101296745D01*
X170301866Y-101303500D01*
X172598134Y-101303500D01*
X172660316Y-101296745D01*
X172796705Y-101245615D01*
X172913261Y-101158261D01*
X173000615Y-101041705D01*
X173051745Y-100905316D01*
X173058500Y-100843134D01*
X173058500Y-99525371D01*
X173078502Y-99457250D01*
X173132158Y-99410757D01*
X173202432Y-99400653D01*
X173267012Y-99430147D01*
X173273595Y-99436276D01*
X174503830Y-100666511D01*
X174516216Y-100680923D01*
X174524749Y-100692518D01*
X174524754Y-100692523D01*
X174529092Y-100698418D01*
X174534670Y-100703157D01*
X174534673Y-100703160D01*
X174569368Y-100732635D01*
X174576884Y-100739565D01*
X174582579Y-100745260D01*
X174585461Y-100747540D01*
X174604851Y-100762881D01*
X174608255Y-100765672D01*
X174655515Y-100805822D01*
X174663885Y-100812933D01*
X174670401Y-100816261D01*
X174675450Y-100819628D01*
X174680579Y-100822795D01*
X174686316Y-100827334D01*
X174752475Y-100858255D01*
X174756369Y-100860158D01*
X174821408Y-100893369D01*
X174828516Y-100895108D01*
X174834159Y-100897207D01*
X174839922Y-100899124D01*
X174846550Y-100902222D01*
X174853712Y-100903712D01*
X174853713Y-100903712D01*
X174918012Y-100917086D01*
X174922296Y-100918056D01*
X174993210Y-100935408D01*
X174998812Y-100935756D01*
X174998815Y-100935756D01*
X175004364Y-100936100D01*
X175004362Y-100936136D01*
X175008355Y-100936375D01*
X175012547Y-100936749D01*
X175019715Y-100938240D01*
X175097120Y-100936146D01*
X175100528Y-100936100D01*
X181771530Y-100936100D01*
X181790480Y-100937533D01*
X181804715Y-100939699D01*
X181804719Y-100939699D01*
X181811949Y-100940799D01*
X181819241Y-100940206D01*
X181819244Y-100940206D01*
X181864618Y-100936515D01*
X181874833Y-100936100D01*
X181882893Y-100936100D01*
X181900280Y-100934073D01*
X181911107Y-100932811D01*
X181915482Y-100932378D01*
X181980939Y-100927054D01*
X181980942Y-100927053D01*
X181988237Y-100926460D01*
X181995201Y-100924204D01*
X182001160Y-100923013D01*
X182007015Y-100921629D01*
X182014281Y-100920782D01*
X182082927Y-100895865D01*
X182087055Y-100894448D01*
X182149536Y-100874207D01*
X182149538Y-100874206D01*
X182156499Y-100871951D01*
X182162754Y-100868155D01*
X182168228Y-100865649D01*
X182173658Y-100862930D01*
X182180537Y-100860433D01*
X182186658Y-100856420D01*
X182241576Y-100820414D01*
X182245280Y-100818077D01*
X182307707Y-100780195D01*
X182316084Y-100772797D01*
X182316108Y-100772824D01*
X182319100Y-100770171D01*
X182322333Y-100767468D01*
X182328452Y-100763456D01*
X182381728Y-100707217D01*
X182384106Y-100704775D01*
X184638409Y-98450472D01*
X188552483Y-98450472D01*
X188571472Y-98667519D01*
X188573375Y-98678312D01*
X188629764Y-98888761D01*
X188633510Y-98899053D01*
X188725586Y-99096511D01*
X188731069Y-99106006D01*
X188767509Y-99158048D01*
X188777988Y-99166424D01*
X188791434Y-99159356D01*
X189492978Y-98457812D01*
X189499356Y-98446132D01*
X190229408Y-98446132D01*
X190229539Y-98447965D01*
X190233790Y-98454580D01*
X190939287Y-99160077D01*
X190951062Y-99166507D01*
X190963077Y-99157211D01*
X190998931Y-99106006D01*
X191004414Y-99096511D01*
X191096490Y-98899053D01*
X191100236Y-98888761D01*
X191156625Y-98678312D01*
X191158528Y-98667519D01*
X191177517Y-98450472D01*
X191177517Y-98439525D01*
X191158528Y-98222481D01*
X191156625Y-98211688D01*
X191100236Y-98001239D01*
X191096490Y-97990947D01*
X191004414Y-97793489D01*
X190998931Y-97783994D01*
X190962491Y-97731952D01*
X190952012Y-97723576D01*
X190938566Y-97730644D01*
X190237022Y-98432188D01*
X190229408Y-98446132D01*
X189499356Y-98446132D01*
X189500592Y-98443868D01*
X189500461Y-98442035D01*
X189496210Y-98435420D01*
X188790713Y-97729923D01*
X188778938Y-97723493D01*
X188766923Y-97732789D01*
X188731069Y-97783994D01*
X188725586Y-97793489D01*
X188633510Y-97990947D01*
X188629764Y-98001239D01*
X188573375Y-98211688D01*
X188571472Y-98222481D01*
X188552483Y-98439525D01*
X188552483Y-98450472D01*
X184638409Y-98450472D01*
X185708476Y-97380405D01*
X185770788Y-97346379D01*
X185797571Y-97343500D01*
X189070520Y-97343500D01*
X189138641Y-97363502D01*
X189159615Y-97380405D01*
X189852188Y-98072978D01*
X189866132Y-98080592D01*
X189867965Y-98080461D01*
X189874580Y-98076210D01*
X190570385Y-97380405D01*
X190632697Y-97346379D01*
X190659480Y-97343500D01*
X193373629Y-97343500D01*
X193441750Y-97363502D01*
X193462724Y-97380405D01*
X194727307Y-98644988D01*
X194761333Y-98707300D01*
X194756268Y-98778115D01*
X194713721Y-98834951D01*
X194667732Y-98856576D01*
X194588301Y-98875718D01*
X194588294Y-98875721D01*
X194582466Y-98877125D01*
X194577008Y-98879607D01*
X194577004Y-98879608D01*
X194467280Y-98929497D01*
X194389913Y-98964674D01*
X194217389Y-99087054D01*
X194071119Y-99239850D01*
X193956380Y-99417548D01*
X193946285Y-99442597D01*
X193880867Y-99604922D01*
X193877314Y-99613737D01*
X193836772Y-99821337D01*
X193836500Y-99826899D01*
X193836500Y-100782846D01*
X193851548Y-100940566D01*
X193911092Y-101143534D01*
X193913836Y-101148861D01*
X193913836Y-101148862D01*
X193996042Y-101308474D01*
X194007942Y-101331580D01*
X194138604Y-101497920D01*
X194147151Y-101505337D01*
X194185490Y-101565088D01*
X194185440Y-101636085D01*
X194147013Y-101695783D01*
X194082411Y-101725230D01*
X194064569Y-101726500D01*
X193280661Y-101726500D01*
X193212540Y-101706498D01*
X193166047Y-101652842D01*
X193155943Y-101582568D01*
X193189643Y-101513369D01*
X193204433Y-101497920D01*
X193278881Y-101420150D01*
X193393620Y-101242452D01*
X193435801Y-101137786D01*
X193470442Y-101051832D01*
X193470443Y-101051829D01*
X193472686Y-101046263D01*
X193513228Y-100838663D01*
X193513500Y-100833101D01*
X193513500Y-99877154D01*
X193498452Y-99719434D01*
X193438908Y-99516466D01*
X193410649Y-99461598D01*
X193344804Y-99333751D01*
X193344802Y-99333748D01*
X193342058Y-99328420D01*
X193211396Y-99162080D01*
X193206865Y-99158148D01*
X193206862Y-99158145D01*
X193056167Y-99027379D01*
X193051637Y-99023448D01*
X193046451Y-99020448D01*
X193046447Y-99020445D01*
X192873742Y-98920533D01*
X192868546Y-98917527D01*
X192668729Y-98848139D01*
X192662794Y-98847278D01*
X192662792Y-98847278D01*
X192465336Y-98818648D01*
X192465333Y-98818648D01*
X192459396Y-98817787D01*
X192248101Y-98827567D01*
X192127732Y-98856576D01*
X192048299Y-98875719D01*
X192048297Y-98875720D01*
X192042466Y-98877125D01*
X192037008Y-98879607D01*
X192037004Y-98879608D01*
X191927280Y-98929497D01*
X191849913Y-98964674D01*
X191677389Y-99087054D01*
X191531119Y-99239850D01*
X191416380Y-99417548D01*
X191406285Y-99442597D01*
X191340867Y-99604922D01*
X191337314Y-99613737D01*
X191296772Y-99821337D01*
X191296500Y-99826899D01*
X191296500Y-100350338D01*
X191276498Y-100418459D01*
X191222842Y-100464952D01*
X191152568Y-100475056D01*
X191087988Y-100445562D01*
X191056305Y-100403587D01*
X191004851Y-100293242D01*
X191004847Y-100293236D01*
X191002523Y-100288251D01*
X190926828Y-100180147D01*
X190874357Y-100105211D01*
X190874355Y-100105208D01*
X190871198Y-100100700D01*
X190709300Y-99938802D01*
X190704792Y-99935645D01*
X190704789Y-99935643D01*
X190553037Y-99829385D01*
X190521749Y-99807477D01*
X190516765Y-99805153D01*
X190514472Y-99803829D01*
X190465479Y-99752447D01*
X190452043Y-99682733D01*
X190478429Y-99616822D01*
X190514472Y-99585591D01*
X190526002Y-99578934D01*
X190578048Y-99542491D01*
X190586424Y-99532012D01*
X190579356Y-99518566D01*
X189877812Y-98817022D01*
X189863868Y-98809408D01*
X189862035Y-98809539D01*
X189855420Y-98813790D01*
X189149923Y-99519287D01*
X189143493Y-99531062D01*
X189152789Y-99543077D01*
X189203998Y-99578934D01*
X189215528Y-99585591D01*
X189264521Y-99636973D01*
X189277958Y-99706687D01*
X189251571Y-99772598D01*
X189215528Y-99803829D01*
X189213235Y-99805153D01*
X189208251Y-99807477D01*
X189176963Y-99829385D01*
X189025211Y-99935643D01*
X189025208Y-99935645D01*
X189020700Y-99938802D01*
X188858802Y-100100700D01*
X188855645Y-100105208D01*
X188855643Y-100105211D01*
X188803172Y-100180147D01*
X188727477Y-100288251D01*
X188725154Y-100293233D01*
X188725151Y-100293238D01*
X188643781Y-100467738D01*
X188630716Y-100495757D01*
X188629294Y-100501065D01*
X188629293Y-100501067D01*
X188574335Y-100706172D01*
X188571457Y-100716913D01*
X188551502Y-100945000D01*
X188571457Y-101173087D01*
X188572881Y-101178400D01*
X188572881Y-101178402D01*
X188591736Y-101248767D01*
X188630716Y-101394243D01*
X188633039Y-101399224D01*
X188633039Y-101399225D01*
X188702064Y-101547250D01*
X188712725Y-101617442D01*
X188683745Y-101682255D01*
X188624325Y-101721111D01*
X188587869Y-101726500D01*
X174678250Y-101726500D01*
X174657345Y-101724754D01*
X174642344Y-101722230D01*
X174642341Y-101722230D01*
X174637552Y-101721424D01*
X174631555Y-101721351D01*
X174629868Y-101721330D01*
X174629864Y-101721330D01*
X174625000Y-101721271D01*
X174620006Y-101721986D01*
X174619851Y-101722008D01*
X174610984Y-101722959D01*
X174375735Y-101739785D01*
X174371247Y-101740106D01*
X174312513Y-101752883D01*
X174127056Y-101793226D01*
X174127050Y-101793228D01*
X174122659Y-101794183D01*
X174118444Y-101795755D01*
X174118441Y-101795756D01*
X174048920Y-101821686D01*
X173983581Y-101846056D01*
X173939550Y-101854000D01*
X173101000Y-101854000D01*
X173093652Y-102275464D01*
X173088376Y-102578104D01*
X173072983Y-102636292D01*
X173003087Y-102764297D01*
X172914183Y-103002659D01*
X172913228Y-103007050D01*
X172913226Y-103007056D01*
X172893765Y-103096517D01*
X172860106Y-103251247D01*
X172859785Y-103255735D01*
X172843711Y-103480477D01*
X172842784Y-103488650D01*
X172842852Y-103488817D01*
X172841309Y-103498724D01*
X172842018Y-103504146D01*
X172841957Y-103505000D01*
X172842130Y-103505000D01*
X172843328Y-103514162D01*
X172843328Y-103514163D01*
X172845436Y-103530283D01*
X172846500Y-103546620D01*
X172846500Y-106630633D01*
X172845000Y-106650018D01*
X172841309Y-106673724D01*
X172842439Y-106682368D01*
X172821641Y-106750115D01*
X172767420Y-106795947D01*
X172760045Y-106798932D01*
X171037019Y-107433731D01*
X170993460Y-107441500D01*
X169815401Y-107441500D01*
X169747280Y-107421498D01*
X169700787Y-107367842D01*
X169690683Y-107297568D01*
X169720177Y-107232988D01*
X169762151Y-107201305D01*
X169839380Y-107165292D01*
X169848870Y-107159814D01*
X169891193Y-107130179D01*
X169899567Y-107119704D01*
X169892498Y-107106255D01*
X169223265Y-106437022D01*
X169209321Y-106429408D01*
X169207488Y-106429539D01*
X169200873Y-106433790D01*
X168527686Y-107106977D01*
X168521256Y-107118751D01*
X168530552Y-107130766D01*
X168572036Y-107159814D01*
X168581526Y-107165292D01*
X168658755Y-107201305D01*
X168712040Y-107248222D01*
X168731501Y-107316500D01*
X168710959Y-107384459D01*
X168656936Y-107430525D01*
X168605505Y-107441500D01*
X168328250Y-107441500D01*
X168307345Y-107439754D01*
X168292344Y-107437230D01*
X168292341Y-107437230D01*
X168287552Y-107436424D01*
X168281555Y-107436351D01*
X168279868Y-107436330D01*
X168279864Y-107436330D01*
X168275000Y-107436271D01*
X168270006Y-107436986D01*
X168269851Y-107437008D01*
X168260984Y-107437959D01*
X168028391Y-107454595D01*
X168021247Y-107455106D01*
X167962513Y-107467883D01*
X167777056Y-107508226D01*
X167777050Y-107508228D01*
X167772659Y-107509183D01*
X167768444Y-107510755D01*
X167768441Y-107510756D01*
X167708465Y-107533126D01*
X167534297Y-107598087D01*
X167311014Y-107720009D01*
X167307411Y-107722706D01*
X167307405Y-107722710D01*
X167190614Y-107810139D01*
X167107355Y-107872466D01*
X166927466Y-108052355D01*
X166924769Y-108055958D01*
X166777710Y-108252405D01*
X166777706Y-108252411D01*
X166775009Y-108256014D01*
X166653087Y-108479297D01*
X166564183Y-108717659D01*
X166563228Y-108722050D01*
X166563226Y-108722056D01*
X166534807Y-108852699D01*
X166510106Y-108966247D01*
X166509785Y-108970735D01*
X166493711Y-109195477D01*
X166492784Y-109203650D01*
X166492852Y-109203817D01*
X166491309Y-109213724D01*
X166492018Y-109219146D01*
X166491957Y-109220000D01*
X166492130Y-109220000D01*
X166493328Y-109229162D01*
X166493328Y-109229163D01*
X166495436Y-109245283D01*
X166496500Y-109261620D01*
X166496500Y-135205633D01*
X166495000Y-135225018D01*
X166491309Y-135248724D01*
X166492473Y-135257626D01*
X166492750Y-135259746D01*
X166493207Y-135288431D01*
X166485938Y-135362241D01*
X166483084Y-135391213D01*
X166478268Y-135415429D01*
X166477357Y-135418433D01*
X166438447Y-135477817D01*
X166373608Y-135506737D01*
X166356246Y-135507865D01*
X150026295Y-135438671D01*
X136777465Y-135382532D01*
X136709431Y-135362241D01*
X136663166Y-135308389D01*
X136652000Y-135256533D01*
X136652000Y-129446145D01*
X139149624Y-129446145D01*
X139166114Y-129777376D01*
X139166755Y-129781107D01*
X139166756Y-129781115D01*
X139181510Y-129866974D01*
X139222277Y-130104227D01*
X139317300Y-130421964D01*
X139449807Y-130725983D01*
X139451730Y-130729254D01*
X139451732Y-130729258D01*
X139615956Y-131008612D01*
X139615961Y-131008620D01*
X139617879Y-131011882D01*
X139620180Y-131014897D01*
X139816780Y-131272505D01*
X139816785Y-131272510D01*
X139819080Y-131275518D01*
X140050496Y-131513073D01*
X140308775Y-131721107D01*
X140590176Y-131896604D01*
X140890623Y-132037024D01*
X141205763Y-132140332D01*
X141531032Y-132205032D01*
X141534804Y-132205319D01*
X141534812Y-132205320D01*
X141857941Y-132229900D01*
X141857946Y-132229900D01*
X141861718Y-132230187D01*
X142193031Y-132215432D01*
X142520172Y-132160981D01*
X142523806Y-132159915D01*
X142523810Y-132159914D01*
X142665786Y-132118262D01*
X142838401Y-132067622D01*
X143143111Y-131936709D01*
X143429885Y-131770137D01*
X143432911Y-131767853D01*
X143432918Y-131767848D01*
X143691545Y-131572604D01*
X143694572Y-131570319D01*
X143933335Y-131340150D01*
X144142718Y-131082964D01*
X144319687Y-130802485D01*
X144354380Y-130729258D01*
X144460049Y-130506216D01*
X144461678Y-130502778D01*
X144566635Y-130188183D01*
X144633037Y-129863257D01*
X144659923Y-129532707D01*
X144660527Y-129475000D01*
X144658788Y-129446145D01*
X144640798Y-129147738D01*
X144640798Y-129147734D01*
X144640570Y-129143960D01*
X144580987Y-128817715D01*
X144482641Y-128500991D01*
X144346958Y-128198375D01*
X144175902Y-127914252D01*
X144173575Y-127911268D01*
X144173570Y-127911261D01*
X143974287Y-127655732D01*
X143974285Y-127655730D01*
X143971951Y-127652737D01*
X143738060Y-127417618D01*
X143717227Y-127401194D01*
X143480598Y-127214651D01*
X143477617Y-127212301D01*
X143194393Y-127039760D01*
X143073909Y-126984979D01*
X142895945Y-126904063D01*
X142895937Y-126904060D01*
X142892493Y-126902494D01*
X142576288Y-126802491D01*
X142431802Y-126775321D01*
X142254083Y-126741901D01*
X142254078Y-126741900D01*
X142250359Y-126741201D01*
X141919428Y-126719511D01*
X141915648Y-126719719D01*
X141915647Y-126719719D01*
X141817888Y-126725099D01*
X141588288Y-126737735D01*
X141584561Y-126738396D01*
X141584557Y-126738396D01*
X141319350Y-126785397D01*
X141261735Y-126795608D01*
X141258110Y-126796713D01*
X141258105Y-126796714D01*
X141009529Y-126872475D01*
X140944500Y-126892294D01*
X140641179Y-127026391D01*
X140530907Y-127091996D01*
X140359424Y-127194017D01*
X140359418Y-127194021D01*
X140356164Y-127195957D01*
X140093585Y-127398536D01*
X139857244Y-127631193D01*
X139650566Y-127890558D01*
X139476545Y-128172874D01*
X139474956Y-128176321D01*
X139339287Y-128470607D01*
X139339283Y-128470617D01*
X139337700Y-128474051D01*
X139336541Y-128477651D01*
X139336538Y-128477658D01*
X139327855Y-128504622D01*
X139236043Y-128789728D01*
X139235324Y-128793444D01*
X139235322Y-128793452D01*
X139173766Y-129111613D01*
X139173765Y-129111622D01*
X139173047Y-129115332D01*
X139172780Y-129119108D01*
X139172779Y-129119113D01*
X139149892Y-129442356D01*
X139149624Y-129446145D01*
X136652000Y-129446145D01*
X136652000Y-126444431D01*
X161071860Y-126444431D01*
X161072157Y-126449583D01*
X161072157Y-126449587D01*
X161083558Y-126647299D01*
X161085903Y-126687971D01*
X161087040Y-126693017D01*
X161087041Y-126693023D01*
X161110011Y-126794947D01*
X161139533Y-126925947D01*
X161141475Y-126930729D01*
X161141476Y-126930733D01*
X161186547Y-127041729D01*
X161231311Y-127151969D01*
X161358772Y-127359966D01*
X161518492Y-127544353D01*
X161706183Y-127700177D01*
X161916804Y-127823253D01*
X162144698Y-127910278D01*
X162149764Y-127911309D01*
X162149765Y-127911309D01*
X162378667Y-127957880D01*
X162378671Y-127957880D01*
X162383746Y-127958913D01*
X162388922Y-127959103D01*
X162388924Y-127959103D01*
X162622363Y-127967663D01*
X162622367Y-127967663D01*
X162627527Y-127967852D01*
X162632647Y-127967196D01*
X162632649Y-127967196D01*
X162709377Y-127957367D01*
X162869494Y-127936855D01*
X162874443Y-127935370D01*
X162874449Y-127935369D01*
X163098200Y-127868240D01*
X163098199Y-127868240D01*
X163103150Y-127866755D01*
X163322219Y-127759434D01*
X163326424Y-127756434D01*
X163326430Y-127756431D01*
X163516614Y-127620774D01*
X163516616Y-127620772D01*
X163520818Y-127617775D01*
X163693614Y-127445581D01*
X163835966Y-127247477D01*
X163852190Y-127214651D01*
X163941756Y-127033426D01*
X163941757Y-127033424D01*
X163944050Y-127028784D01*
X163981944Y-126904063D01*
X164013462Y-126800327D01*
X164013463Y-126800321D01*
X164014966Y-126795375D01*
X164046807Y-126553517D01*
X164048584Y-126480800D01*
X164028596Y-126237676D01*
X163969167Y-126001080D01*
X163871894Y-125777368D01*
X163739390Y-125572548D01*
X163575212Y-125392119D01*
X163571161Y-125388920D01*
X163571157Y-125388916D01*
X163387825Y-125244129D01*
X163387821Y-125244127D01*
X163383770Y-125240927D01*
X163170205Y-125123033D01*
X163165336Y-125121309D01*
X163165332Y-125121307D01*
X162945127Y-125043328D01*
X162945123Y-125043327D01*
X162940252Y-125041602D01*
X162935159Y-125040695D01*
X162935156Y-125040694D01*
X162705177Y-124999728D01*
X162705171Y-124999727D01*
X162700088Y-124998822D01*
X162620380Y-124997848D01*
X162461332Y-124995905D01*
X162461330Y-124995905D01*
X162456162Y-124995842D01*
X162215024Y-125032741D01*
X161983150Y-125108529D01*
X161766769Y-125221170D01*
X161762636Y-125224273D01*
X161762633Y-125224275D01*
X161575825Y-125364535D01*
X161571690Y-125367640D01*
X161403153Y-125544004D01*
X161400239Y-125548276D01*
X161400238Y-125548277D01*
X161380719Y-125576891D01*
X161265684Y-125745526D01*
X161162974Y-125966795D01*
X161097783Y-126201867D01*
X161071860Y-126444431D01*
X136652000Y-126444431D01*
X136652000Y-121127117D01*
X136672002Y-121058996D01*
X136725658Y-121012503D01*
X136795932Y-121002399D01*
X136860512Y-121031893D01*
X136867095Y-121038022D01*
X139290775Y-123461702D01*
X139296412Y-123467719D01*
X139343354Y-123521246D01*
X139346443Y-123523955D01*
X139399970Y-123570897D01*
X139399971Y-123570898D01*
X139566490Y-123716933D01*
X139566496Y-123716938D01*
X139569590Y-123719651D01*
X139819788Y-123886827D01*
X139823487Y-123888651D01*
X139823492Y-123888654D01*
X140000532Y-123975960D01*
X140089665Y-124019916D01*
X140093570Y-124021241D01*
X140093571Y-124021242D01*
X140370693Y-124115312D01*
X140370697Y-124115313D01*
X140374606Y-124116640D01*
X140378650Y-124117444D01*
X140378656Y-124117446D01*
X140665695Y-124174542D01*
X140665701Y-124174543D01*
X140669734Y-124175345D01*
X140673839Y-124175614D01*
X140673846Y-124175615D01*
X140965880Y-124194755D01*
X140970000Y-124195025D01*
X141041024Y-124190370D01*
X141049264Y-124190100D01*
X157066936Y-124190100D01*
X157075176Y-124190370D01*
X157146200Y-124195025D01*
X157150320Y-124194755D01*
X157442354Y-124175615D01*
X157442361Y-124175614D01*
X157446466Y-124175345D01*
X157450499Y-124174543D01*
X157450505Y-124174542D01*
X157737544Y-124117446D01*
X157737550Y-124117444D01*
X157741594Y-124116640D01*
X157745503Y-124115313D01*
X157745507Y-124115312D01*
X158022620Y-124021245D01*
X158022621Y-124021245D01*
X158026535Y-124019916D01*
X158030234Y-124018092D01*
X158030239Y-124018090D01*
X158292709Y-123888653D01*
X158296412Y-123886827D01*
X158299847Y-123884532D01*
X158543179Y-123721943D01*
X158543184Y-123721939D01*
X158546610Y-123719650D01*
X158549704Y-123716936D01*
X158549710Y-123716932D01*
X158716229Y-123570898D01*
X158716230Y-123570897D01*
X158769757Y-123523955D01*
X158772846Y-123521246D01*
X158819788Y-123467719D01*
X158825425Y-123461702D01*
X160860657Y-121426470D01*
X160922969Y-121392444D01*
X160993784Y-121397509D01*
X161050620Y-121440056D01*
X161075543Y-121508311D01*
X161085605Y-121682803D01*
X161085903Y-121687971D01*
X161087040Y-121693017D01*
X161087041Y-121693023D01*
X161110107Y-121795375D01*
X161139533Y-121925947D01*
X161141475Y-121930729D01*
X161141476Y-121930733D01*
X161229367Y-122147182D01*
X161231311Y-122151969D01*
X161358772Y-122359966D01*
X161518492Y-122544353D01*
X161706183Y-122700177D01*
X161916804Y-122823253D01*
X162144698Y-122910278D01*
X162149764Y-122911309D01*
X162149765Y-122911309D01*
X162378667Y-122957880D01*
X162378671Y-122957880D01*
X162383746Y-122958913D01*
X162388922Y-122959103D01*
X162388924Y-122959103D01*
X162622363Y-122967663D01*
X162622367Y-122967663D01*
X162627527Y-122967852D01*
X162632647Y-122967196D01*
X162632649Y-122967196D01*
X162709377Y-122957367D01*
X162869494Y-122936855D01*
X162874443Y-122935370D01*
X162874449Y-122935369D01*
X163098200Y-122868240D01*
X163098199Y-122868240D01*
X163103150Y-122866755D01*
X163322219Y-122759434D01*
X163326424Y-122756434D01*
X163326430Y-122756431D01*
X163516614Y-122620774D01*
X163516616Y-122620772D01*
X163520818Y-122617775D01*
X163693614Y-122445581D01*
X163835966Y-122247477D01*
X163944050Y-122028784D01*
X163976827Y-121920905D01*
X164013462Y-121800327D01*
X164013463Y-121800321D01*
X164014966Y-121795375D01*
X164046807Y-121553517D01*
X164048584Y-121480800D01*
X164028596Y-121237676D01*
X163969167Y-121001080D01*
X163871894Y-120777368D01*
X163739390Y-120572548D01*
X163575212Y-120392119D01*
X163571161Y-120388920D01*
X163571157Y-120388916D01*
X163387825Y-120244129D01*
X163387821Y-120244127D01*
X163383770Y-120240927D01*
X163170205Y-120123033D01*
X163165336Y-120121309D01*
X163165332Y-120121307D01*
X162945127Y-120043328D01*
X162945123Y-120043327D01*
X162940252Y-120041602D01*
X162935159Y-120040695D01*
X162935156Y-120040694D01*
X162705177Y-119999728D01*
X162705171Y-119999727D01*
X162700088Y-119998822D01*
X162592263Y-119997505D01*
X162524393Y-119976672D01*
X162478559Y-119922453D01*
X162469314Y-119852060D01*
X162499593Y-119787845D01*
X162504708Y-119782419D01*
X164236297Y-118050830D01*
X164291531Y-117987848D01*
X164382332Y-117884310D01*
X164382336Y-117884304D01*
X164385050Y-117881210D01*
X164390118Y-117873626D01*
X164549931Y-117634448D01*
X164549932Y-117634446D01*
X164552226Y-117631013D01*
X164680737Y-117370421D01*
X164683490Y-117364839D01*
X164683493Y-117364831D01*
X164685316Y-117361135D01*
X164695478Y-117331199D01*
X164780711Y-117080108D01*
X164780713Y-117080100D01*
X164782039Y-117076194D01*
X164795247Y-117009794D01*
X164839941Y-116785105D01*
X164839942Y-116785099D01*
X164840744Y-116781066D01*
X164841151Y-116774867D01*
X164860155Y-116484919D01*
X164860425Y-116480800D01*
X164851839Y-116349799D01*
X164841014Y-116184649D01*
X164841013Y-116184645D01*
X164840744Y-116180534D01*
X164839473Y-116174144D01*
X164782845Y-115889452D01*
X164782843Y-115889446D01*
X164782040Y-115885407D01*
X164700134Y-115644117D01*
X164686645Y-115604381D01*
X164686645Y-115604380D01*
X164685316Y-115600466D01*
X164683493Y-115596770D01*
X164683490Y-115596762D01*
X164554052Y-115334291D01*
X164552226Y-115330588D01*
X164546835Y-115322519D01*
X164507298Y-115263349D01*
X164385050Y-115080390D01*
X164382336Y-115077296D01*
X164382332Y-115077290D01*
X164189355Y-114857243D01*
X164186646Y-114854154D01*
X164110994Y-114787809D01*
X163963510Y-114658468D01*
X163963504Y-114658464D01*
X163960410Y-114655750D01*
X163710212Y-114488574D01*
X163661240Y-114464423D01*
X163444038Y-114357310D01*
X163444030Y-114357307D01*
X163440334Y-114355484D01*
X163436419Y-114354155D01*
X163159308Y-114260089D01*
X163159299Y-114260087D01*
X163155394Y-114258761D01*
X163151350Y-114257957D01*
X163151344Y-114257955D01*
X162864305Y-114200859D01*
X162864299Y-114200858D01*
X162860266Y-114200056D01*
X162856161Y-114199787D01*
X162856154Y-114199786D01*
X162564119Y-114180645D01*
X162560000Y-114180375D01*
X162555881Y-114180645D01*
X162263846Y-114199786D01*
X162263839Y-114199787D01*
X162259734Y-114200056D01*
X162255701Y-114200858D01*
X162255695Y-114200859D01*
X161968656Y-114257955D01*
X161968650Y-114257957D01*
X161964606Y-114258761D01*
X161960700Y-114260087D01*
X161960692Y-114260089D01*
X161683580Y-114354155D01*
X161679665Y-114355484D01*
X161675969Y-114357307D01*
X161675961Y-114357310D01*
X161458759Y-114464423D01*
X161409787Y-114488574D01*
X161406354Y-114490868D01*
X161406352Y-114490869D01*
X161163021Y-114653457D01*
X161163020Y-114653458D01*
X161159590Y-114655750D01*
X161156496Y-114658464D01*
X161156490Y-114658468D01*
X161041495Y-114759317D01*
X160989970Y-114804503D01*
X156232278Y-119562195D01*
X156169966Y-119596221D01*
X156143183Y-119599100D01*
X141973017Y-119599100D01*
X141904896Y-119579098D01*
X141883922Y-119562195D01*
X141554425Y-119232698D01*
X141520399Y-119170386D01*
X141525464Y-119099571D01*
X141568011Y-119042735D01*
X141634531Y-119017924D01*
X141667021Y-119019814D01*
X141689579Y-119024096D01*
X141705374Y-119027095D01*
X141835959Y-119032226D01*
X141961875Y-119037174D01*
X141961881Y-119037174D01*
X141966543Y-119037357D01*
X142045977Y-119028657D01*
X142221707Y-119009412D01*
X142221712Y-119009411D01*
X142226360Y-119008902D01*
X142339116Y-118979216D01*
X142474594Y-118943548D01*
X142474596Y-118943547D01*
X142479117Y-118942357D01*
X142581297Y-118898457D01*
X142714972Y-118841025D01*
X142719262Y-118839182D01*
X142941519Y-118701646D01*
X142945082Y-118698629D01*
X142945087Y-118698626D01*
X143137439Y-118535787D01*
X143137440Y-118535786D01*
X143141005Y-118532768D01*
X143232729Y-118428177D01*
X143310257Y-118339774D01*
X143310261Y-118339769D01*
X143313339Y-118336259D01*
X143454733Y-118116437D01*
X143562083Y-117878129D01*
X143633030Y-117626572D01*
X143649832Y-117494496D01*
X143665616Y-117370421D01*
X143665616Y-117370417D01*
X143666014Y-117367291D01*
X143666176Y-117361135D01*
X143668348Y-117278160D01*
X143668431Y-117275000D01*
X143657364Y-117126077D01*
X143649407Y-117019000D01*
X143649406Y-117018996D01*
X143649061Y-117014348D01*
X143643569Y-116990073D01*
X143592408Y-116763980D01*
X143591377Y-116759423D01*
X143537539Y-116620978D01*
X143498340Y-116520176D01*
X143498339Y-116520173D01*
X143496647Y-116515823D01*
X143366951Y-116288902D01*
X143205138Y-116083643D01*
X143014763Y-115904557D01*
X142800009Y-115755576D01*
X142795816Y-115753508D01*
X142569781Y-115642040D01*
X142569778Y-115642039D01*
X142565593Y-115639975D01*
X142552104Y-115635657D01*
X142321123Y-115561720D01*
X142316665Y-115560293D01*
X142058693Y-115518279D01*
X141944942Y-115516790D01*
X141802022Y-115514919D01*
X141802019Y-115514919D01*
X141797345Y-115514858D01*
X141538362Y-115550104D01*
X141287433Y-115623243D01*
X141283180Y-115625203D01*
X141283179Y-115625204D01*
X141246659Y-115642040D01*
X141050072Y-115732668D01*
X141011067Y-115758241D01*
X140835404Y-115873410D01*
X140835399Y-115873414D01*
X140831491Y-115875976D01*
X140636494Y-116050018D01*
X140633506Y-116053611D01*
X140567374Y-116133125D01*
X140508436Y-116172708D01*
X140437454Y-116174144D01*
X140376964Y-116136976D01*
X140346171Y-116073005D01*
X140344500Y-116052555D01*
X140344500Y-115303918D01*
X145941917Y-115303918D01*
X145957682Y-115577320D01*
X145958507Y-115581525D01*
X145958508Y-115581533D01*
X145967076Y-115625204D01*
X146010405Y-115846053D01*
X146011792Y-115850103D01*
X146011793Y-115850108D01*
X146093006Y-116087311D01*
X146099112Y-116105144D01*
X146222160Y-116349799D01*
X146224586Y-116353328D01*
X146224589Y-116353334D01*
X146374843Y-116571953D01*
X146377274Y-116575490D01*
X146561582Y-116778043D01*
X146771675Y-116953707D01*
X146775316Y-116955991D01*
X147000024Y-117096951D01*
X147000028Y-117096953D01*
X147003664Y-117099234D01*
X147071544Y-117129883D01*
X147249345Y-117210164D01*
X147249349Y-117210166D01*
X147253257Y-117211930D01*
X147310341Y-117228839D01*
X147511723Y-117288491D01*
X147511727Y-117288492D01*
X147515836Y-117289709D01*
X147520070Y-117290357D01*
X147520075Y-117290358D01*
X147782298Y-117330483D01*
X147782300Y-117330483D01*
X147786540Y-117331132D01*
X147925912Y-117333322D01*
X148056071Y-117335367D01*
X148056077Y-117335367D01*
X148060362Y-117335434D01*
X148332235Y-117302534D01*
X148597127Y-117233041D01*
X148601087Y-117231401D01*
X148601092Y-117231399D01*
X148607272Y-117228839D01*
X152142173Y-117228839D01*
X152142397Y-117233505D01*
X152142397Y-117233511D01*
X152147055Y-117330483D01*
X152154713Y-117489908D01*
X152205704Y-117746256D01*
X152294026Y-117992252D01*
X152331850Y-118062647D01*
X152360753Y-118116437D01*
X152417737Y-118222491D01*
X152420532Y-118226234D01*
X152420534Y-118226237D01*
X152571330Y-118428177D01*
X152571335Y-118428183D01*
X152574122Y-118431915D01*
X152577431Y-118435195D01*
X152577436Y-118435201D01*
X152756426Y-118612635D01*
X152759743Y-118615923D01*
X152763505Y-118618681D01*
X152763508Y-118618684D01*
X152966750Y-118767707D01*
X152970524Y-118770474D01*
X152974667Y-118772654D01*
X152974669Y-118772655D01*
X153197684Y-118889989D01*
X153197689Y-118889991D01*
X153201834Y-118892172D01*
X153448590Y-118978344D01*
X153453183Y-118979216D01*
X153700785Y-119026224D01*
X153700788Y-119026224D01*
X153705374Y-119027095D01*
X153835959Y-119032226D01*
X153961875Y-119037174D01*
X153961881Y-119037174D01*
X153966543Y-119037357D01*
X154045977Y-119028657D01*
X154221707Y-119009412D01*
X154221712Y-119009411D01*
X154226360Y-119008902D01*
X154339116Y-118979216D01*
X154474594Y-118943548D01*
X154474596Y-118943547D01*
X154479117Y-118942357D01*
X154581297Y-118898457D01*
X154714972Y-118841025D01*
X154719262Y-118839182D01*
X154941519Y-118701646D01*
X154945082Y-118698629D01*
X154945087Y-118698626D01*
X155137439Y-118535787D01*
X155137440Y-118535786D01*
X155141005Y-118532768D01*
X155232729Y-118428177D01*
X155310257Y-118339774D01*
X155310261Y-118339769D01*
X155313339Y-118336259D01*
X155454733Y-118116437D01*
X155562083Y-117878129D01*
X155633030Y-117626572D01*
X155649832Y-117494496D01*
X155665616Y-117370421D01*
X155665616Y-117370417D01*
X155666014Y-117367291D01*
X155666176Y-117361135D01*
X155668348Y-117278160D01*
X155668431Y-117275000D01*
X155657364Y-117126077D01*
X155649407Y-117019000D01*
X155649406Y-117018996D01*
X155649061Y-117014348D01*
X155643569Y-116990073D01*
X155592408Y-116763980D01*
X155591377Y-116759423D01*
X155537539Y-116620978D01*
X155498340Y-116520176D01*
X155498339Y-116520173D01*
X155496647Y-116515823D01*
X155366951Y-116288902D01*
X155205138Y-116083643D01*
X155014763Y-115904557D01*
X154800009Y-115755576D01*
X154795816Y-115753508D01*
X154569781Y-115642040D01*
X154569778Y-115642039D01*
X154565593Y-115639975D01*
X154552104Y-115635657D01*
X154321123Y-115561720D01*
X154316665Y-115560293D01*
X154058693Y-115518279D01*
X153944942Y-115516790D01*
X153802022Y-115514919D01*
X153802019Y-115514919D01*
X153797345Y-115514858D01*
X153538362Y-115550104D01*
X153287433Y-115623243D01*
X153283180Y-115625203D01*
X153283179Y-115625204D01*
X153246659Y-115642040D01*
X153050072Y-115732668D01*
X153011067Y-115758241D01*
X152835404Y-115873410D01*
X152835399Y-115873414D01*
X152831491Y-115875976D01*
X152636494Y-116050018D01*
X152469363Y-116250970D01*
X152333771Y-116474419D01*
X152232697Y-116715455D01*
X152168359Y-116968783D01*
X152142173Y-117228839D01*
X148607272Y-117228839D01*
X148723631Y-117180641D01*
X148850136Y-117128241D01*
X148968359Y-117059157D01*
X149082879Y-116992237D01*
X149082880Y-116992236D01*
X149086582Y-116990073D01*
X149302089Y-116821094D01*
X149343809Y-116778043D01*
X149489686Y-116627509D01*
X149492669Y-116624431D01*
X149495202Y-116620983D01*
X149495206Y-116620978D01*
X149652257Y-116407178D01*
X149654795Y-116403723D01*
X149682154Y-116353334D01*
X149783418Y-116166830D01*
X149783419Y-116166828D01*
X149785468Y-116163054D01*
X149882269Y-115906877D01*
X149943407Y-115639933D01*
X149946930Y-115600466D01*
X149967531Y-115369627D01*
X149967531Y-115369625D01*
X149967751Y-115367161D01*
X149968193Y-115325000D01*
X149966465Y-115299648D01*
X149949859Y-115056055D01*
X149949858Y-115056049D01*
X149949567Y-115051778D01*
X149894032Y-114783612D01*
X149802617Y-114525465D01*
X149677013Y-114282112D01*
X149667040Y-114267921D01*
X149522008Y-114061562D01*
X149519545Y-114058057D01*
X149333125Y-113857445D01*
X149329810Y-113854731D01*
X149329806Y-113854728D01*
X149124523Y-113686706D01*
X149121205Y-113683990D01*
X148887704Y-113540901D01*
X148883768Y-113539173D01*
X148640873Y-113432549D01*
X148640869Y-113432548D01*
X148636945Y-113430825D01*
X148373566Y-113355800D01*
X148369324Y-113355196D01*
X148369318Y-113355195D01*
X148168834Y-113326662D01*
X148102443Y-113317213D01*
X147958589Y-113316460D01*
X147832877Y-113315802D01*
X147832871Y-113315802D01*
X147828591Y-113315780D01*
X147824347Y-113316339D01*
X147824343Y-113316339D01*
X147705302Y-113332011D01*
X147557078Y-113351525D01*
X147552938Y-113352658D01*
X147552936Y-113352658D01*
X147480008Y-113372609D01*
X147292928Y-113423788D01*
X147288980Y-113425472D01*
X147044982Y-113529546D01*
X147044978Y-113529548D01*
X147041030Y-113531232D01*
X147021125Y-113543145D01*
X146809725Y-113669664D01*
X146809721Y-113669667D01*
X146806043Y-113671868D01*
X146592318Y-113843094D01*
X146403808Y-114041742D01*
X146244002Y-114264136D01*
X146115857Y-114506161D01*
X146114385Y-114510184D01*
X146114383Y-114510188D01*
X146060120Y-114658468D01*
X146021743Y-114763337D01*
X145963404Y-115030907D01*
X145941917Y-115303918D01*
X140344500Y-115303918D01*
X140344500Y-111125000D01*
X141261526Y-111125000D01*
X141281391Y-111377403D01*
X141340495Y-111623591D01*
X141437384Y-111857502D01*
X141569672Y-112073376D01*
X141734102Y-112265898D01*
X141926624Y-112430328D01*
X142142498Y-112562616D01*
X142147068Y-112564509D01*
X142147072Y-112564511D01*
X142217401Y-112593642D01*
X142376409Y-112659505D01*
X142443513Y-112675615D01*
X142617784Y-112717454D01*
X142617790Y-112717455D01*
X142622597Y-112718609D01*
X142875000Y-112738474D01*
X143127403Y-112718609D01*
X143132210Y-112717455D01*
X143132216Y-112717454D01*
X143306487Y-112675615D01*
X143373591Y-112659505D01*
X143532599Y-112593642D01*
X143602928Y-112564511D01*
X143602932Y-112564509D01*
X143607502Y-112562616D01*
X143823376Y-112430328D01*
X144015898Y-112265898D01*
X144180328Y-112073376D01*
X144312616Y-111857502D01*
X144409505Y-111623591D01*
X144468609Y-111377403D01*
X144488474Y-111125000D01*
X144479370Y-111009328D01*
X144493966Y-110939849D01*
X144515887Y-110910348D01*
X145880829Y-109545405D01*
X145943141Y-109511380D01*
X145969924Y-109508500D01*
X151434695Y-109508500D01*
X151502816Y-109528502D01*
X151549309Y-109582158D01*
X151559413Y-109652432D01*
X151535521Y-109710064D01*
X151484385Y-109778295D01*
X151433255Y-109914684D01*
X151426500Y-109976866D01*
X151426500Y-112273134D01*
X151433255Y-112335316D01*
X151484385Y-112471705D01*
X151571739Y-112588261D01*
X151688295Y-112675615D01*
X151824684Y-112726745D01*
X151886866Y-112733500D01*
X154183134Y-112733500D01*
X154245316Y-112726745D01*
X154381705Y-112675615D01*
X154498261Y-112588261D01*
X154585615Y-112471705D01*
X154636745Y-112335316D01*
X154643500Y-112273134D01*
X154643500Y-109976866D01*
X154636745Y-109914684D01*
X154585615Y-109778295D01*
X154534479Y-109710064D01*
X154509631Y-109643559D01*
X154524684Y-109574177D01*
X154574858Y-109523946D01*
X154635305Y-109508500D01*
X155438157Y-109508500D01*
X155451764Y-109509237D01*
X155483262Y-109512659D01*
X155483267Y-109512659D01*
X155489388Y-109513324D01*
X155515638Y-109511027D01*
X155539388Y-109508950D01*
X155544214Y-109508621D01*
X155546686Y-109508500D01*
X155549769Y-109508500D01*
X155561738Y-109507326D01*
X155592506Y-109504310D01*
X155593819Y-109504188D01*
X155639685Y-109500175D01*
X155686413Y-109496087D01*
X155691532Y-109494600D01*
X155696833Y-109494080D01*
X155785834Y-109467209D01*
X155786967Y-109466874D01*
X155870414Y-109442630D01*
X155870418Y-109442628D01*
X155876336Y-109440909D01*
X155881068Y-109438456D01*
X155886169Y-109436916D01*
X155906536Y-109426087D01*
X155968260Y-109393269D01*
X155969426Y-109392657D01*
X156040724Y-109355699D01*
X156110408Y-109342107D01*
X156176377Y-109368347D01*
X156217688Y-109426087D01*
X156220417Y-109500174D01*
X156186457Y-109626913D01*
X156166502Y-109855000D01*
X156186457Y-110083087D01*
X156245716Y-110304243D01*
X156248039Y-110309224D01*
X156248039Y-110309225D01*
X156340151Y-110506762D01*
X156340154Y-110506767D01*
X156342477Y-110511749D01*
X156473802Y-110699300D01*
X156635700Y-110861198D01*
X156640208Y-110864355D01*
X156640211Y-110864357D01*
X156705893Y-110910348D01*
X156823251Y-110992523D01*
X156828233Y-110994846D01*
X156828238Y-110994849D01*
X157025775Y-111086961D01*
X157030757Y-111089284D01*
X157036065Y-111090706D01*
X157036067Y-111090707D01*
X157246598Y-111147119D01*
X157246600Y-111147119D01*
X157251913Y-111148543D01*
X157480000Y-111168498D01*
X157708087Y-111148543D01*
X157713400Y-111147119D01*
X157713402Y-111147119D01*
X157923933Y-111090707D01*
X157923935Y-111090706D01*
X157929243Y-111089284D01*
X157934225Y-111086961D01*
X158131762Y-110994849D01*
X158131767Y-110994846D01*
X158136749Y-110992523D01*
X158254107Y-110910348D01*
X158319789Y-110864357D01*
X158319792Y-110864355D01*
X158324300Y-110861198D01*
X158486198Y-110699300D01*
X158617523Y-110511749D01*
X158619846Y-110506767D01*
X158619849Y-110506762D01*
X158711961Y-110309225D01*
X158711961Y-110309224D01*
X158714284Y-110304243D01*
X158773543Y-110083087D01*
X158793498Y-109855000D01*
X158773543Y-109626913D01*
X158747174Y-109528502D01*
X158715707Y-109411067D01*
X158715706Y-109411065D01*
X158714284Y-109405757D01*
X158708461Y-109393269D01*
X158619849Y-109203238D01*
X158619846Y-109203233D01*
X158617523Y-109198251D01*
X158486198Y-109010700D01*
X158324300Y-108848802D01*
X158319792Y-108845645D01*
X158319789Y-108845643D01*
X158143288Y-108722056D01*
X158136749Y-108717477D01*
X158131767Y-108715154D01*
X158131762Y-108715151D01*
X157934225Y-108623039D01*
X157934224Y-108623039D01*
X157929243Y-108620716D01*
X157923935Y-108619294D01*
X157923933Y-108619293D01*
X157713402Y-108562881D01*
X157713400Y-108562881D01*
X157708087Y-108561457D01*
X157480000Y-108541502D01*
X157251913Y-108561457D01*
X157246600Y-108562881D01*
X157246598Y-108562881D01*
X157177290Y-108581452D01*
X157106313Y-108579762D01*
X157047518Y-108539968D01*
X157019570Y-108474703D01*
X157031344Y-108404690D01*
X157055582Y-108370652D01*
X158315829Y-107110405D01*
X158378141Y-107076379D01*
X158404924Y-107073500D01*
X161066110Y-107073500D01*
X161134231Y-107093502D01*
X161180724Y-107147158D01*
X161190828Y-107217432D01*
X161161334Y-107282012D01*
X161132413Y-107306644D01*
X161035652Y-107366522D01*
X160910695Y-107491697D01*
X160906855Y-107497927D01*
X160906854Y-107497928D01*
X160839787Y-107606731D01*
X160817885Y-107642262D01*
X160814031Y-107653881D01*
X160782001Y-107750451D01*
X160762203Y-107810139D01*
X160751500Y-107914600D01*
X160751500Y-109215400D01*
X160751837Y-109218646D01*
X160751837Y-109218650D01*
X160756296Y-109261620D01*
X160762474Y-109321166D01*
X160764655Y-109327702D01*
X160764655Y-109327704D01*
X160802424Y-109440909D01*
X160818450Y-109488946D01*
X160911522Y-109639348D01*
X161036697Y-109764305D01*
X161042927Y-109768145D01*
X161042928Y-109768146D01*
X161180090Y-109852694D01*
X161187262Y-109857115D01*
X161267005Y-109883564D01*
X161348611Y-109910632D01*
X161348613Y-109910632D01*
X161355139Y-109912797D01*
X161361975Y-109913497D01*
X161361978Y-109913498D01*
X161405031Y-109917909D01*
X161459600Y-109923500D01*
X163060400Y-109923500D01*
X163063646Y-109923163D01*
X163063650Y-109923163D01*
X163159308Y-109913238D01*
X163159312Y-109913237D01*
X163166166Y-109912526D01*
X163172702Y-109910345D01*
X163172704Y-109910345D01*
X163322181Y-109860475D01*
X163333946Y-109856550D01*
X163484348Y-109763478D01*
X163609305Y-109638303D01*
X163637607Y-109592389D01*
X163698275Y-109493968D01*
X163698276Y-109493966D01*
X163702115Y-109487738D01*
X163747836Y-109349892D01*
X163755632Y-109326389D01*
X163755632Y-109326387D01*
X163757797Y-109319861D01*
X163768500Y-109215400D01*
X163768500Y-107914600D01*
X163764459Y-107875651D01*
X163758238Y-107815692D01*
X163758237Y-107815688D01*
X163757526Y-107808834D01*
X163739097Y-107753594D01*
X163703868Y-107648002D01*
X163701550Y-107641054D01*
X163608478Y-107490652D01*
X163483303Y-107365695D01*
X163337660Y-107275919D01*
X163290168Y-107223148D01*
X163278744Y-107153076D01*
X163307018Y-107087952D01*
X163316805Y-107077490D01*
X163427278Y-106972103D01*
X163431135Y-106968424D01*
X163568754Y-106783458D01*
X163583674Y-106754114D01*
X163652623Y-106618500D01*
X163673240Y-106577949D01*
X163677588Y-106563948D01*
X163740024Y-106362871D01*
X163741607Y-106357773D01*
X163751343Y-106284318D01*
X163771198Y-106134511D01*
X163771198Y-106134506D01*
X163771898Y-106129226D01*
X163769847Y-106074580D01*
X163763449Y-105904173D01*
X163763249Y-105898842D01*
X163715907Y-105673209D01*
X163713948Y-105668248D01*
X163633185Y-105463744D01*
X163633184Y-105463742D01*
X163631224Y-105458779D01*
X163610227Y-105424176D01*
X163514390Y-105266243D01*
X163511623Y-105261683D01*
X163476263Y-105220934D01*
X163364023Y-105091588D01*
X163364021Y-105091586D01*
X163360523Y-105087555D01*
X163281821Y-105023023D01*
X163186373Y-104944760D01*
X163186367Y-104944756D01*
X163182245Y-104941376D01*
X163177609Y-104938737D01*
X163177606Y-104938735D01*
X162986529Y-104829968D01*
X162981886Y-104827325D01*
X162765175Y-104748663D01*
X162759926Y-104747714D01*
X162759923Y-104747713D01*
X162542392Y-104708377D01*
X162542385Y-104708376D01*
X162538308Y-104707639D01*
X162520586Y-104706803D01*
X162515644Y-104706570D01*
X162515637Y-104706570D01*
X162514156Y-104706500D01*
X162052110Y-104706500D01*
X161985191Y-104712178D01*
X161885591Y-104720629D01*
X161885587Y-104720630D01*
X161880280Y-104721080D01*
X161875125Y-104722418D01*
X161875119Y-104722419D01*
X161662297Y-104777657D01*
X161662293Y-104777658D01*
X161657128Y-104778999D01*
X161652262Y-104781191D01*
X161652259Y-104781192D01*
X161543980Y-104829968D01*
X161446925Y-104873688D01*
X161393775Y-104909471D01*
X161260111Y-104999458D01*
X161260107Y-104999461D01*
X161255681Y-105002441D01*
X161251816Y-105006128D01*
X161235525Y-105021669D01*
X161172429Y-105054217D01*
X161148553Y-105056500D01*
X157996843Y-105056500D01*
X157983236Y-105055763D01*
X157951738Y-105052341D01*
X157951733Y-105052341D01*
X157945612Y-105051676D01*
X157919362Y-105053973D01*
X157895612Y-105056050D01*
X157890786Y-105056379D01*
X157888314Y-105056500D01*
X157885231Y-105056500D01*
X157873262Y-105057674D01*
X157842494Y-105060690D01*
X157841181Y-105060812D01*
X157796916Y-105064685D01*
X157748587Y-105068913D01*
X157743468Y-105070400D01*
X157738167Y-105070920D01*
X157649166Y-105097791D01*
X157648033Y-105098126D01*
X157564586Y-105122370D01*
X157564582Y-105122372D01*
X157558664Y-105124091D01*
X157553932Y-105126544D01*
X157548831Y-105128084D01*
X157543388Y-105130978D01*
X157466740Y-105171731D01*
X157465574Y-105172343D01*
X157388547Y-105212271D01*
X157383074Y-105215108D01*
X157378911Y-105218431D01*
X157374204Y-105220934D01*
X157302082Y-105279755D01*
X157301226Y-105280446D01*
X157262027Y-105311738D01*
X157259523Y-105314242D01*
X157258805Y-105314884D01*
X157254472Y-105318585D01*
X157220938Y-105345935D01*
X157217011Y-105350682D01*
X157217009Y-105350684D01*
X157191713Y-105381262D01*
X157183723Y-105390042D01*
X156136744Y-106437022D01*
X155119171Y-107454595D01*
X155056859Y-107488620D01*
X155030076Y-107491500D01*
X145561850Y-107491500D01*
X145548242Y-107490763D01*
X145547220Y-107490652D01*
X145510612Y-107486675D01*
X145460570Y-107491053D01*
X145455788Y-107491379D01*
X145453310Y-107491500D01*
X145450231Y-107491500D01*
X145447177Y-107491799D01*
X145447166Y-107491800D01*
X145407529Y-107495687D01*
X145406215Y-107495809D01*
X145370688Y-107498917D01*
X145313587Y-107503913D01*
X145308468Y-107505400D01*
X145303167Y-107505920D01*
X145214166Y-107532791D01*
X145213033Y-107533126D01*
X145129586Y-107557370D01*
X145129582Y-107557372D01*
X145123664Y-107559091D01*
X145118932Y-107561544D01*
X145113831Y-107563084D01*
X145108388Y-107565978D01*
X145031740Y-107606731D01*
X145030574Y-107607343D01*
X144977559Y-107634824D01*
X144948074Y-107650108D01*
X144943911Y-107653431D01*
X144939204Y-107655934D01*
X144934429Y-107659828D01*
X144934428Y-107659829D01*
X144867102Y-107714739D01*
X144866075Y-107715567D01*
X144829792Y-107744531D01*
X144829787Y-107744536D01*
X144827028Y-107746738D01*
X144824527Y-107749239D01*
X144823809Y-107749881D01*
X144819461Y-107753594D01*
X144785938Y-107780935D01*
X144782015Y-107785677D01*
X144782013Y-107785679D01*
X144756703Y-107816273D01*
X144748713Y-107825053D01*
X143089653Y-109484113D01*
X143027341Y-109518139D01*
X142990675Y-109520630D01*
X142875000Y-109511526D01*
X142622597Y-109531391D01*
X142617790Y-109532545D01*
X142617784Y-109532546D01*
X142461032Y-109570179D01*
X142376409Y-109590495D01*
X142371838Y-109592388D01*
X142371836Y-109592389D01*
X142147072Y-109685489D01*
X142147068Y-109685491D01*
X142142498Y-109687384D01*
X141926624Y-109819672D01*
X141734102Y-109984102D01*
X141569672Y-110176624D01*
X141437384Y-110392498D01*
X141435491Y-110397068D01*
X141435489Y-110397072D01*
X141386121Y-110516257D01*
X141340495Y-110626409D01*
X141339340Y-110631221D01*
X141284128Y-110861198D01*
X141281391Y-110872597D01*
X141261526Y-111125000D01*
X140344500Y-111125000D01*
X140344500Y-105910400D01*
X147886500Y-105910400D01*
X147886837Y-105913646D01*
X147886837Y-105913650D01*
X147894579Y-105988260D01*
X147897474Y-106016166D01*
X147899655Y-106022702D01*
X147899655Y-106022704D01*
X147933415Y-106123895D01*
X147953450Y-106183946D01*
X148046522Y-106334348D01*
X148171697Y-106459305D01*
X148177927Y-106463145D01*
X148177928Y-106463146D01*
X148315090Y-106547694D01*
X148322262Y-106552115D01*
X148400150Y-106577949D01*
X148483611Y-106605632D01*
X148483613Y-106605632D01*
X148490139Y-106607797D01*
X148496975Y-106608497D01*
X148496978Y-106608498D01*
X148532663Y-106612154D01*
X148594600Y-106618500D01*
X149895400Y-106618500D01*
X149898646Y-106618163D01*
X149898650Y-106618163D01*
X149994308Y-106608238D01*
X149994312Y-106608237D01*
X150001166Y-106607526D01*
X150007702Y-106605345D01*
X150007704Y-106605345D01*
X150139806Y-106561272D01*
X150168946Y-106551550D01*
X150319348Y-106458478D01*
X150444305Y-106333303D01*
X150534081Y-106187660D01*
X150586852Y-106140168D01*
X150656924Y-106128744D01*
X150722048Y-106157018D01*
X150732510Y-106166805D01*
X150774215Y-106210523D01*
X150841576Y-106281135D01*
X151026542Y-106418754D01*
X151031293Y-106421170D01*
X151031297Y-106421172D01*
X151094481Y-106453296D01*
X151232051Y-106523240D01*
X151237145Y-106524822D01*
X151237148Y-106524823D01*
X151408241Y-106577949D01*
X151452227Y-106591607D01*
X151457516Y-106592308D01*
X151675489Y-106621198D01*
X151675494Y-106621198D01*
X151680774Y-106621898D01*
X151686103Y-106621698D01*
X151686105Y-106621698D01*
X151795966Y-106617574D01*
X151911158Y-106613249D01*
X151933802Y-106608498D01*
X152056736Y-106582704D01*
X152136791Y-106565907D01*
X152141750Y-106563949D01*
X152141752Y-106563948D01*
X152346256Y-106483185D01*
X152346258Y-106483184D01*
X152351221Y-106481224D01*
X152387343Y-106459305D01*
X152543757Y-106364390D01*
X152543756Y-106364390D01*
X152548317Y-106361623D01*
X152630314Y-106290470D01*
X152718412Y-106214023D01*
X152718414Y-106214021D01*
X152722445Y-106210523D01*
X152784771Y-106134511D01*
X152865240Y-106036373D01*
X152865244Y-106036367D01*
X152868624Y-106032245D01*
X152946334Y-105895729D01*
X152980032Y-105836529D01*
X152982675Y-105831886D01*
X153061337Y-105615175D01*
X153093724Y-105436073D01*
X153101623Y-105392392D01*
X153101624Y-105392385D01*
X153102361Y-105388308D01*
X153103500Y-105364156D01*
X153103500Y-104902110D01*
X153092635Y-104774057D01*
X153089371Y-104735591D01*
X153089370Y-104735587D01*
X153088920Y-104730280D01*
X153087582Y-104725125D01*
X153087581Y-104725119D01*
X153032343Y-104512297D01*
X153032342Y-104512293D01*
X153031001Y-104507128D01*
X153024501Y-104492697D01*
X152938507Y-104301798D01*
X152936312Y-104296925D01*
X152807559Y-104105681D01*
X152748918Y-104044209D01*
X152736347Y-104031032D01*
X152648424Y-103938865D01*
X152463458Y-103801246D01*
X152458707Y-103798830D01*
X152458703Y-103798828D01*
X152336731Y-103736815D01*
X152257949Y-103696760D01*
X152252855Y-103695178D01*
X152252852Y-103695177D01*
X152042871Y-103629976D01*
X152037773Y-103628393D01*
X152032484Y-103627692D01*
X151814511Y-103598802D01*
X151814506Y-103598802D01*
X151809226Y-103598102D01*
X151803897Y-103598302D01*
X151803895Y-103598302D01*
X151694034Y-103602426D01*
X151578842Y-103606751D01*
X151573623Y-103607846D01*
X151551566Y-103612474D01*
X151353209Y-103654093D01*
X151348250Y-103656051D01*
X151348248Y-103656052D01*
X151143744Y-103736815D01*
X151143742Y-103736816D01*
X151138779Y-103738776D01*
X151134220Y-103741543D01*
X151134217Y-103741544D01*
X151035832Y-103801246D01*
X150941683Y-103858377D01*
X150937653Y-103861874D01*
X150832083Y-103953483D01*
X150767555Y-104009477D01*
X150738330Y-104045120D01*
X150679671Y-104085114D01*
X150608701Y-104087046D01*
X150547952Y-104050302D01*
X150533752Y-104031532D01*
X150447332Y-103891880D01*
X150443478Y-103885652D01*
X150318303Y-103760695D01*
X150293234Y-103745242D01*
X150173968Y-103671725D01*
X150173966Y-103671724D01*
X150167738Y-103667885D01*
X150087995Y-103641436D01*
X150006389Y-103614368D01*
X150006387Y-103614368D01*
X149999861Y-103612203D01*
X149993025Y-103611503D01*
X149993022Y-103611502D01*
X149949969Y-103607091D01*
X149895400Y-103601500D01*
X148594600Y-103601500D01*
X148591354Y-103601837D01*
X148591350Y-103601837D01*
X148495692Y-103611762D01*
X148495688Y-103611763D01*
X148488834Y-103612474D01*
X148482298Y-103614655D01*
X148482296Y-103614655D01*
X148443220Y-103627692D01*
X148321054Y-103668450D01*
X148170652Y-103761522D01*
X148045695Y-103886697D01*
X148041855Y-103892927D01*
X148041854Y-103892928D01*
X148011161Y-103942722D01*
X147952885Y-104037262D01*
X147935321Y-104090215D01*
X147914107Y-104154176D01*
X147897203Y-104205139D01*
X147886500Y-104309600D01*
X147886500Y-105910400D01*
X140344500Y-105910400D01*
X140344500Y-100900473D01*
X140344770Y-100892232D01*
X140348382Y-100837115D01*
X140349425Y-100821209D01*
X140346737Y-100780195D01*
X140330015Y-100525055D01*
X140330014Y-100525048D01*
X140329745Y-100520943D01*
X140324684Y-100495500D01*
X140318020Y-100461998D01*
X140271846Y-100229865D01*
X140271844Y-100229859D01*
X140271040Y-100225815D01*
X140260716Y-100195400D01*
X147886500Y-100195400D01*
X147886837Y-100198646D01*
X147886837Y-100198650D01*
X147896652Y-100293242D01*
X147897474Y-100301166D01*
X147899655Y-100307702D01*
X147899655Y-100307704D01*
X147931644Y-100403587D01*
X147953450Y-100468946D01*
X148046522Y-100619348D01*
X148171697Y-100744305D01*
X148177927Y-100748145D01*
X148177928Y-100748146D01*
X148315090Y-100832694D01*
X148322262Y-100837115D01*
X148330107Y-100839717D01*
X148483611Y-100890632D01*
X148483613Y-100890632D01*
X148490139Y-100892797D01*
X148496975Y-100893497D01*
X148496978Y-100893498D01*
X148540031Y-100897909D01*
X148594600Y-100903500D01*
X149895400Y-100903500D01*
X149898646Y-100903163D01*
X149898650Y-100903163D01*
X149994308Y-100893238D01*
X149994312Y-100893237D01*
X150001166Y-100892526D01*
X150007702Y-100890345D01*
X150007704Y-100890345D01*
X150159453Y-100839717D01*
X150168946Y-100836550D01*
X150319348Y-100743478D01*
X150444305Y-100618303D01*
X150534081Y-100472660D01*
X150586852Y-100425168D01*
X150656924Y-100413744D01*
X150722048Y-100442018D01*
X150732510Y-100451805D01*
X150774193Y-100495500D01*
X150841576Y-100566135D01*
X151026542Y-100703754D01*
X151031293Y-100706170D01*
X151031297Y-100706172D01*
X151089855Y-100735944D01*
X151232051Y-100808240D01*
X151237145Y-100809822D01*
X151237148Y-100809823D01*
X151414850Y-100865001D01*
X151452227Y-100876607D01*
X151457516Y-100877308D01*
X151675489Y-100906198D01*
X151675494Y-100906198D01*
X151680774Y-100906898D01*
X151686103Y-100906698D01*
X151686105Y-100906698D01*
X151805329Y-100902222D01*
X151911158Y-100898249D01*
X151933802Y-100893498D01*
X152131572Y-100852002D01*
X152136791Y-100850907D01*
X152141750Y-100848949D01*
X152141752Y-100848948D01*
X152346256Y-100768185D01*
X152346258Y-100768184D01*
X152351221Y-100766224D01*
X152356731Y-100762881D01*
X152543757Y-100649390D01*
X152543756Y-100649390D01*
X152548317Y-100646623D01*
X152588134Y-100612072D01*
X152718412Y-100499023D01*
X152718414Y-100499021D01*
X152722445Y-100495523D01*
X152797828Y-100403587D01*
X152865240Y-100321373D01*
X152865244Y-100321367D01*
X152868624Y-100317245D01*
X152882288Y-100293242D01*
X152980032Y-100121529D01*
X152982675Y-100116886D01*
X153061337Y-99900175D01*
X153065500Y-99877154D01*
X153101623Y-99677392D01*
X153101624Y-99677385D01*
X153102361Y-99673308D01*
X153103197Y-99655586D01*
X153103430Y-99650644D01*
X153103430Y-99650637D01*
X153103500Y-99649156D01*
X153103500Y-99187110D01*
X153092363Y-99055855D01*
X153089371Y-99020591D01*
X153089370Y-99020587D01*
X153088920Y-99015280D01*
X153087582Y-99010125D01*
X153087581Y-99010119D01*
X153032343Y-98797297D01*
X153032342Y-98797293D01*
X153031001Y-98792128D01*
X153027064Y-98783387D01*
X152938507Y-98586798D01*
X152936312Y-98581925D01*
X152807559Y-98390681D01*
X152748918Y-98329209D01*
X152736347Y-98316032D01*
X152648424Y-98223865D01*
X152463458Y-98086246D01*
X152458707Y-98083830D01*
X152458703Y-98083828D01*
X152296261Y-98001239D01*
X152257949Y-97981760D01*
X152252855Y-97980178D01*
X152252852Y-97980177D01*
X152042871Y-97914976D01*
X152037773Y-97913393D01*
X152032484Y-97912692D01*
X151814511Y-97883802D01*
X151814506Y-97883802D01*
X151809226Y-97883102D01*
X151803897Y-97883302D01*
X151803895Y-97883302D01*
X151694034Y-97887426D01*
X151578842Y-97891751D01*
X151573623Y-97892846D01*
X151551566Y-97897474D01*
X151353209Y-97939093D01*
X151348250Y-97941051D01*
X151348248Y-97941052D01*
X151143744Y-98021815D01*
X151143742Y-98021816D01*
X151138779Y-98023776D01*
X151134220Y-98026543D01*
X151134217Y-98026544D01*
X151019710Y-98096029D01*
X150941683Y-98143377D01*
X150937653Y-98146874D01*
X150823084Y-98246292D01*
X150767555Y-98294477D01*
X150738330Y-98330120D01*
X150679671Y-98370114D01*
X150608701Y-98372046D01*
X150547952Y-98335302D01*
X150533752Y-98316532D01*
X150447332Y-98176880D01*
X150443478Y-98170652D01*
X150318303Y-98045695D01*
X150312072Y-98041854D01*
X150173968Y-97956725D01*
X150173966Y-97956724D01*
X150167738Y-97952885D01*
X150063606Y-97918346D01*
X150006389Y-97899368D01*
X150006387Y-97899368D01*
X149999861Y-97897203D01*
X149993025Y-97896503D01*
X149993022Y-97896502D01*
X149949969Y-97892091D01*
X149895400Y-97886500D01*
X148594600Y-97886500D01*
X148591354Y-97886837D01*
X148591350Y-97886837D01*
X148495692Y-97896762D01*
X148495688Y-97896763D01*
X148488834Y-97897474D01*
X148482298Y-97899655D01*
X148482296Y-97899655D01*
X148389064Y-97930760D01*
X148321054Y-97953450D01*
X148170652Y-98046522D01*
X148045695Y-98171697D01*
X148041855Y-98177927D01*
X148041854Y-98177928D01*
X147976089Y-98284619D01*
X147952885Y-98322262D01*
X147931472Y-98386822D01*
X147907406Y-98459379D01*
X147897203Y-98490139D01*
X147896503Y-98496975D01*
X147896502Y-98496978D01*
X147895886Y-98502992D01*
X147886500Y-98594600D01*
X147886500Y-100195400D01*
X140260716Y-100195400D01*
X140260102Y-100193591D01*
X140175645Y-99944789D01*
X140175645Y-99944788D01*
X140174316Y-99940874D01*
X140172493Y-99937178D01*
X140172490Y-99937170D01*
X140098413Y-99786959D01*
X140091331Y-99772598D01*
X140052641Y-99694142D01*
X140040451Y-99624200D01*
X140068010Y-99558771D01*
X140126568Y-99518627D01*
X140197533Y-99516515D01*
X140219096Y-99524312D01*
X140292659Y-99558771D01*
X140363794Y-99592093D01*
X140367012Y-99593195D01*
X140367015Y-99593196D01*
X140699615Y-99707071D01*
X140699623Y-99707073D01*
X140702838Y-99708174D01*
X141052435Y-99786959D01*
X141104728Y-99792917D01*
X141405114Y-99827142D01*
X141405122Y-99827142D01*
X141408497Y-99827527D01*
X141411901Y-99827545D01*
X141411904Y-99827545D01*
X141606227Y-99828562D01*
X141766857Y-99829403D01*
X141770243Y-99829053D01*
X141770245Y-99829053D01*
X142119932Y-99792917D01*
X142119941Y-99792916D01*
X142123324Y-99792566D01*
X142126657Y-99791852D01*
X142126660Y-99791851D01*
X142310462Y-99752447D01*
X142473727Y-99717446D01*
X142813968Y-99604922D01*
X143140066Y-99456311D01*
X143264891Y-99382195D01*
X143445262Y-99275099D01*
X143445267Y-99275096D01*
X143448207Y-99273350D01*
X143484958Y-99245757D01*
X143601645Y-99158145D01*
X143734786Y-99058180D01*
X143996451Y-98813319D01*
X144230140Y-98541630D01*
X144357237Y-98356703D01*
X144431190Y-98249101D01*
X144431195Y-98249094D01*
X144433120Y-98246292D01*
X144434732Y-98243298D01*
X144434737Y-98243290D01*
X144565068Y-98001239D01*
X144603017Y-97930760D01*
X144707127Y-97674366D01*
X144736562Y-97601877D01*
X144736564Y-97601872D01*
X144737842Y-97598724D01*
X144748142Y-97562568D01*
X144788847Y-97419672D01*
X144836020Y-97254070D01*
X144887274Y-96954221D01*
X144895829Y-96904175D01*
X144895829Y-96904173D01*
X144896401Y-96900828D01*
X144897418Y-96884209D01*
X144918168Y-96544928D01*
X144918278Y-96543131D01*
X144918359Y-96520000D01*
X144898979Y-96162159D01*
X144841066Y-95808505D01*
X144745297Y-95463173D01*
X144742243Y-95455497D01*
X144614052Y-95133369D01*
X144612793Y-95130205D01*
X144567791Y-95045211D01*
X144446702Y-94816513D01*
X144446698Y-94816506D01*
X144445103Y-94813494D01*
X144244190Y-94516746D01*
X144225346Y-94494525D01*
X144058100Y-94297316D01*
X144012403Y-94243432D01*
X143780154Y-94023037D01*
X143754921Y-93999091D01*
X143754920Y-93999090D01*
X143752454Y-93996750D01*
X143645395Y-93915193D01*
X147892289Y-93915193D01*
X147901124Y-94019325D01*
X147902914Y-94029797D01*
X147958130Y-94242535D01*
X147961665Y-94252575D01*
X148051937Y-94452970D01*
X148057106Y-94462256D01*
X148179850Y-94644575D01*
X148186519Y-94652870D01*
X148338228Y-94811900D01*
X148346186Y-94818941D01*
X148522525Y-94950141D01*
X148531562Y-94955745D01*
X148727484Y-95055357D01*
X148737335Y-95059357D01*
X148947240Y-95124534D01*
X148957624Y-95126817D01*
X148973043Y-95128861D01*
X148987207Y-95126665D01*
X148991000Y-95113478D01*
X148991000Y-95111192D01*
X149499000Y-95111192D01*
X149502973Y-95124723D01*
X149513580Y-95126248D01*
X149631421Y-95101523D01*
X149641617Y-95098463D01*
X149846029Y-95017737D01*
X149855561Y-95013006D01*
X150043462Y-94898984D01*
X150052052Y-94892720D01*
X150218052Y-94748673D01*
X150225470Y-94741044D01*
X150251391Y-94709431D01*
X150310051Y-94669436D01*
X150381021Y-94667504D01*
X150441770Y-94704248D01*
X150455969Y-94723017D01*
X150546522Y-94869348D01*
X150671697Y-94994305D01*
X150822262Y-95087115D01*
X150829210Y-95089420D01*
X150829213Y-95089421D01*
X150885601Y-95108124D01*
X150943577Y-95148082D01*
X150959696Y-95167846D01*
X150960482Y-95168819D01*
X150991738Y-95207973D01*
X150994242Y-95210477D01*
X150994884Y-95211195D01*
X150998585Y-95215528D01*
X151025935Y-95249062D01*
X151030682Y-95252989D01*
X151030684Y-95252991D01*
X151061262Y-95278287D01*
X151070042Y-95286277D01*
X154243145Y-98459379D01*
X154252247Y-98469522D01*
X154275968Y-98499025D01*
X154293849Y-98514029D01*
X154314421Y-98531291D01*
X154318069Y-98534472D01*
X154319881Y-98536115D01*
X154322075Y-98538309D01*
X154355349Y-98565642D01*
X154356147Y-98566304D01*
X154427474Y-98626154D01*
X154432144Y-98628722D01*
X154436261Y-98632103D01*
X154460292Y-98644988D01*
X154518086Y-98675977D01*
X154519245Y-98676606D01*
X154595381Y-98718462D01*
X154595389Y-98718465D01*
X154600787Y-98721433D01*
X154605869Y-98723045D01*
X154610563Y-98725562D01*
X154699531Y-98752762D01*
X154700559Y-98753082D01*
X154789306Y-98781235D01*
X154794602Y-98781829D01*
X154799698Y-98783387D01*
X154892257Y-98792790D01*
X154893393Y-98792911D01*
X154927008Y-98796681D01*
X154939730Y-98798108D01*
X154939734Y-98798108D01*
X154943227Y-98798500D01*
X154946754Y-98798500D01*
X154947739Y-98798555D01*
X154953419Y-98799002D01*
X154982825Y-98801989D01*
X154990337Y-98802752D01*
X154990339Y-98802752D01*
X154996462Y-98803374D01*
X155042108Y-98799059D01*
X155053967Y-98798500D01*
X156268309Y-98798500D01*
X156336430Y-98818502D01*
X156382923Y-98872158D01*
X156393027Y-98942432D01*
X156371522Y-98996770D01*
X156342477Y-99038251D01*
X156340154Y-99043233D01*
X156340151Y-99043238D01*
X156248470Y-99239850D01*
X156245716Y-99245757D01*
X156244294Y-99251065D01*
X156244293Y-99251067D01*
X156198813Y-99420799D01*
X156186457Y-99466913D01*
X156166502Y-99695000D01*
X156186457Y-99923087D01*
X156187881Y-99928400D01*
X156187881Y-99928402D01*
X156238386Y-100116886D01*
X156245716Y-100144243D01*
X156248039Y-100149224D01*
X156248039Y-100149225D01*
X156340151Y-100346762D01*
X156340154Y-100346767D01*
X156342477Y-100351749D01*
X156389188Y-100418459D01*
X156463828Y-100525055D01*
X156473802Y-100539300D01*
X156635700Y-100701198D01*
X156640208Y-100704355D01*
X156640211Y-100704357D01*
X156717027Y-100758144D01*
X156823251Y-100832523D01*
X156828233Y-100834846D01*
X156828238Y-100834849D01*
X157024701Y-100926460D01*
X157030757Y-100929284D01*
X157036065Y-100930706D01*
X157036067Y-100930707D01*
X157246598Y-100987119D01*
X157246600Y-100987119D01*
X157251913Y-100988543D01*
X157480000Y-101008498D01*
X157708087Y-100988543D01*
X157713400Y-100987119D01*
X157713402Y-100987119D01*
X157923933Y-100930707D01*
X157923935Y-100930706D01*
X157929243Y-100929284D01*
X157935299Y-100926460D01*
X158131762Y-100834849D01*
X158131767Y-100834846D01*
X158136749Y-100832523D01*
X158242973Y-100758144D01*
X158319789Y-100704357D01*
X158319792Y-100704355D01*
X158324300Y-100701198D01*
X158486198Y-100539300D01*
X158496173Y-100525055D01*
X158570812Y-100418459D01*
X158617523Y-100351749D01*
X158619846Y-100346767D01*
X158619849Y-100346762D01*
X158711961Y-100149225D01*
X158711961Y-100149224D01*
X158714284Y-100144243D01*
X158721615Y-100116886D01*
X158772119Y-99928402D01*
X158772119Y-99928400D01*
X158773543Y-99923087D01*
X158793498Y-99695000D01*
X158773543Y-99466913D01*
X158761187Y-99420799D01*
X158715707Y-99251067D01*
X158715706Y-99251065D01*
X158714284Y-99245757D01*
X158711530Y-99239850D01*
X158619849Y-99043238D01*
X158619846Y-99043233D01*
X158617523Y-99038251D01*
X158588478Y-98996770D01*
X158565790Y-98929497D01*
X158583075Y-98860637D01*
X158634844Y-98812053D01*
X158691691Y-98798500D01*
X158915075Y-98798500D01*
X158983196Y-98818502D01*
X159004170Y-98835405D01*
X159649113Y-99480348D01*
X159683139Y-99542660D01*
X159685630Y-99579326D01*
X159676526Y-99695000D01*
X159696391Y-99947403D01*
X159697545Y-99952210D01*
X159697546Y-99952216D01*
X159732258Y-100096803D01*
X159755495Y-100193591D01*
X159757388Y-100198162D01*
X159757389Y-100198164D01*
X159820422Y-100350338D01*
X159852384Y-100427502D01*
X159984672Y-100643376D01*
X160149102Y-100835898D01*
X160152858Y-100839106D01*
X160166675Y-100850907D01*
X160341624Y-101000328D01*
X160557498Y-101132616D01*
X160562068Y-101134509D01*
X160562072Y-101134511D01*
X160786836Y-101227611D01*
X160791409Y-101229505D01*
X160871642Y-101248767D01*
X161032784Y-101287454D01*
X161032790Y-101287455D01*
X161037597Y-101288609D01*
X161290000Y-101308474D01*
X161542403Y-101288609D01*
X161547210Y-101287455D01*
X161547216Y-101287454D01*
X161708358Y-101248767D01*
X161788591Y-101229505D01*
X161793164Y-101227611D01*
X162017928Y-101134511D01*
X162017932Y-101134509D01*
X162022502Y-101132616D01*
X162238376Y-101000328D01*
X162413325Y-100850907D01*
X162427142Y-100839106D01*
X162430898Y-100835898D01*
X162595328Y-100643376D01*
X162727616Y-100427502D01*
X162759579Y-100350338D01*
X162822611Y-100198164D01*
X162822612Y-100198162D01*
X162824505Y-100193591D01*
X162847742Y-100096803D01*
X162882454Y-99952216D01*
X162882455Y-99952210D01*
X162883609Y-99947403D01*
X162903474Y-99695000D01*
X162883609Y-99442597D01*
X162882092Y-99436276D01*
X162842484Y-99271296D01*
X162824505Y-99196409D01*
X162812085Y-99166424D01*
X162729511Y-98967072D01*
X162729509Y-98967068D01*
X162727616Y-98962498D01*
X162595328Y-98746624D01*
X162430898Y-98554102D01*
X162238376Y-98389672D01*
X162022502Y-98257384D01*
X162017932Y-98255491D01*
X162017928Y-98255489D01*
X161793164Y-98162389D01*
X161793162Y-98162388D01*
X161788591Y-98160495D01*
X161703968Y-98140179D01*
X161547216Y-98102546D01*
X161547210Y-98102545D01*
X161542403Y-98101391D01*
X161290000Y-98081526D01*
X161174327Y-98090630D01*
X161104848Y-98076034D01*
X161075347Y-98054113D01*
X160141855Y-97120621D01*
X160132753Y-97110478D01*
X160112897Y-97085782D01*
X160109032Y-97080975D01*
X160070578Y-97048708D01*
X160066931Y-97045528D01*
X160065119Y-97043885D01*
X160062925Y-97041691D01*
X160029651Y-97014358D01*
X160028853Y-97013696D01*
X159957526Y-96953846D01*
X159952856Y-96951278D01*
X159948739Y-96947897D01*
X159866914Y-96904023D01*
X159865755Y-96903394D01*
X159789619Y-96861538D01*
X159789611Y-96861535D01*
X159784213Y-96858567D01*
X159779131Y-96856955D01*
X159774437Y-96854438D01*
X159685469Y-96827238D01*
X159684441Y-96826918D01*
X159595694Y-96798765D01*
X159590398Y-96798171D01*
X159585302Y-96796613D01*
X159492743Y-96787210D01*
X159491607Y-96787089D01*
X159457992Y-96783319D01*
X159445270Y-96781892D01*
X159445266Y-96781892D01*
X159441773Y-96781500D01*
X159438246Y-96781500D01*
X159437261Y-96781445D01*
X159431581Y-96780998D01*
X159402175Y-96778011D01*
X159394663Y-96777248D01*
X159394661Y-96777248D01*
X159388538Y-96776626D01*
X159346259Y-96780623D01*
X159342891Y-96780941D01*
X159331033Y-96781500D01*
X158691691Y-96781500D01*
X158623570Y-96761498D01*
X158577077Y-96707842D01*
X158566973Y-96637568D01*
X158588478Y-96583229D01*
X158614366Y-96546257D01*
X158617523Y-96541749D01*
X158618339Y-96540000D01*
X166326502Y-96540000D01*
X166346457Y-96768087D01*
X166347881Y-96773400D01*
X166347881Y-96773402D01*
X166394780Y-96948428D01*
X166405716Y-96989243D01*
X166408039Y-96994224D01*
X166408039Y-96994225D01*
X166500151Y-97191762D01*
X166500154Y-97191767D01*
X166502477Y-97196749D01*
X166633802Y-97384300D01*
X166704595Y-97455093D01*
X166738621Y-97517405D01*
X166741500Y-97544188D01*
X166741500Y-104050487D01*
X166718713Y-104122757D01*
X166695210Y-104156323D01*
X166695207Y-104156329D01*
X166692050Y-104160837D01*
X166689727Y-104165819D01*
X166689724Y-104165824D01*
X166610485Y-104335753D01*
X166598616Y-104361207D01*
X166541396Y-104574758D01*
X166522127Y-104795000D01*
X166541396Y-105015242D01*
X166542820Y-105020556D01*
X166542820Y-105020557D01*
X166595840Y-105218431D01*
X166598616Y-105228793D01*
X166600938Y-105233774D01*
X166600939Y-105233775D01*
X166689724Y-105424176D01*
X166689727Y-105424181D01*
X166692050Y-105429163D01*
X166818859Y-105610264D01*
X166975189Y-105766594D01*
X167156290Y-105893403D01*
X167161272Y-105895726D01*
X167161277Y-105895729D01*
X167351678Y-105984514D01*
X167356660Y-105986837D01*
X167361968Y-105988259D01*
X167361970Y-105988260D01*
X167564896Y-106042633D01*
X167570211Y-106044057D01*
X167705878Y-106055927D01*
X167784975Y-106062847D01*
X167784978Y-106062847D01*
X167790453Y-106063326D01*
X167815810Y-106061108D01*
X167885412Y-106075097D01*
X167936404Y-106124496D01*
X167952309Y-106175646D01*
X167961411Y-106279675D01*
X167963314Y-106290470D01*
X168017665Y-106493311D01*
X168021411Y-106503603D01*
X168110161Y-106693927D01*
X168115639Y-106703417D01*
X168145274Y-106745740D01*
X168155749Y-106754114D01*
X168169198Y-106747045D01*
X168850111Y-106066132D01*
X169574861Y-106066132D01*
X169574992Y-106067965D01*
X169579243Y-106074580D01*
X170252430Y-106747767D01*
X170264204Y-106754197D01*
X170276219Y-106744901D01*
X170305267Y-106703417D01*
X170310745Y-106693927D01*
X170399495Y-106503603D01*
X170403241Y-106493311D01*
X170457592Y-106290470D01*
X170459495Y-106279675D01*
X170477798Y-106070475D01*
X170477798Y-106059525D01*
X170459495Y-105850325D01*
X170457592Y-105839530D01*
X170403241Y-105636689D01*
X170399495Y-105626397D01*
X170310745Y-105436073D01*
X170305267Y-105426583D01*
X170275632Y-105384260D01*
X170265157Y-105375886D01*
X170251708Y-105382955D01*
X169582475Y-106052188D01*
X169574861Y-106066132D01*
X168850111Y-106066132D01*
X169893220Y-105023023D01*
X169899650Y-105011249D01*
X169890354Y-104999234D01*
X169848870Y-104970186D01*
X169839380Y-104964708D01*
X169720925Y-104909471D01*
X169667640Y-104862554D01*
X169648179Y-104794276D01*
X169668721Y-104726317D01*
X169720925Y-104681081D01*
X169839629Y-104625729D01*
X169839634Y-104625726D01*
X169844616Y-104623403D01*
X170025717Y-104496594D01*
X170182047Y-104340264D01*
X170203519Y-104309600D01*
X170281234Y-104198611D01*
X170308856Y-104159163D01*
X170311179Y-104154181D01*
X170311182Y-104154176D01*
X170399967Y-103963775D01*
X170399968Y-103963774D01*
X170402290Y-103958793D01*
X170408483Y-103935682D01*
X170458086Y-103750557D01*
X170458086Y-103750556D01*
X170459510Y-103745242D01*
X170478779Y-103525000D01*
X170459510Y-103304758D01*
X170402290Y-103091207D01*
X170399967Y-103086225D01*
X170311182Y-102895824D01*
X170311179Y-102895819D01*
X170308856Y-102890837D01*
X170217487Y-102760349D01*
X170185206Y-102714247D01*
X170185204Y-102714245D01*
X170182047Y-102709736D01*
X170025717Y-102553406D01*
X170008020Y-102541014D01*
X169897918Y-102463920D01*
X169844616Y-102426597D01*
X169839634Y-102424274D01*
X169839629Y-102424271D01*
X169649228Y-102335486D01*
X169649227Y-102335485D01*
X169644246Y-102333163D01*
X169638938Y-102331741D01*
X169638936Y-102331740D01*
X169436010Y-102277367D01*
X169436009Y-102277367D01*
X169430695Y-102275943D01*
X169210453Y-102256674D01*
X168990211Y-102275943D01*
X168984897Y-102277367D01*
X168984896Y-102277367D01*
X168781970Y-102331740D01*
X168781968Y-102331741D01*
X168776660Y-102333163D01*
X168771679Y-102335485D01*
X168771678Y-102335486D01*
X168581277Y-102424271D01*
X168581272Y-102424274D01*
X168576290Y-102426597D01*
X168456770Y-102510286D01*
X168389497Y-102532974D01*
X168320637Y-102515689D01*
X168272053Y-102463920D01*
X168258500Y-102407073D01*
X168258500Y-97769897D01*
X168278502Y-97701776D01*
X168312229Y-97666684D01*
X168479789Y-97549357D01*
X168479792Y-97549355D01*
X168484300Y-97546198D01*
X168646198Y-97384300D01*
X168777523Y-97196749D01*
X168779846Y-97191767D01*
X168779849Y-97191762D01*
X168871961Y-96994225D01*
X168871961Y-96994224D01*
X168874284Y-96989243D01*
X168885221Y-96948428D01*
X168932119Y-96773402D01*
X168932119Y-96773400D01*
X168933543Y-96768087D01*
X168953498Y-96540000D01*
X168933543Y-96311913D01*
X168891249Y-96154070D01*
X168875707Y-96096067D01*
X168875706Y-96096065D01*
X168874284Y-96090757D01*
X168780892Y-95890475D01*
X168779849Y-95888238D01*
X168779846Y-95888233D01*
X168777523Y-95883251D01*
X168646198Y-95695700D01*
X168484300Y-95533802D01*
X168479792Y-95530645D01*
X168479789Y-95530643D01*
X168401611Y-95475902D01*
X168296749Y-95402477D01*
X168291767Y-95400154D01*
X168291762Y-95400151D01*
X168094225Y-95308039D01*
X168094224Y-95308039D01*
X168089243Y-95305716D01*
X168083935Y-95304294D01*
X168083933Y-95304293D01*
X167873402Y-95247881D01*
X167873400Y-95247881D01*
X167868087Y-95246457D01*
X167640000Y-95226502D01*
X167411913Y-95246457D01*
X167406600Y-95247881D01*
X167406598Y-95247881D01*
X167196067Y-95304293D01*
X167196065Y-95304294D01*
X167190757Y-95305716D01*
X167185776Y-95308039D01*
X167185775Y-95308039D01*
X166988238Y-95400151D01*
X166988233Y-95400154D01*
X166983251Y-95402477D01*
X166878389Y-95475902D01*
X166800211Y-95530643D01*
X166800208Y-95530645D01*
X166795700Y-95533802D01*
X166633802Y-95695700D01*
X166502477Y-95883251D01*
X166500154Y-95888233D01*
X166500151Y-95888238D01*
X166499108Y-95890475D01*
X166405716Y-96090757D01*
X166404294Y-96096065D01*
X166404293Y-96096067D01*
X166388751Y-96154070D01*
X166346457Y-96311913D01*
X166326502Y-96540000D01*
X158618339Y-96540000D01*
X158619846Y-96536767D01*
X158619849Y-96536762D01*
X158711961Y-96339225D01*
X158711961Y-96339224D01*
X158714284Y-96334243D01*
X158720268Y-96311913D01*
X158772119Y-96118402D01*
X158772119Y-96118400D01*
X158773543Y-96113087D01*
X158793498Y-95885000D01*
X158773543Y-95656913D01*
X158772119Y-95651598D01*
X158715707Y-95441067D01*
X158715706Y-95441065D01*
X158714284Y-95435757D01*
X158700238Y-95405634D01*
X158619849Y-95233238D01*
X158619846Y-95233233D01*
X158617523Y-95228251D01*
X158547929Y-95128861D01*
X158489357Y-95045211D01*
X158489355Y-95045208D01*
X158486198Y-95040700D01*
X158324300Y-94878802D01*
X158319792Y-94875645D01*
X158319789Y-94875643D01*
X158169079Y-94770115D01*
X158136749Y-94747477D01*
X158131767Y-94745154D01*
X158131762Y-94745151D01*
X157934225Y-94653039D01*
X157934224Y-94653039D01*
X157929243Y-94650716D01*
X157923935Y-94649294D01*
X157923933Y-94649293D01*
X157713402Y-94592881D01*
X157713400Y-94592881D01*
X157708087Y-94591457D01*
X157480000Y-94571502D01*
X157251913Y-94591457D01*
X157246600Y-94592881D01*
X157246598Y-94592881D01*
X157036067Y-94649293D01*
X157036065Y-94649294D01*
X157030757Y-94650716D01*
X157025776Y-94653039D01*
X157025775Y-94653039D01*
X156828238Y-94745151D01*
X156828233Y-94745154D01*
X156823251Y-94747477D01*
X156790921Y-94770115D01*
X156640211Y-94875643D01*
X156640208Y-94875645D01*
X156635700Y-94878802D01*
X156473802Y-95040700D01*
X156470645Y-95045208D01*
X156470643Y-95045211D01*
X156412071Y-95128861D01*
X156342477Y-95228251D01*
X156340154Y-95233233D01*
X156340151Y-95233238D01*
X156259762Y-95405634D01*
X156245716Y-95435757D01*
X156244294Y-95441065D01*
X156244293Y-95441067D01*
X156187881Y-95651598D01*
X156186457Y-95656913D01*
X156166502Y-95885000D01*
X156186457Y-96113087D01*
X156187881Y-96118400D01*
X156187881Y-96118402D01*
X156239733Y-96311913D01*
X156245716Y-96334243D01*
X156248039Y-96339224D01*
X156248039Y-96339225D01*
X156340151Y-96536762D01*
X156340154Y-96536767D01*
X156342477Y-96541749D01*
X156345634Y-96546257D01*
X156371522Y-96583229D01*
X156394210Y-96650503D01*
X156376925Y-96719363D01*
X156325156Y-96767947D01*
X156268309Y-96781500D01*
X155469925Y-96781500D01*
X155401804Y-96761498D01*
X155380830Y-96744595D01*
X153140405Y-94504171D01*
X153106380Y-94441859D01*
X153103500Y-94415076D01*
X153103500Y-92844600D01*
X153103001Y-92839789D01*
X153093238Y-92745692D01*
X153093237Y-92745688D01*
X153092526Y-92738834D01*
X153079834Y-92700790D01*
X153038868Y-92578002D01*
X153036550Y-92571054D01*
X152943478Y-92420652D01*
X152818303Y-92295695D01*
X152798310Y-92283371D01*
X152673968Y-92206725D01*
X152673966Y-92206724D01*
X152667738Y-92202885D01*
X152548498Y-92163335D01*
X152506389Y-92149368D01*
X152506387Y-92149368D01*
X152499861Y-92147203D01*
X152493025Y-92146503D01*
X152493022Y-92146502D01*
X152449969Y-92142091D01*
X152395400Y-92136500D01*
X151094600Y-92136500D01*
X151091354Y-92136837D01*
X151091350Y-92136837D01*
X150995692Y-92146762D01*
X150995688Y-92146763D01*
X150988834Y-92147474D01*
X150982298Y-92149655D01*
X150982296Y-92149655D01*
X150850194Y-92193728D01*
X150821054Y-92203450D01*
X150670652Y-92296522D01*
X150665479Y-92301704D01*
X150652939Y-92314266D01*
X150545695Y-92421697D01*
X150541855Y-92427927D01*
X150541854Y-92427928D01*
X150528715Y-92449243D01*
X150455697Y-92567701D01*
X150455648Y-92567780D01*
X150402876Y-92615273D01*
X150332804Y-92626697D01*
X150267680Y-92598423D01*
X150257218Y-92588636D01*
X150151766Y-92478094D01*
X150143814Y-92471059D01*
X149967475Y-92339859D01*
X149958438Y-92334255D01*
X149762516Y-92234643D01*
X149752665Y-92230643D01*
X149542760Y-92165466D01*
X149532376Y-92163183D01*
X149516957Y-92161139D01*
X149502793Y-92163335D01*
X149499000Y-92176522D01*
X149499000Y-95111192D01*
X148991000Y-95111192D01*
X148991000Y-93917115D01*
X148986525Y-93901876D01*
X148985135Y-93900671D01*
X148977452Y-93899000D01*
X147909030Y-93899000D01*
X147894352Y-93903310D01*
X147892289Y-93915193D01*
X143645395Y-93915193D01*
X143545370Y-93838994D01*
X143470091Y-93781647D01*
X143470089Y-93781646D01*
X143467384Y-93779585D01*
X143464472Y-93777828D01*
X143464467Y-93777825D01*
X143163443Y-93596236D01*
X143163437Y-93596233D01*
X143160528Y-93594478D01*
X142835475Y-93443593D01*
X142633936Y-93375376D01*
X147887732Y-93375376D01*
X147891475Y-93388124D01*
X147892865Y-93389329D01*
X147900548Y-93391000D01*
X148972885Y-93391000D01*
X148988124Y-93386525D01*
X148989329Y-93385135D01*
X148991000Y-93377452D01*
X148991000Y-92178808D01*
X148987027Y-92165277D01*
X148976420Y-92163752D01*
X148858579Y-92188477D01*
X148848383Y-92191537D01*
X148643971Y-92272263D01*
X148634439Y-92276994D01*
X148446538Y-92391016D01*
X148437948Y-92397280D01*
X148271948Y-92541327D01*
X148264528Y-92548958D01*
X148125174Y-92718911D01*
X148119150Y-92727678D01*
X148010424Y-92918682D01*
X148005959Y-92928346D01*
X147930969Y-93134941D01*
X147928198Y-93145208D01*
X147888877Y-93362655D01*
X147887944Y-93370884D01*
X147887732Y-93375376D01*
X142633936Y-93375376D01*
X142620665Y-93370884D01*
X142499255Y-93329789D01*
X142499250Y-93329788D01*
X142496028Y-93328697D01*
X142297681Y-93284724D01*
X142149493Y-93251871D01*
X142149487Y-93251870D01*
X142146158Y-93251132D01*
X142142769Y-93250758D01*
X142142764Y-93250757D01*
X141793338Y-93212180D01*
X141793333Y-93212180D01*
X141789957Y-93211807D01*
X141786558Y-93211801D01*
X141786557Y-93211801D01*
X141617080Y-93211505D01*
X141431592Y-93211182D01*
X141319875Y-93223121D01*
X141078639Y-93248901D01*
X141078631Y-93248902D01*
X141075256Y-93249263D01*
X140725117Y-93325606D01*
X140385271Y-93439317D01*
X140382178Y-93440739D01*
X140382177Y-93440740D01*
X140211952Y-93519035D01*
X140059694Y-93589066D01*
X140056760Y-93590822D01*
X140056758Y-93590823D01*
X139833495Y-93724443D01*
X139752193Y-93773101D01*
X139749467Y-93775163D01*
X139749465Y-93775164D01*
X139514396Y-93952946D01*
X139466367Y-93989270D01*
X139463882Y-93991612D01*
X139463877Y-93991616D01*
X139437416Y-94016552D01*
X139205559Y-94235043D01*
X139203347Y-94237633D01*
X139203345Y-94237635D01*
X139169313Y-94277481D01*
X138972819Y-94507546D01*
X138970900Y-94510358D01*
X138970897Y-94510363D01*
X138915579Y-94591457D01*
X138770871Y-94803591D01*
X138602077Y-95119714D01*
X138468411Y-95452218D01*
X138467491Y-95455492D01*
X138467489Y-95455497D01*
X138410874Y-95656913D01*
X138371437Y-95797213D01*
X138370875Y-95800570D01*
X138370875Y-95800571D01*
X138356747Y-95885000D01*
X138312290Y-96150663D01*
X138291661Y-96508434D01*
X138309792Y-96866340D01*
X138310329Y-96869695D01*
X138310330Y-96869701D01*
X138343535Y-97077008D01*
X138366470Y-97220195D01*
X138461033Y-97565859D01*
X138512672Y-97696952D01*
X138519028Y-97767663D01*
X138486145Y-97830586D01*
X138424464Y-97865742D01*
X138353568Y-97861970D01*
X138306344Y-97832226D01*
X136688905Y-96214787D01*
X136654879Y-96152475D01*
X136652000Y-96125692D01*
X136652000Y-88200193D01*
X147892289Y-88200193D01*
X147901124Y-88304325D01*
X147902914Y-88314797D01*
X147958130Y-88527535D01*
X147961665Y-88537575D01*
X148051937Y-88737970D01*
X148057106Y-88747256D01*
X148179850Y-88929575D01*
X148186519Y-88937870D01*
X148338228Y-89096900D01*
X148346186Y-89103941D01*
X148522525Y-89235141D01*
X148531562Y-89240745D01*
X148727484Y-89340357D01*
X148737335Y-89344357D01*
X148947240Y-89409534D01*
X148957624Y-89411817D01*
X148973043Y-89413861D01*
X148987207Y-89411665D01*
X148991000Y-89398478D01*
X148991000Y-89396192D01*
X149499000Y-89396192D01*
X149502973Y-89409723D01*
X149513580Y-89411248D01*
X149631421Y-89386523D01*
X149641617Y-89383463D01*
X149846029Y-89302737D01*
X149855561Y-89298006D01*
X150043462Y-89183984D01*
X150052052Y-89177720D01*
X150218052Y-89033673D01*
X150225470Y-89026044D01*
X150251391Y-88994431D01*
X150310051Y-88954436D01*
X150381021Y-88952504D01*
X150441770Y-88989248D01*
X150455969Y-89008017D01*
X150546522Y-89154348D01*
X150671697Y-89279305D01*
X150677927Y-89283145D01*
X150677928Y-89283146D01*
X150815090Y-89367694D01*
X150822262Y-89372115D01*
X150865701Y-89386523D01*
X150983611Y-89425632D01*
X150983613Y-89425632D01*
X150990139Y-89427797D01*
X150996975Y-89428497D01*
X150996978Y-89428498D01*
X151040031Y-89432909D01*
X151094600Y-89438500D01*
X152395400Y-89438500D01*
X152398646Y-89438163D01*
X152398650Y-89438163D01*
X152494308Y-89428238D01*
X152494312Y-89428237D01*
X152501166Y-89427526D01*
X152507702Y-89425345D01*
X152507704Y-89425345D01*
X152639806Y-89381272D01*
X152668946Y-89371550D01*
X152819348Y-89278478D01*
X152944305Y-89153303D01*
X152974732Y-89103941D01*
X153033275Y-89008968D01*
X153033276Y-89008966D01*
X153037115Y-89002738D01*
X153092797Y-88834861D01*
X153095293Y-88810506D01*
X153100479Y-88759884D01*
X153103500Y-88730400D01*
X153103500Y-88220774D01*
X160748102Y-88220774D01*
X160756751Y-88451158D01*
X160804093Y-88676791D01*
X160806051Y-88681750D01*
X160806052Y-88681752D01*
X160867034Y-88836166D01*
X160888776Y-88891221D01*
X160891543Y-88895780D01*
X160891544Y-88895783D01*
X160927136Y-88954436D01*
X161008377Y-89088317D01*
X161011874Y-89092347D01*
X161140647Y-89240745D01*
X161159477Y-89262445D01*
X161195120Y-89291670D01*
X161235114Y-89350329D01*
X161237046Y-89421299D01*
X161200302Y-89482048D01*
X161181532Y-89496248D01*
X161059510Y-89571758D01*
X161035652Y-89586522D01*
X160910695Y-89711697D01*
X160906855Y-89717927D01*
X160906854Y-89717928D01*
X160881051Y-89759789D01*
X160817885Y-89862262D01*
X160762203Y-90030139D01*
X160751500Y-90134600D01*
X160751500Y-91435400D01*
X160751837Y-91438646D01*
X160751837Y-91438650D01*
X160760966Y-91526631D01*
X160762474Y-91541166D01*
X160764655Y-91547702D01*
X160764655Y-91547704D01*
X160787382Y-91615825D01*
X160818450Y-91708946D01*
X160911522Y-91859348D01*
X160916704Y-91864521D01*
X160943367Y-91891138D01*
X161036697Y-91984305D01*
X161042927Y-91988145D01*
X161042928Y-91988146D01*
X161180090Y-92072694D01*
X161187262Y-92077115D01*
X161237195Y-92093677D01*
X161348611Y-92130632D01*
X161348613Y-92130632D01*
X161355139Y-92132797D01*
X161361975Y-92133497D01*
X161361978Y-92133498D01*
X161394481Y-92136828D01*
X161459600Y-92143500D01*
X163060400Y-92143500D01*
X163063646Y-92143163D01*
X163063650Y-92143163D01*
X163159308Y-92133238D01*
X163159312Y-92133237D01*
X163166166Y-92132526D01*
X163172702Y-92130345D01*
X163172704Y-92130345D01*
X163304806Y-92086272D01*
X163333946Y-92076550D01*
X163484348Y-91983478D01*
X163609305Y-91858303D01*
X163613146Y-91852072D01*
X163698275Y-91713968D01*
X163698276Y-91713966D01*
X163702115Y-91707738D01*
X163757797Y-91539861D01*
X163768500Y-91435400D01*
X163768500Y-90134600D01*
X163767106Y-90121166D01*
X163758238Y-90035692D01*
X163758237Y-90035688D01*
X163757526Y-90028834D01*
X163741261Y-89980080D01*
X163703868Y-89868002D01*
X163701550Y-89861054D01*
X163608478Y-89710652D01*
X163483303Y-89585695D01*
X163337660Y-89495919D01*
X163290168Y-89443148D01*
X163278744Y-89373076D01*
X163307018Y-89307952D01*
X163316805Y-89297490D01*
X163427278Y-89192103D01*
X163431135Y-89188424D01*
X163434439Y-89183984D01*
X163565568Y-89007740D01*
X163568754Y-89003458D01*
X163572653Y-88995791D01*
X163651154Y-88841389D01*
X163673240Y-88797949D01*
X163689352Y-88746062D01*
X163740024Y-88582871D01*
X163741607Y-88577773D01*
X163746935Y-88537575D01*
X163771198Y-88354511D01*
X163771198Y-88354506D01*
X163771898Y-88349226D01*
X163770606Y-88314797D01*
X163767076Y-88220774D01*
X163763249Y-88118842D01*
X163755144Y-88080211D01*
X163717002Y-87898428D01*
X163715907Y-87893209D01*
X163713948Y-87888248D01*
X163633185Y-87683744D01*
X163633184Y-87683742D01*
X163631224Y-87678779D01*
X163627793Y-87673124D01*
X163514390Y-87486243D01*
X163511623Y-87481683D01*
X163496374Y-87464110D01*
X163364023Y-87311588D01*
X163364021Y-87311586D01*
X163360523Y-87307555D01*
X163263739Y-87228197D01*
X163186373Y-87164760D01*
X163186367Y-87164756D01*
X163182245Y-87161376D01*
X163177609Y-87158737D01*
X163177606Y-87158735D01*
X162986529Y-87049968D01*
X162981886Y-87047325D01*
X162765175Y-86968663D01*
X162759926Y-86967714D01*
X162759923Y-86967713D01*
X162542392Y-86928377D01*
X162542385Y-86928376D01*
X162538308Y-86927639D01*
X162520586Y-86926803D01*
X162515644Y-86926570D01*
X162515637Y-86926570D01*
X162514156Y-86926500D01*
X162052110Y-86926500D01*
X161985191Y-86932178D01*
X161885591Y-86940629D01*
X161885587Y-86940630D01*
X161880280Y-86941080D01*
X161875125Y-86942418D01*
X161875119Y-86942419D01*
X161662297Y-86997657D01*
X161662293Y-86997658D01*
X161657128Y-86998999D01*
X161652262Y-87001191D01*
X161652259Y-87001192D01*
X161543980Y-87049968D01*
X161446925Y-87093688D01*
X161255681Y-87222441D01*
X161088865Y-87381576D01*
X160951246Y-87566542D01*
X160948830Y-87571293D01*
X160948828Y-87571297D01*
X160920060Y-87627881D01*
X160846760Y-87772051D01*
X160845178Y-87777145D01*
X160845177Y-87777148D01*
X160807456Y-87898629D01*
X160778393Y-87992227D01*
X160777692Y-87997516D01*
X160749867Y-88207460D01*
X160748102Y-88220774D01*
X153103500Y-88220774D01*
X153103500Y-87129600D01*
X153095238Y-87049968D01*
X153093238Y-87030692D01*
X153093237Y-87030688D01*
X153092526Y-87023834D01*
X153084241Y-86998999D01*
X153038868Y-86863002D01*
X153036550Y-86856054D01*
X152943478Y-86705652D01*
X152818303Y-86580695D01*
X152787965Y-86561994D01*
X152673968Y-86491725D01*
X152673966Y-86491724D01*
X152667738Y-86487885D01*
X152548498Y-86448335D01*
X152506389Y-86434368D01*
X152506387Y-86434368D01*
X152499861Y-86432203D01*
X152493025Y-86431503D01*
X152493022Y-86431502D01*
X152449969Y-86427091D01*
X152395400Y-86421500D01*
X151094600Y-86421500D01*
X151091354Y-86421837D01*
X151091350Y-86421837D01*
X150995692Y-86431762D01*
X150995688Y-86431763D01*
X150988834Y-86432474D01*
X150982298Y-86434655D01*
X150982296Y-86434655D01*
X150850194Y-86478728D01*
X150821054Y-86488450D01*
X150670652Y-86581522D01*
X150545695Y-86706697D01*
X150473430Y-86823933D01*
X150455648Y-86852780D01*
X150402876Y-86900273D01*
X150332804Y-86911697D01*
X150267680Y-86883423D01*
X150257218Y-86873636D01*
X150151766Y-86763094D01*
X150143814Y-86756059D01*
X149967475Y-86624859D01*
X149958438Y-86619255D01*
X149762516Y-86519643D01*
X149752665Y-86515643D01*
X149542760Y-86450466D01*
X149532376Y-86448183D01*
X149516957Y-86446139D01*
X149502793Y-86448335D01*
X149499000Y-86461522D01*
X149499000Y-89396192D01*
X148991000Y-89396192D01*
X148991000Y-88202115D01*
X148986525Y-88186876D01*
X148985135Y-88185671D01*
X148977452Y-88184000D01*
X147909030Y-88184000D01*
X147894352Y-88188310D01*
X147892289Y-88200193D01*
X136652000Y-88200193D01*
X136652000Y-87660376D01*
X147887732Y-87660376D01*
X147891475Y-87673124D01*
X147892865Y-87674329D01*
X147900548Y-87676000D01*
X148972885Y-87676000D01*
X148988124Y-87671525D01*
X148989329Y-87670135D01*
X148991000Y-87662452D01*
X148991000Y-86463808D01*
X148987027Y-86450277D01*
X148976420Y-86448752D01*
X148858579Y-86473477D01*
X148848383Y-86476537D01*
X148643971Y-86557263D01*
X148634439Y-86561994D01*
X148446538Y-86676016D01*
X148437948Y-86682280D01*
X148271948Y-86826327D01*
X148264528Y-86833958D01*
X148125174Y-87003911D01*
X148119150Y-87012678D01*
X148010424Y-87203682D01*
X148005959Y-87213346D01*
X147930969Y-87419941D01*
X147928198Y-87430208D01*
X147888877Y-87647655D01*
X147887944Y-87655884D01*
X147887732Y-87660376D01*
X136652000Y-87660376D01*
X136652000Y-87015992D01*
X136672002Y-86947871D01*
X136688905Y-86926897D01*
X137890802Y-85725000D01*
X156166502Y-85725000D01*
X156186457Y-85953087D01*
X156187881Y-85958400D01*
X156187881Y-85958402D01*
X156239733Y-86151913D01*
X156245716Y-86174243D01*
X156248039Y-86179224D01*
X156248039Y-86179225D01*
X156340151Y-86376762D01*
X156340154Y-86376767D01*
X156342477Y-86381749D01*
X156415181Y-86485581D01*
X156465374Y-86557263D01*
X156473802Y-86569300D01*
X156635700Y-86731198D01*
X156640208Y-86734355D01*
X156640211Y-86734357D01*
X156671205Y-86756059D01*
X156823251Y-86862523D01*
X156828233Y-86864846D01*
X156828238Y-86864849D01*
X157025775Y-86956961D01*
X157030757Y-86959284D01*
X157036065Y-86960706D01*
X157036067Y-86960707D01*
X157246598Y-87017119D01*
X157246600Y-87017119D01*
X157251913Y-87018543D01*
X157480000Y-87038498D01*
X157708087Y-87018543D01*
X157713400Y-87017119D01*
X157713402Y-87017119D01*
X157923933Y-86960707D01*
X157923935Y-86960706D01*
X157929243Y-86959284D01*
X157934225Y-86956961D01*
X158131762Y-86864849D01*
X158131767Y-86864846D01*
X158136749Y-86862523D01*
X158288795Y-86756059D01*
X158319789Y-86734357D01*
X158319792Y-86734355D01*
X158324300Y-86731198D01*
X158486198Y-86569300D01*
X158494627Y-86557263D01*
X158544819Y-86485581D01*
X158617523Y-86381749D01*
X158619846Y-86376767D01*
X158619849Y-86376762D01*
X158711961Y-86179225D01*
X158711961Y-86179224D01*
X158714284Y-86174243D01*
X158720268Y-86151913D01*
X158772119Y-85958402D01*
X158772119Y-85958400D01*
X158773543Y-85953087D01*
X158793498Y-85725000D01*
X158773543Y-85496913D01*
X158746507Y-85396014D01*
X158715707Y-85281067D01*
X158715706Y-85281065D01*
X158714284Y-85275757D01*
X158700702Y-85246630D01*
X158619849Y-85073238D01*
X158619846Y-85073233D01*
X158617523Y-85068251D01*
X158486198Y-84880700D01*
X158324300Y-84718802D01*
X158319792Y-84715645D01*
X158319789Y-84715643D01*
X158147644Y-84595106D01*
X158136749Y-84587477D01*
X158131767Y-84585154D01*
X158131762Y-84585151D01*
X157934225Y-84493039D01*
X157934224Y-84493039D01*
X157929243Y-84490716D01*
X157923935Y-84489294D01*
X157923933Y-84489293D01*
X157713402Y-84432881D01*
X157713400Y-84432881D01*
X157708087Y-84431457D01*
X157480000Y-84411502D01*
X157251913Y-84431457D01*
X157246600Y-84432881D01*
X157246598Y-84432881D01*
X157036067Y-84489293D01*
X157036065Y-84489294D01*
X157030757Y-84490716D01*
X157025776Y-84493039D01*
X157025775Y-84493039D01*
X156828238Y-84585151D01*
X156828233Y-84585154D01*
X156823251Y-84587477D01*
X156812356Y-84595106D01*
X156640211Y-84715643D01*
X156640208Y-84715645D01*
X156635700Y-84718802D01*
X156473802Y-84880700D01*
X156342477Y-85068251D01*
X156340154Y-85073233D01*
X156340151Y-85073238D01*
X156259298Y-85246630D01*
X156245716Y-85275757D01*
X156244294Y-85281065D01*
X156244293Y-85281067D01*
X156213493Y-85396014D01*
X156186457Y-85496913D01*
X156166502Y-85725000D01*
X137890802Y-85725000D01*
X139743110Y-83872692D01*
X139749127Y-83867055D01*
X139799557Y-83822829D01*
X139802646Y-83820120D01*
X139852290Y-83763512D01*
X139852298Y-83763504D01*
X140001050Y-83593884D01*
X140168227Y-83343686D01*
X140272267Y-83132715D01*
X140299495Y-83077502D01*
X140299496Y-83077500D01*
X140301316Y-83073809D01*
X140304940Y-83063134D01*
X141266500Y-83063134D01*
X141273255Y-83125316D01*
X141324385Y-83261705D01*
X141411739Y-83378261D01*
X141528295Y-83465615D01*
X141664684Y-83516745D01*
X141726866Y-83523500D01*
X144023134Y-83523500D01*
X144085316Y-83516745D01*
X144221705Y-83465615D01*
X144338261Y-83378261D01*
X144425615Y-83261705D01*
X144476745Y-83125316D01*
X144483500Y-83063134D01*
X144483500Y-81915000D01*
X151421526Y-81915000D01*
X151441391Y-82167403D01*
X151500495Y-82413591D01*
X151502388Y-82418162D01*
X151502389Y-82418164D01*
X151531991Y-82489628D01*
X151597384Y-82647502D01*
X151729672Y-82863376D01*
X151894102Y-83055898D01*
X152086624Y-83220328D01*
X152302498Y-83352616D01*
X152307068Y-83354509D01*
X152307072Y-83354511D01*
X152377401Y-83383642D01*
X152536409Y-83449505D01*
X152603513Y-83465615D01*
X152777784Y-83507454D01*
X152777790Y-83507455D01*
X152782597Y-83508609D01*
X153035000Y-83528474D01*
X153287403Y-83508609D01*
X153292210Y-83507455D01*
X153292216Y-83507454D01*
X153466487Y-83465615D01*
X153533591Y-83449505D01*
X153692599Y-83383642D01*
X153762928Y-83354511D01*
X153762932Y-83354509D01*
X153767502Y-83352616D01*
X153983376Y-83220328D01*
X154175898Y-83055898D01*
X154340328Y-82863376D01*
X154472616Y-82647502D01*
X154538010Y-82489628D01*
X154567611Y-82418164D01*
X154567612Y-82418162D01*
X154569505Y-82413591D01*
X154628609Y-82167403D01*
X154648474Y-81915000D01*
X154628609Y-81662597D01*
X154569505Y-81416409D01*
X154472616Y-81182498D01*
X154340328Y-80966624D01*
X154175898Y-80774102D01*
X153983376Y-80609672D01*
X153767502Y-80477384D01*
X153762932Y-80475491D01*
X153762928Y-80475489D01*
X153538164Y-80382389D01*
X153538162Y-80382388D01*
X153533591Y-80380495D01*
X153448968Y-80360179D01*
X153292216Y-80322546D01*
X153292210Y-80322545D01*
X153287403Y-80321391D01*
X153035000Y-80301526D01*
X152782597Y-80321391D01*
X152777790Y-80322545D01*
X152777784Y-80322546D01*
X152621032Y-80360179D01*
X152536409Y-80380495D01*
X152531838Y-80382388D01*
X152531836Y-80382389D01*
X152307072Y-80475489D01*
X152307068Y-80475491D01*
X152302498Y-80477384D01*
X152086624Y-80609672D01*
X151894102Y-80774102D01*
X151729672Y-80966624D01*
X151597384Y-81182498D01*
X151500495Y-81416409D01*
X151441391Y-81662597D01*
X151421526Y-81915000D01*
X144483500Y-81915000D01*
X144483500Y-80766866D01*
X144476745Y-80704684D01*
X144425615Y-80568295D01*
X144338261Y-80451739D01*
X144221705Y-80364385D01*
X144085316Y-80313255D01*
X144023134Y-80306500D01*
X141726866Y-80306500D01*
X141664684Y-80313255D01*
X141528295Y-80364385D01*
X141411739Y-80451739D01*
X141324385Y-80568295D01*
X141273255Y-80704684D01*
X141266500Y-80766866D01*
X141266500Y-83063134D01*
X140304940Y-83063134D01*
X140307396Y-83055898D01*
X140398040Y-82788868D01*
X140398844Y-82784827D01*
X140455942Y-82497779D01*
X140455943Y-82497773D01*
X140456745Y-82493740D01*
X140461699Y-82418164D01*
X140471500Y-82268617D01*
X140476155Y-82197594D01*
X140476425Y-82193474D01*
X140471770Y-82122450D01*
X140471500Y-82114210D01*
X140471500Y-77551145D01*
X145199624Y-77551145D01*
X145201061Y-77580000D01*
X145209991Y-77759375D01*
X145216114Y-77882376D01*
X145216755Y-77886107D01*
X145216756Y-77886115D01*
X145246322Y-78058175D01*
X145272277Y-78209227D01*
X145367300Y-78526964D01*
X145499807Y-78830983D01*
X145501730Y-78834254D01*
X145501732Y-78834258D01*
X145665956Y-79113612D01*
X145665961Y-79113620D01*
X145667879Y-79116882D01*
X145670180Y-79119897D01*
X145866780Y-79377505D01*
X145866785Y-79377510D01*
X145869080Y-79380518D01*
X146100496Y-79618073D01*
X146358775Y-79826107D01*
X146640176Y-80001604D01*
X146940623Y-80142024D01*
X147255763Y-80245332D01*
X147581032Y-80310032D01*
X147584804Y-80310319D01*
X147584812Y-80310320D01*
X147907941Y-80334900D01*
X147907946Y-80334900D01*
X147911718Y-80335187D01*
X148243031Y-80320432D01*
X148570172Y-80265981D01*
X148573806Y-80264915D01*
X148573810Y-80264914D01*
X148715786Y-80223262D01*
X148888401Y-80172622D01*
X149193111Y-80041709D01*
X149479885Y-79875137D01*
X149482911Y-79872853D01*
X149482918Y-79872848D01*
X149741545Y-79677604D01*
X149744572Y-79675319D01*
X149983335Y-79445150D01*
X150192718Y-79187964D01*
X150369687Y-78907485D01*
X150404380Y-78834258D01*
X150510049Y-78611216D01*
X150511678Y-78607778D01*
X150616635Y-78293183D01*
X150683037Y-77968257D01*
X150709923Y-77637707D01*
X150710346Y-77597296D01*
X150710504Y-77582221D01*
X150710504Y-77582214D01*
X150710527Y-77580000D01*
X150708788Y-77551145D01*
X150690798Y-77252738D01*
X150690798Y-77252734D01*
X150690570Y-77248960D01*
X150630987Y-76922715D01*
X150532641Y-76605991D01*
X150396958Y-76303375D01*
X150225902Y-76019252D01*
X150223575Y-76016268D01*
X150223570Y-76016261D01*
X150024287Y-75760732D01*
X150024285Y-75760730D01*
X150021951Y-75757737D01*
X149848962Y-75583839D01*
X152242173Y-75583839D01*
X152254713Y-75844908D01*
X152305704Y-76101256D01*
X152394026Y-76347252D01*
X152396242Y-76351376D01*
X152460753Y-76471437D01*
X152517737Y-76577491D01*
X152520532Y-76581234D01*
X152520534Y-76581237D01*
X152671330Y-76783177D01*
X152671335Y-76783183D01*
X152674122Y-76786915D01*
X152677431Y-76790195D01*
X152677436Y-76790201D01*
X152856426Y-76967635D01*
X152859743Y-76970923D01*
X152863505Y-76973681D01*
X152863508Y-76973684D01*
X153066750Y-77122707D01*
X153070524Y-77125474D01*
X153074667Y-77127654D01*
X153074669Y-77127655D01*
X153297684Y-77244989D01*
X153297689Y-77244991D01*
X153301834Y-77247172D01*
X153548590Y-77333344D01*
X153553183Y-77334216D01*
X153800785Y-77381224D01*
X153800788Y-77381224D01*
X153805374Y-77382095D01*
X153935959Y-77387226D01*
X154061875Y-77392174D01*
X154061881Y-77392174D01*
X154066543Y-77392357D01*
X154145977Y-77383657D01*
X154321707Y-77364412D01*
X154321712Y-77364411D01*
X154326360Y-77363902D01*
X154439116Y-77334216D01*
X154574594Y-77298548D01*
X154574596Y-77298547D01*
X154579117Y-77297357D01*
X154819262Y-77194182D01*
X155041519Y-77056646D01*
X155045082Y-77053629D01*
X155045087Y-77053626D01*
X155237439Y-76890787D01*
X155237440Y-76890786D01*
X155241005Y-76887768D01*
X155349846Y-76763659D01*
X155410257Y-76694774D01*
X155410261Y-76694769D01*
X155413339Y-76691259D01*
X155485514Y-76579051D01*
X155552205Y-76475367D01*
X155554733Y-76471437D01*
X155662083Y-76233129D01*
X155693129Y-76123048D01*
X155731760Y-75986076D01*
X155731761Y-75986073D01*
X155733030Y-75981572D01*
X155749832Y-75849496D01*
X155752579Y-75827900D01*
X160226525Y-75827900D01*
X160226795Y-75832019D01*
X160239067Y-76019252D01*
X160245605Y-76119009D01*
X160246407Y-76123042D01*
X160246408Y-76123048D01*
X160291826Y-76351376D01*
X160302520Y-76405138D01*
X160396295Y-76681389D01*
X160398116Y-76685082D01*
X160398117Y-76685084D01*
X160517149Y-76926457D01*
X160525325Y-76943037D01*
X160687404Y-77185605D01*
X160879757Y-77404943D01*
X161099095Y-77597296D01*
X161341662Y-77759375D01*
X161603311Y-77888405D01*
X161879562Y-77982180D01*
X161883600Y-77982983D01*
X161883603Y-77982984D01*
X162161652Y-78038292D01*
X162161658Y-78038293D01*
X162165691Y-78039095D01*
X162169796Y-78039364D01*
X162169803Y-78039365D01*
X162452681Y-78057905D01*
X162456800Y-78058175D01*
X162460919Y-78057905D01*
X162743797Y-78039365D01*
X162743804Y-78039364D01*
X162747909Y-78039095D01*
X162751942Y-78038293D01*
X162751948Y-78038292D01*
X163029997Y-77982984D01*
X163030000Y-77982983D01*
X163034038Y-77982180D01*
X163310289Y-77888405D01*
X163571938Y-77759375D01*
X163814505Y-77597296D01*
X164033843Y-77404943D01*
X164226196Y-77185605D01*
X164388275Y-76943037D01*
X164396452Y-76926457D01*
X164515483Y-76685084D01*
X164515484Y-76685082D01*
X164517305Y-76681389D01*
X164611080Y-76405138D01*
X164621774Y-76351376D01*
X164667192Y-76123048D01*
X164667193Y-76123042D01*
X164667995Y-76119009D01*
X164674534Y-76019252D01*
X164686805Y-75832019D01*
X164687075Y-75827900D01*
X164679946Y-75719135D01*
X164668265Y-75540903D01*
X164668264Y-75540896D01*
X164667995Y-75536791D01*
X164661381Y-75503536D01*
X164611884Y-75254703D01*
X164611883Y-75254700D01*
X164611080Y-75250662D01*
X164517305Y-74974411D01*
X164468368Y-74875176D01*
X164390102Y-74716467D01*
X164390099Y-74716462D01*
X164388275Y-74712763D01*
X164226196Y-74470195D01*
X164033843Y-74250857D01*
X163814505Y-74058504D01*
X163571938Y-73896425D01*
X163310289Y-73767395D01*
X163034038Y-73673620D01*
X163030000Y-73672817D01*
X163029997Y-73672816D01*
X162751948Y-73617508D01*
X162751942Y-73617507D01*
X162747909Y-73616705D01*
X162743804Y-73616436D01*
X162743797Y-73616435D01*
X162460919Y-73597895D01*
X162456800Y-73597625D01*
X162452681Y-73597895D01*
X162169803Y-73616435D01*
X162169796Y-73616436D01*
X162165691Y-73616705D01*
X162161658Y-73617507D01*
X162161652Y-73617508D01*
X161883603Y-73672816D01*
X161883600Y-73672817D01*
X161879562Y-73673620D01*
X161603311Y-73767395D01*
X161599618Y-73769216D01*
X161599616Y-73769217D01*
X161345367Y-73894598D01*
X161345362Y-73894601D01*
X161341663Y-73896425D01*
X161099095Y-74058504D01*
X160879757Y-74250857D01*
X160687404Y-74470195D01*
X160525325Y-74712763D01*
X160523501Y-74716462D01*
X160523498Y-74716467D01*
X160445232Y-74875176D01*
X160396295Y-74974411D01*
X160302520Y-75250662D01*
X160301717Y-75254700D01*
X160301716Y-75254703D01*
X160252220Y-75503536D01*
X160245605Y-75536791D01*
X160245336Y-75540896D01*
X160245335Y-75540903D01*
X160233654Y-75719135D01*
X160226525Y-75827900D01*
X155752579Y-75827900D01*
X155765616Y-75725421D01*
X155765616Y-75725417D01*
X155766014Y-75722291D01*
X155768431Y-75630000D01*
X155749061Y-75369348D01*
X155737725Y-75319248D01*
X155692408Y-75118980D01*
X155691377Y-75114423D01*
X155646427Y-74998833D01*
X155598340Y-74875176D01*
X155598339Y-74875173D01*
X155596647Y-74870823D01*
X155582975Y-74846901D01*
X155469270Y-74647960D01*
X155466951Y-74643902D01*
X155305138Y-74438643D01*
X155114763Y-74259557D01*
X154900009Y-74110576D01*
X154895816Y-74108508D01*
X154669781Y-73997040D01*
X154669778Y-73997039D01*
X154665593Y-73994975D01*
X154619449Y-73980204D01*
X154421123Y-73916720D01*
X154416665Y-73915293D01*
X154158693Y-73873279D01*
X154044942Y-73871790D01*
X153902022Y-73869919D01*
X153902019Y-73869919D01*
X153897345Y-73869858D01*
X153638362Y-73905104D01*
X153387433Y-73978243D01*
X153383180Y-73980203D01*
X153383179Y-73980204D01*
X153346659Y-73997040D01*
X153150072Y-74087668D01*
X153111067Y-74113241D01*
X152935404Y-74228410D01*
X152935399Y-74228414D01*
X152931491Y-74230976D01*
X152736494Y-74405018D01*
X152569363Y-74605970D01*
X152566934Y-74609973D01*
X152436599Y-74824759D01*
X152433771Y-74829419D01*
X152332697Y-75070455D01*
X152268359Y-75323783D01*
X152242173Y-75583839D01*
X149848962Y-75583839D01*
X149844332Y-75579185D01*
X149790732Y-75525304D01*
X149788060Y-75522618D01*
X149767227Y-75506194D01*
X149530598Y-75319651D01*
X149527617Y-75317301D01*
X149244393Y-75144760D01*
X149123909Y-75089979D01*
X148945945Y-75009063D01*
X148945937Y-75009060D01*
X148942493Y-75007494D01*
X148626288Y-74907491D01*
X148454443Y-74875176D01*
X148304083Y-74846901D01*
X148304078Y-74846900D01*
X148300359Y-74846201D01*
X147998768Y-74826434D01*
X147973212Y-74824759D01*
X147969428Y-74824511D01*
X147965648Y-74824719D01*
X147965647Y-74824719D01*
X147880247Y-74829419D01*
X147638288Y-74842735D01*
X147634561Y-74843396D01*
X147634557Y-74843396D01*
X147479799Y-74870823D01*
X147311735Y-74900608D01*
X147308110Y-74901713D01*
X147308105Y-74901714D01*
X147081705Y-74970716D01*
X146994500Y-74997294D01*
X146691179Y-75131391D01*
X146580907Y-75196996D01*
X146409424Y-75299017D01*
X146409418Y-75299021D01*
X146406164Y-75300957D01*
X146143585Y-75503536D01*
X146140885Y-75506194D01*
X145918187Y-75725421D01*
X145907244Y-75736193D01*
X145700566Y-75995558D01*
X145526545Y-76277874D01*
X145524956Y-76281321D01*
X145389287Y-76575607D01*
X145389283Y-76575617D01*
X145387700Y-76579051D01*
X145386541Y-76582651D01*
X145386538Y-76582658D01*
X145318753Y-76793153D01*
X145286043Y-76894728D01*
X145285324Y-76898444D01*
X145285322Y-76898452D01*
X145223766Y-77216613D01*
X145223765Y-77216622D01*
X145223047Y-77220332D01*
X145222780Y-77224108D01*
X145222779Y-77224113D01*
X145209783Y-77407659D01*
X145199624Y-77551145D01*
X140471500Y-77551145D01*
X140471500Y-76888377D01*
X140491502Y-76820256D01*
X140545158Y-76773763D01*
X140615432Y-76763659D01*
X140680012Y-76793153D01*
X140686206Y-76798894D01*
X140835076Y-76946470D01*
X140859743Y-76970923D01*
X140863505Y-76973681D01*
X140863508Y-76973684D01*
X141066750Y-77122707D01*
X141070524Y-77125474D01*
X141074667Y-77127654D01*
X141074669Y-77127655D01*
X141297684Y-77244989D01*
X141297689Y-77244991D01*
X141301834Y-77247172D01*
X141548590Y-77333344D01*
X141553183Y-77334216D01*
X141800785Y-77381224D01*
X141800788Y-77381224D01*
X141805374Y-77382095D01*
X141935959Y-77387226D01*
X142061875Y-77392174D01*
X142061881Y-77392174D01*
X142066543Y-77392357D01*
X142145977Y-77383657D01*
X142321707Y-77364412D01*
X142321712Y-77364411D01*
X142326360Y-77363902D01*
X142439116Y-77334216D01*
X142574594Y-77298548D01*
X142574596Y-77298547D01*
X142579117Y-77297357D01*
X142819262Y-77194182D01*
X143041519Y-77056646D01*
X143045082Y-77053629D01*
X143045087Y-77053626D01*
X143237439Y-76890787D01*
X143237440Y-76890786D01*
X143241005Y-76887768D01*
X143349846Y-76763659D01*
X143410257Y-76694774D01*
X143410261Y-76694769D01*
X143413339Y-76691259D01*
X143485514Y-76579051D01*
X143552205Y-76475367D01*
X143554733Y-76471437D01*
X143662083Y-76233129D01*
X143693129Y-76123048D01*
X143731760Y-75986076D01*
X143731761Y-75986073D01*
X143733030Y-75981572D01*
X143749832Y-75849496D01*
X143765616Y-75725421D01*
X143765616Y-75725417D01*
X143766014Y-75722291D01*
X143768431Y-75630000D01*
X143749061Y-75369348D01*
X143737725Y-75319248D01*
X143692408Y-75118980D01*
X143691377Y-75114423D01*
X143646427Y-74998833D01*
X143598340Y-74875176D01*
X143598339Y-74875173D01*
X143596647Y-74870823D01*
X143582975Y-74846901D01*
X143469270Y-74647960D01*
X143466951Y-74643902D01*
X143305138Y-74438643D01*
X143114763Y-74259557D01*
X142900009Y-74110576D01*
X142895816Y-74108508D01*
X142669781Y-73997040D01*
X142669778Y-73997039D01*
X142665593Y-73994975D01*
X142619449Y-73980204D01*
X142421123Y-73916720D01*
X142416665Y-73915293D01*
X142158693Y-73873279D01*
X142044942Y-73871790D01*
X141902022Y-73869919D01*
X141902019Y-73869919D01*
X141897345Y-73869858D01*
X141769037Y-73887320D01*
X141698841Y-73876687D01*
X141645538Y-73829791D01*
X141626050Y-73761521D01*
X141646564Y-73693553D01*
X141662951Y-73673376D01*
X145185922Y-70150405D01*
X145248234Y-70116379D01*
X145275017Y-70113500D01*
X160387436Y-70113500D01*
X160395676Y-70113770D01*
X160466700Y-70118425D01*
X160470820Y-70118155D01*
X160762854Y-70099015D01*
X160762861Y-70099014D01*
X160766966Y-70098745D01*
X160770999Y-70097943D01*
X160771005Y-70097942D01*
X160797728Y-70092626D01*
X160956264Y-70061091D01*
X161026978Y-70067419D01*
X161083046Y-70110973D01*
X161106665Y-70177926D01*
X161095133Y-70237721D01*
X161059774Y-70313895D01*
X160994583Y-70548967D01*
X160968660Y-70791531D01*
X160968957Y-70796683D01*
X160968957Y-70796687D01*
X160980358Y-70994399D01*
X160982703Y-71035071D01*
X160983840Y-71040117D01*
X160983841Y-71040123D01*
X161006907Y-71142475D01*
X161036333Y-71273047D01*
X161038275Y-71277829D01*
X161038276Y-71277833D01*
X161126167Y-71494282D01*
X161128111Y-71499069D01*
X161255572Y-71707066D01*
X161415292Y-71891453D01*
X161602983Y-72047277D01*
X161813604Y-72170353D01*
X162041498Y-72257378D01*
X162046564Y-72258409D01*
X162046565Y-72258409D01*
X162275467Y-72304980D01*
X162275471Y-72304980D01*
X162280546Y-72306013D01*
X162285722Y-72306203D01*
X162285724Y-72306203D01*
X162519163Y-72314763D01*
X162519167Y-72314763D01*
X162524327Y-72314952D01*
X162529447Y-72314296D01*
X162529449Y-72314296D01*
X162606177Y-72304467D01*
X162766294Y-72283955D01*
X162771243Y-72282470D01*
X162771249Y-72282469D01*
X162995000Y-72215340D01*
X162994999Y-72215340D01*
X162999950Y-72213855D01*
X163219019Y-72106534D01*
X163223224Y-72103534D01*
X163223230Y-72103531D01*
X163413414Y-71967874D01*
X163413416Y-71967872D01*
X163417618Y-71964875D01*
X163590414Y-71792681D01*
X163732766Y-71594577D01*
X163840850Y-71375884D01*
X163873627Y-71268005D01*
X163910262Y-71147427D01*
X163910263Y-71147421D01*
X163911766Y-71142475D01*
X163943607Y-70900617D01*
X163945384Y-70827900D01*
X163925396Y-70584776D01*
X163865967Y-70348180D01*
X163768694Y-70124468D01*
X163687693Y-69999260D01*
X163639000Y-69923991D01*
X163638998Y-69923988D01*
X163636190Y-69919648D01*
X163472012Y-69739219D01*
X163467961Y-69736020D01*
X163467957Y-69736016D01*
X163284625Y-69591229D01*
X163284621Y-69591227D01*
X163280570Y-69588027D01*
X163067005Y-69470133D01*
X163062136Y-69468409D01*
X163062132Y-69468407D01*
X162841927Y-69390428D01*
X162841923Y-69390427D01*
X162837052Y-69388702D01*
X162831959Y-69387795D01*
X162831956Y-69387794D01*
X162601977Y-69346828D01*
X162601971Y-69346827D01*
X162596888Y-69345922D01*
X162489063Y-69344605D01*
X162421193Y-69323772D01*
X162375359Y-69269553D01*
X162366114Y-69199160D01*
X162396393Y-69134945D01*
X162401508Y-69129519D01*
X164133097Y-67397930D01*
X164170383Y-67355414D01*
X164279132Y-67231410D01*
X164279136Y-67231404D01*
X164281850Y-67228310D01*
X164449026Y-66978113D01*
X164473177Y-66929141D01*
X164580290Y-66711939D01*
X164580293Y-66711931D01*
X164582116Y-66708235D01*
X164583445Y-66704320D01*
X164677511Y-66427208D01*
X164677513Y-66427200D01*
X164678839Y-66423294D01*
X164713131Y-66250898D01*
X164736741Y-66132205D01*
X164736742Y-66132199D01*
X164737544Y-66128166D01*
X164738145Y-66119009D01*
X164756955Y-65832019D01*
X164757225Y-65827900D01*
X164748275Y-65691355D01*
X164737814Y-65531749D01*
X164737813Y-65531745D01*
X164737544Y-65527634D01*
X164725697Y-65468073D01*
X164679645Y-65236552D01*
X164679643Y-65236546D01*
X164678840Y-65232507D01*
X164582116Y-64947566D01*
X164580293Y-64943870D01*
X164580290Y-64943862D01*
X164450852Y-64681391D01*
X164449026Y-64677688D01*
X164281850Y-64427490D01*
X164279136Y-64424396D01*
X164279132Y-64424390D01*
X164086155Y-64204343D01*
X164083446Y-64201254D01*
X164013005Y-64139479D01*
X163860310Y-64005568D01*
X163860304Y-64005564D01*
X163857210Y-64002850D01*
X163607012Y-63835674D01*
X163558040Y-63811523D01*
X163340838Y-63704410D01*
X163340830Y-63704407D01*
X163337134Y-63702584D01*
X163333219Y-63701255D01*
X163056108Y-63607189D01*
X163056099Y-63607187D01*
X163052194Y-63605861D01*
X163048150Y-63605057D01*
X163048144Y-63605055D01*
X162761105Y-63547959D01*
X162761099Y-63547958D01*
X162757066Y-63547156D01*
X162752961Y-63546887D01*
X162752954Y-63546886D01*
X162460919Y-63527745D01*
X162456800Y-63527475D01*
X162452681Y-63527745D01*
X162160646Y-63546886D01*
X162160639Y-63546887D01*
X162156534Y-63547156D01*
X162152501Y-63547958D01*
X162152495Y-63547959D01*
X161865456Y-63605055D01*
X161865450Y-63605057D01*
X161861406Y-63605861D01*
X161857500Y-63607187D01*
X161857492Y-63607189D01*
X161580380Y-63701255D01*
X161576465Y-63702584D01*
X161572769Y-63704407D01*
X161572761Y-63704410D01*
X161355559Y-63811523D01*
X161306587Y-63835674D01*
X161303154Y-63837968D01*
X161303152Y-63837969D01*
X161059821Y-64000557D01*
X161059820Y-64000558D01*
X161056390Y-64002850D01*
X161053296Y-64005564D01*
X161053290Y-64005568D01*
X160929286Y-64114317D01*
X160886770Y-64151603D01*
X159552778Y-65485595D01*
X159490466Y-65519621D01*
X159463683Y-65522500D01*
X156109749Y-65522500D01*
X156041628Y-65502498D01*
X155995135Y-65448842D01*
X155985031Y-65378568D01*
X156014525Y-65313988D01*
X156022300Y-65305788D01*
X156030608Y-65297779D01*
X156030609Y-65297778D01*
X156033335Y-65295150D01*
X156242718Y-65037964D01*
X156419687Y-64757485D01*
X156454380Y-64684258D01*
X156560049Y-64461216D01*
X156561678Y-64457778D01*
X156666635Y-64143183D01*
X156733037Y-63818257D01*
X156759923Y-63487707D01*
X156760527Y-63430000D01*
X156758788Y-63401145D01*
X156740798Y-63102738D01*
X156740798Y-63102734D01*
X156740570Y-63098960D01*
X156680987Y-62772715D01*
X156582641Y-62455991D01*
X156446958Y-62153375D01*
X156275902Y-61869252D01*
X156273575Y-61866268D01*
X156273570Y-61866261D01*
X156074287Y-61610732D01*
X156074285Y-61610730D01*
X156071951Y-61607737D01*
X155838060Y-61372618D01*
X155817227Y-61356194D01*
X155580598Y-61169651D01*
X155577617Y-61167301D01*
X155294393Y-60994760D01*
X155173909Y-60939979D01*
X154995945Y-60859063D01*
X154995937Y-60859060D01*
X154992493Y-60857494D01*
X154676288Y-60757491D01*
X154531802Y-60730321D01*
X154354083Y-60696901D01*
X154354078Y-60696900D01*
X154350359Y-60696201D01*
X154019428Y-60674511D01*
X154015648Y-60674719D01*
X154015647Y-60674719D01*
X153917888Y-60680099D01*
X153688288Y-60692735D01*
X153684561Y-60693396D01*
X153684557Y-60693396D01*
X153419350Y-60740397D01*
X153361735Y-60750608D01*
X153358110Y-60751713D01*
X153358105Y-60751714D01*
X153109529Y-60827475D01*
X153044500Y-60847294D01*
X152741179Y-60981391D01*
X152630907Y-61046996D01*
X152459424Y-61149017D01*
X152459418Y-61149021D01*
X152456164Y-61150957D01*
X152193585Y-61353536D01*
X151957244Y-61586193D01*
X151750566Y-61845558D01*
X151576545Y-62127874D01*
X151574956Y-62131321D01*
X151439287Y-62425607D01*
X151439283Y-62425617D01*
X151437700Y-62429051D01*
X151436541Y-62432651D01*
X151436538Y-62432658D01*
X151427855Y-62459622D01*
X151336043Y-62744728D01*
X151335324Y-62748444D01*
X151335322Y-62748452D01*
X151273766Y-63066613D01*
X151273765Y-63066622D01*
X151273047Y-63070332D01*
X151272780Y-63074108D01*
X151272779Y-63074113D01*
X151249892Y-63397356D01*
X151249624Y-63401145D01*
X151251061Y-63430000D01*
X151264722Y-63704410D01*
X151266114Y-63732376D01*
X151266755Y-63736107D01*
X151266756Y-63736115D01*
X151313057Y-64005568D01*
X151322277Y-64059227D01*
X151323365Y-64062866D01*
X151323366Y-64062869D01*
X151365676Y-64204343D01*
X151417300Y-64376964D01*
X151549807Y-64680983D01*
X151551730Y-64684254D01*
X151551732Y-64684258D01*
X151715956Y-64963612D01*
X151715961Y-64963620D01*
X151717879Y-64966882D01*
X151720180Y-64969897D01*
X151916780Y-65227505D01*
X151916785Y-65227510D01*
X151919080Y-65230518D01*
X151921724Y-65233232D01*
X151995123Y-65308578D01*
X152028329Y-65371330D01*
X152022338Y-65442074D01*
X151979051Y-65498348D01*
X151912212Y-65522286D01*
X151904869Y-65522500D01*
X144351264Y-65522500D01*
X144343023Y-65522230D01*
X144272000Y-65517575D01*
X144267880Y-65517845D01*
X144196857Y-65522500D01*
X143975846Y-65536985D01*
X143975839Y-65536986D01*
X143971734Y-65537255D01*
X143967701Y-65538057D01*
X143967695Y-65538058D01*
X143680656Y-65595154D01*
X143680650Y-65595156D01*
X143676606Y-65595960D01*
X143672697Y-65597287D01*
X143672693Y-65597288D01*
X143395580Y-65691355D01*
X143391665Y-65692684D01*
X143387964Y-65694509D01*
X143387962Y-65694510D01*
X143325858Y-65725137D01*
X143125490Y-65823947D01*
X143125486Y-65823950D01*
X143121788Y-65825773D01*
X143118355Y-65828067D01*
X143118353Y-65828068D01*
X142875021Y-65990657D01*
X142875016Y-65990661D01*
X142871590Y-65992950D01*
X142868496Y-65995664D01*
X142868490Y-65995668D01*
X142727848Y-66119009D01*
X142645354Y-66191354D01*
X142642645Y-66194443D01*
X142598412Y-66244881D01*
X142592775Y-66250898D01*
X136867095Y-71976578D01*
X136804783Y-72010604D01*
X136733968Y-72005539D01*
X136677132Y-71962992D01*
X136652321Y-71896472D01*
X136652000Y-71887483D01*
X136652000Y-56514500D01*
X136672002Y-56446379D01*
X136725658Y-56399886D01*
X136778000Y-56388500D01*
X165685633Y-56388500D01*
X165705018Y-56390000D01*
G37*
%TD.AperFunction*%
%TA.AperFunction,Conductor*%
G36*
X172788633Y-89486034D02*
G01*
X172834700Y-89540056D01*
X172845354Y-89582500D01*
X172854150Y-89705479D01*
X172860106Y-89788753D01*
X172861062Y-89793147D01*
X172901727Y-89980080D01*
X172914183Y-90037341D01*
X172915755Y-90041556D01*
X172915756Y-90041559D01*
X172979903Y-90213543D01*
X173003087Y-90275703D01*
X173125009Y-90498986D01*
X173127706Y-90502589D01*
X173127710Y-90502595D01*
X173171194Y-90560682D01*
X173277466Y-90702645D01*
X173457355Y-90882534D01*
X173460958Y-90885231D01*
X173657405Y-91032290D01*
X173657411Y-91032294D01*
X173661014Y-91034991D01*
X173884297Y-91156913D01*
X173888509Y-91158484D01*
X174118441Y-91244244D01*
X174118444Y-91244245D01*
X174122659Y-91245817D01*
X174127050Y-91246772D01*
X174127056Y-91246774D01*
X174312513Y-91287117D01*
X174371247Y-91299894D01*
X174375735Y-91300215D01*
X174591668Y-91315659D01*
X174603577Y-91317083D01*
X174604924Y-91317310D01*
X174607645Y-91317768D01*
X174607647Y-91317768D01*
X174612448Y-91318576D01*
X174618991Y-91318656D01*
X174620140Y-91318670D01*
X174620143Y-91318670D01*
X174625000Y-91318729D01*
X174652624Y-91314773D01*
X174670486Y-91313500D01*
X188543570Y-91313500D01*
X188611691Y-91333502D01*
X188658184Y-91387158D01*
X188668288Y-91457432D01*
X188657765Y-91492750D01*
X188641967Y-91526630D01*
X188630716Y-91550757D01*
X188629294Y-91556065D01*
X188629293Y-91556067D01*
X188572881Y-91766598D01*
X188571457Y-91771913D01*
X188551502Y-92000000D01*
X188571457Y-92228087D01*
X188572881Y-92233400D01*
X188572881Y-92233402D01*
X188625005Y-92427928D01*
X188630716Y-92449243D01*
X188633039Y-92454224D01*
X188633039Y-92454225D01*
X188725151Y-92651762D01*
X188725154Y-92651767D01*
X188727477Y-92656749D01*
X188858802Y-92844300D01*
X189020700Y-93006198D01*
X189025208Y-93009355D01*
X189025211Y-93009357D01*
X189110132Y-93068819D01*
X189208251Y-93137523D01*
X189213235Y-93139847D01*
X189215528Y-93141171D01*
X189264521Y-93192553D01*
X189277957Y-93262267D01*
X189251571Y-93328178D01*
X189215528Y-93359409D01*
X189203998Y-93366066D01*
X189151952Y-93402509D01*
X189143576Y-93412988D01*
X189150644Y-93426434D01*
X189852188Y-94127978D01*
X189866132Y-94135592D01*
X189867965Y-94135461D01*
X189874580Y-94131210D01*
X190580077Y-93425713D01*
X190586507Y-93413938D01*
X190577211Y-93401923D01*
X190526002Y-93366066D01*
X190514472Y-93359409D01*
X190465479Y-93308027D01*
X190452042Y-93238313D01*
X190478429Y-93172402D01*
X190492936Y-93159832D01*
X191297000Y-93159832D01*
X191297285Y-93165808D01*
X191311471Y-93314494D01*
X191313730Y-93326228D01*
X191369872Y-93517599D01*
X191374302Y-93528675D01*
X191465619Y-93705978D01*
X191472069Y-93716024D01*
X191595262Y-93872857D01*
X191603499Y-93881506D01*
X191754123Y-94012212D01*
X191763847Y-94019147D01*
X191936467Y-94119010D01*
X191947331Y-94123984D01*
X192135727Y-94189407D01*
X192136716Y-94189648D01*
X192147008Y-94188180D01*
X192151000Y-94174615D01*
X192151000Y-94170402D01*
X192659000Y-94170402D01*
X192662973Y-94183933D01*
X192672399Y-94185288D01*
X192761537Y-94163806D01*
X192772832Y-94159917D01*
X192954382Y-94077371D01*
X192964724Y-94071424D01*
X193127397Y-93956032D01*
X193136425Y-93948239D01*
X193274342Y-93804169D01*
X193281738Y-93794804D01*
X193389921Y-93627259D01*
X193395417Y-93616655D01*
X193469961Y-93431688D01*
X193473355Y-93420230D01*
X193511857Y-93223072D01*
X193512934Y-93214209D01*
X193513000Y-93211500D01*
X193513000Y-92982115D01*
X193508525Y-92966876D01*
X193507135Y-92965671D01*
X193499452Y-92964000D01*
X192677115Y-92964000D01*
X192661876Y-92968475D01*
X192660671Y-92969865D01*
X192659000Y-92977548D01*
X192659000Y-94170402D01*
X192151000Y-94170402D01*
X192151000Y-92982115D01*
X192146525Y-92966876D01*
X192145135Y-92965671D01*
X192137452Y-92964000D01*
X191315115Y-92964000D01*
X191299876Y-92968475D01*
X191298671Y-92969865D01*
X191297000Y-92977548D01*
X191297000Y-93159832D01*
X190492936Y-93159832D01*
X190514472Y-93141171D01*
X190516765Y-93139847D01*
X190521749Y-93137523D01*
X190619868Y-93068819D01*
X190704789Y-93009357D01*
X190704792Y-93009355D01*
X190709300Y-93006198D01*
X190871198Y-92844300D01*
X191002523Y-92656749D01*
X191004846Y-92651767D01*
X191004849Y-92651762D01*
X191085633Y-92478518D01*
X191132550Y-92425233D01*
X191200827Y-92405772D01*
X191268787Y-92426314D01*
X191282341Y-92436544D01*
X191302865Y-92454329D01*
X191310548Y-92456000D01*
X193494885Y-92456000D01*
X193510124Y-92451525D01*
X193511329Y-92450135D01*
X193513000Y-92442452D01*
X193513000Y-92260168D01*
X193512715Y-92254192D01*
X193498529Y-92105506D01*
X193496270Y-92093772D01*
X193440128Y-91902401D01*
X193435698Y-91891325D01*
X193344381Y-91714022D01*
X193337931Y-91703976D01*
X193214738Y-91547143D01*
X193206503Y-91538497D01*
X193202090Y-91534667D01*
X193163748Y-91474914D01*
X193163798Y-91403917D01*
X193202223Y-91344218D01*
X193266825Y-91314770D01*
X193284669Y-91313500D01*
X194069339Y-91313500D01*
X194137460Y-91333502D01*
X194183953Y-91387158D01*
X194194057Y-91457432D01*
X194160357Y-91526630D01*
X194071119Y-91619850D01*
X193956380Y-91797548D01*
X193877314Y-91993737D01*
X193836772Y-92201337D01*
X193836500Y-92206899D01*
X193836500Y-93162846D01*
X193851548Y-93320566D01*
X193911092Y-93523534D01*
X193913836Y-93528861D01*
X193913836Y-93528862D01*
X194005057Y-93705978D01*
X194007942Y-93711580D01*
X194138604Y-93877920D01*
X194143135Y-93881852D01*
X194143138Y-93881855D01*
X194228620Y-93956032D01*
X194298363Y-94016552D01*
X194303549Y-94019552D01*
X194303553Y-94019555D01*
X194399957Y-94075326D01*
X194481454Y-94122473D01*
X194487122Y-94124441D01*
X194487128Y-94124444D01*
X194676300Y-94190136D01*
X194734089Y-94231377D01*
X194760408Y-94297316D01*
X194746900Y-94367015D01*
X194724061Y-94398258D01*
X194032724Y-95089595D01*
X193970412Y-95123621D01*
X193943629Y-95126500D01*
X191213671Y-95126500D01*
X191145550Y-95106498D01*
X191099057Y-95052842D01*
X191088953Y-94982568D01*
X191095269Y-94957407D01*
X191100236Y-94943759D01*
X191156625Y-94733312D01*
X191158528Y-94722519D01*
X191177517Y-94505475D01*
X191177517Y-94494525D01*
X191158528Y-94277481D01*
X191156625Y-94266688D01*
X191100236Y-94056239D01*
X191096490Y-94045947D01*
X191004414Y-93848489D01*
X190998931Y-93838994D01*
X190962491Y-93786952D01*
X190952012Y-93778576D01*
X190938566Y-93785644D01*
X189954095Y-94770115D01*
X189891783Y-94804141D01*
X189820968Y-94799076D01*
X189775905Y-94770115D01*
X188790713Y-93784923D01*
X188778938Y-93778493D01*
X188766923Y-93787789D01*
X188731069Y-93838994D01*
X188725586Y-93848489D01*
X188633510Y-94045947D01*
X188629764Y-94056239D01*
X188573375Y-94266688D01*
X188571472Y-94277481D01*
X188552483Y-94494525D01*
X188552483Y-94505475D01*
X188571472Y-94722519D01*
X188573375Y-94733312D01*
X188629764Y-94943759D01*
X188634731Y-94957407D01*
X188639233Y-95028260D01*
X188604714Y-95090300D01*
X188542134Y-95123829D01*
X188516329Y-95126500D01*
X185964171Y-95126500D01*
X185896050Y-95106498D01*
X185875076Y-95089595D01*
X183260570Y-92475089D01*
X183248184Y-92460677D01*
X183239651Y-92449082D01*
X183239646Y-92449077D01*
X183235308Y-92443182D01*
X183229730Y-92438443D01*
X183229727Y-92438440D01*
X183195032Y-92408965D01*
X183187516Y-92402035D01*
X183181821Y-92396340D01*
X183175092Y-92391016D01*
X183159549Y-92378719D01*
X183156145Y-92375928D01*
X183106097Y-92333409D01*
X183106095Y-92333408D01*
X183100515Y-92328667D01*
X183093999Y-92325339D01*
X183088950Y-92321972D01*
X183083821Y-92318805D01*
X183078084Y-92314266D01*
X183011925Y-92283345D01*
X183008025Y-92281439D01*
X182990055Y-92272263D01*
X182942992Y-92248231D01*
X182935884Y-92246492D01*
X182930241Y-92244393D01*
X182924478Y-92242476D01*
X182917850Y-92239378D01*
X182846383Y-92224513D01*
X182842099Y-92223543D01*
X182838274Y-92222607D01*
X182771190Y-92206192D01*
X182765588Y-92205844D01*
X182765585Y-92205844D01*
X182760036Y-92205500D01*
X182760038Y-92205464D01*
X182756045Y-92205225D01*
X182751853Y-92204851D01*
X182744685Y-92203360D01*
X182678475Y-92205151D01*
X182667279Y-92205454D01*
X182663872Y-92205500D01*
X172705371Y-92205500D01*
X172637250Y-92185498D01*
X172616276Y-92168595D01*
X170758810Y-90311129D01*
X170724784Y-90248817D01*
X170729849Y-90178002D01*
X170772396Y-90121166D01*
X170838916Y-90096355D01*
X170901155Y-90107839D01*
X171000757Y-90154284D01*
X171006065Y-90155706D01*
X171006067Y-90155707D01*
X171216598Y-90212119D01*
X171216600Y-90212119D01*
X171221913Y-90213543D01*
X171450000Y-90233498D01*
X171678087Y-90213543D01*
X171683400Y-90212119D01*
X171683402Y-90212119D01*
X171893933Y-90155707D01*
X171893935Y-90155706D01*
X171899243Y-90154284D01*
X171948314Y-90131402D01*
X172101762Y-90059849D01*
X172101767Y-90059846D01*
X172106749Y-90057523D01*
X172217349Y-89980080D01*
X172289789Y-89929357D01*
X172289792Y-89929355D01*
X172294300Y-89926198D01*
X172456198Y-89764300D01*
X172587523Y-89576749D01*
X172589847Y-89571764D01*
X172589851Y-89571758D01*
X172605480Y-89538240D01*
X172652396Y-89484955D01*
X172720673Y-89465493D01*
X172788633Y-89486034D01*
G37*
%TD.AperFunction*%
%TD*%
M02*
