M48
; DRILL file {KiCad 6.0.11-2627ca5db0~126~ubuntu22.04.1} date Mon 06 Feb 2023 08:19:56 PM
; FORMAT={-:-/ absolute / metric / decimal}
; #@! TF.CreationDate,2023-02-06T20:19:56-05:00
; #@! TF.GenerationSoftware,Kicad,Pcbnew,6.0.11-2627ca5db0~126~ubuntu22.04.1
; #@! TF.FileFunction,Plated,1,2,PTH
FMAT,2
METRIC
; #@! TA.AperFunction,Plated,PTH,ComponentDrill
T1C0.800
; #@! TA.AperFunction,Plated,PTH,ComponentDrill
T2C0.810
; #@! TA.AperFunction,Plated,PTH,ViaDrill
T3C0.900
; #@! TA.AperFunction,Plated,PTH,ComponentDrill
T4C1.000
; #@! TA.AperFunction,Plated,PTH,ComponentDrill
T5C1.100
; #@! TA.AperFunction,Plated,PTH,ComponentDrill
T6C1.250
; #@! TA.AperFunction,Plated,PTH,ComponentDrill
T7C1.300
; #@! TA.AperFunction,Plated,PTH,ComponentDrill
T8C1.500
; #@! TA.AperFunction,Plated,PTH,ComponentDrill
T9C1.700
; #@! TA.AperFunction,Plated,PTH,ComponentDrill
T10C3.200
%
G90
G05
T1
X157.48Y-85.725
X157.48Y-95.885
X157.48Y-99.695
X157.48Y-109.855
X167.64Y-86.38
X167.64Y-96.54
X171.45Y-88.92
X171.45Y-96.54
X189.865Y-92.0
X189.865Y-94.5
X189.865Y-98.445
X189.865Y-100.945
X192.405Y-92.71
X192.405Y-100.33
X194.945Y-92.71
X194.945Y-100.33
X197.485Y-92.71
X197.485Y-100.33
X200.025Y-92.71
X200.025Y-100.33
T2
X167.79Y-104.795
X169.21Y-103.525
X169.21Y-106.065
T3
X186.461Y-94.163
T4
X141.905Y-117.275
X142.005Y-75.63
X149.245Y-87.93
X149.245Y-93.645
X149.245Y-99.395
X149.245Y-105.11
X151.745Y-87.93
X151.745Y-93.645
X151.745Y-99.395
X151.745Y-105.11
X153.905Y-117.275
X154.005Y-75.63
X162.26Y-88.285
X162.26Y-90.785
X162.26Y-106.065
X162.26Y-108.565
T5
X142.875Y-81.915
X142.875Y-111.125
X153.035Y-81.915
X153.035Y-111.125
X161.29Y-99.695
X171.45Y-99.695
T6
X111.449Y-91.482
X111.449Y-96.482
X111.449Y-101.482
X162.457Y-65.828
X162.457Y-70.828
X162.457Y-75.828
X162.56Y-116.481
X162.56Y-121.481
X162.56Y-126.481
T7
X119.634Y-89.154
X119.634Y-104.394
X141.905Y-129.475
X147.955Y-77.58
X147.955Y-115.325
X154.005Y-63.43
T8
X133.35Y-58.55
X133.35Y-81.15
X133.35Y-111.255
X133.35Y-133.855
T9
X129.794Y-92.56
X129.794Y-96.52
X129.794Y-100.48
T10
X141.605Y-96.52
X180.34Y-96.52
T0
M30
